<svg xmlns="http://www.w3.org/2000/svg" viewBox="0 0 256 256"><defs><style>.cls-1{fill:#71869d;}.cls-2{fill:#fff;}</style></defs><title>Gray &amp;amp; white</title><g id="Layer_2_copy" data-name="Layer 2 copy"><rect class="cls-1" width="256" height="256" rx="39.4"/></g><g id="Layer_5" data-name="Layer 5"><rect class="cls-2" x="100.6" y="92.92" width="16.56" height="59.76"/><path class="cls-2" d="M100.6,88.6h16.56v-17S102,73.15,100.6,88.6Z"/><path class="cls-2" d="M100.6,156.48h66.6s-6.12,11.52-17.4,15.24-31.44,2.16-31.44,2.16S103.24,172.2,100.6,156.48Z"/></g><g id="Layer_7" data-name="Layer 7"><path class="cls-2" d="M138.58,132.4H122V71.26h14.4a30,30,0,0,1,30,30v3.36A27.78,27.78,0,0,1,138.58,132.4Z"/><path class="cls-1" d="M120,88.12h15.15a16.13,16.13,0,0,1,9.62,3,12.18,12.18,0,0,1,5.11,10.71,13,13,0,0,1-7.09,11.38,16.48,16.48,0,0,1-7.75,1.93l-15,.1Z"/><path class="cls-2" d="M151.12,152.68H168.4s2.88-18.79-10.26-28.36H122v8.08h13.5a19.93,19.93,0,0,1,8.54,1.82c2.43,1.16,4.95,3,6,5.83A24.71,24.71,0,0,1,151.12,152.68Z"/></g></svg>