<svg id="Layer_1" data-name="Layer 1" xmlns="http://www.w3.org/2000/svg" viewBox="0 0 69.16 103.94"><defs><style>.cls-1{fill:none;stroke:#b6bac5;stroke-miterlimit:10;}.cls-2{fill:#fff;}</style></defs><title>BRI icon light gray</title><g id="Layer_7_copy" data-name="Layer 7 copy"><rect class="cls-1" x="0.59" y="22.16" width="16.56" height="59.76"/><path class="cls-1" d="M100.6,88.6h16.56v-17S102,73.15,100.6,88.6Z" transform="translate(-100.01 -70.76)"/><path class="cls-1" d="M100.6,156.48h66.6s-6.12,11.52-17.4,15.24-31.44,2.16-31.44,2.16S103.24,172.2,100.6,156.48Z" transform="translate(-100.01 -70.76)"/><path class="cls-1" d="M122,88.62V71.26h14.4a30,30,0,0,1,30,30v3.36a27.77,27.77,0,0,1-27.76,27.78H122V114.74" transform="translate(-100.01 -70.76)"/><path class="cls-1" d="M122,88.12h13.23a16.16,16.16,0,0,1,9.62,3A12.19,12.19,0,0,1,150,101.83a13,13,0,0,1-7.09,11.38,16.51,16.51,0,0,1-7.75,1.93l-13.12.1" transform="translate(-100.01 -70.76)"/><path class="cls-1" d="M122,124.32v8.08h13.5a20,20,0,0,1,8.54,1.82c2.43,1.16,5,3,6,5.83a24.78,24.78,0,0,1,1.08,12.63H168.4s2.88-18.79-10.26-28.36" transform="translate(-100.01 -70.76)"/></g><g id="Layer_5" data-name="Layer 5"><path class="cls-2" d="M137.06,131.88s5.6.34,9.37,3.13c0,0,13.78-6.35,13.74-7.25s.22-.9.22-.9l-4.81-4.09L137.89,130Z" transform="translate(-100.01 -70.76)"/></g></svg>