<?xml version="1.0" encoding="UTF-8"?><svg xmlns="http://www.w3.org/2000/svg" viewBox="0 0 413.33 85.38"><defs><style>.e{fill:#b65de1;}.f{isolation:isolate;}.g{fill:#3461d5;}.h{fill:#ad5de3;}.i{fill:#3180d7;}.j{fill:#fbd761;}.k{fill:#3462d6;}</style></defs><g id="a"/><g id="b"><g id="c"><g><g id="d" class="f"><g class="f"><g><path class="g" d="M115.74,65.01c-6.37,0-11.39-1.94-14.92-5.77-3.53-3.82-5.31-9.26-5.31-16.18s1.89-12.25,5.62-16.42c3.74-4.18,8.7-6.3,14.74-6.3,8,0,12.94,4.14,14.68,12.31,.03,.16-.05,.32-.2,.39l-5.8,2.65s-.1,.03-.14,.03c-.07,0-.13-.02-.19-.06-.1-.06-.16-.17-.16-.29v-1.03l-.09-2.29c-.38-4.83-2.54-7.18-6.6-7.18-2.99,0-4.98,1.24-6.07,3.78-1.12,2.6-1.69,7.56-1.69,14.73,0,6.7,.46,11.3,1.36,13.68,.87,2.3,2.5,3.42,4.96,3.42,2.85,0,4.23-1.56,4.23-4.76v-10.12h-5.79c-.19,0-.35-.16-.35-.35v-4.27c0-.19,.16-.35,.35-.35h17.52c.19,0,.35,.16,.35,.35v22.97c0,.19-.16,.35-.35,.35h-3.93c-.14,0-.26-.08-.32-.2l-1.17-2.55c-3.37,2.3-6.98,3.47-10.73,3.47Z"/><path class="g" d="M115.86,20.69c7.85,0,12.63,4.01,14.34,12.03l-5.8,2.65v-1.03l-.09-2.31c-.4-5.01-2.71-7.51-6.95-7.51-3.12,0-5.25,1.33-6.39,3.99-1.14,2.66-1.71,7.61-1.71,14.87,0,6.77,.46,11.38,1.39,13.81,.92,2.43,2.69,3.65,5.28,3.65,3.05,0,4.58-1.7,4.58-5.11v-10.47h-6.14v-4.27h17.52v22.97h-3.93l-1.34-2.93c-3.43,2.43-7.05,3.65-10.88,3.65-6.3,0-11.18-1.88-14.66-5.66-3.48-3.77-5.22-9.09-5.22-15.94s1.84-12.07,5.53-16.19c3.69-4.12,8.51-6.19,14.48-6.19m0-.7c-6.14,0-11.19,2.16-15,6.42-3.79,4.24-5.71,9.84-5.71,16.66s1.82,12.53,5.41,16.41c3.6,3.9,8.71,5.88,15.18,5.88,3.7,0,7.25-1.11,10.59-3.3l1,2.18c.11,.25,.36,.41,.63,.41h3.93c.38,0,.7-.31,.7-.7v-22.97c0-.38-.31-.7-.7-.7h-17.52c-.38,0-.7,.31-.7,.7v4.27c0,.38,.31,.7,.7,.7h5.44v9.78c0,3.01-1.23,4.41-3.88,4.41-2.3,0-3.81-1.05-4.63-3.2-.89-2.34-1.34-6.9-1.34-13.56,0-7.12,.56-12.03,1.66-14.59,1.03-2.4,2.91-3.57,5.75-3.57,3.85,0,5.89,2.25,6.26,6.87l.09,2.28v1c0,.24,.12,.46,.32,.59,.11,.07,.24,.11,.38,.11,.1,0,.2-.02,.29-.06l5.8-2.65c.3-.14,.46-.46,.39-.78-1.77-8.35-6.83-12.58-15.02-12.58h0Z"/></g><g><path class="g" d="M137.49,64.3c-.19,0-.35-.16-.35-.35v-31.42c0-.09,.04-.18,.1-.25,.06-.06,.15-.1,.24-.1l2.22,.03c2.59,0,5.65-.28,9.1-.84,.02,0,.04,0,.06,0,.08,0,.16,.03,.23,.08,.08,.07,.12,.16,.12,.27v3.89c1.79-2.81,3.95-4.23,6.45-4.23,3.87,0,5.83,2.15,5.83,6.39,0,1.08-.18,2.34-.54,3.73-.12,.55-.32,1.4-.59,2.52-.04,.16-.18,.27-.34,.27h-7.79c-.11,0-.21-.05-.27-.13-.07-.08-.09-.19-.07-.29,.28-1.25,.51-2.15,.73-2.75,.28-.81,.42-1.54,.42-2.19,0-1.46-.58-1.65-1.09-1.65-.32,0-.97,.31-1.76,2.41-.65,1.71-.97,3.54-.97,5.44v18.83c0,.19-.16,.35-.35,.35h-11.38Z"/><path class="g" d="M155.66,31.72c3.66,0,5.49,2.02,5.49,6.05,0,1.06-.18,2.28-.53,3.65-.12,.56-.32,1.4-.59,2.53h-7.79c.27-1.23,.51-2.13,.72-2.71,.29-.85,.44-1.62,.44-2.31,0-1.33-.48-2-1.43-2-.73,0-1.42,.88-2.09,2.63-.67,1.76-1,3.61-1,5.56v18.83h-11.38v-31.42l2.21,.03c2.62,0,5.67-.28,9.16-.84v5.17c1.85-3.45,4.11-5.17,6.79-5.17m-6.79-.7s-.07,0-.11,0c-3.43,.55-6.48,.83-9.05,.83l-2.2-.03h0c-.18,0-.36,.07-.49,.2-.13,.13-.21,.31-.21,.5v31.42c0,.38,.31,.7,.7,.7h11.38c.38,0,.7-.31,.7-.7v-18.83c0-1.86,.32-3.65,.95-5.32,.8-2.12,1.37-2.18,1.44-2.18,.26,0,.74,0,.74,1.3,0,.61-.13,1.31-.4,2.08-.22,.61-.46,1.52-.74,2.79-.05,.21,0,.42,.14,.59,.13,.16,.33,.26,.54,.26h7.79c.32,0,.6-.22,.68-.53,.27-1.13,.47-1.97,.6-2.54,.36-1.4,.55-2.68,.55-3.8,0-5.57-3.36-6.74-6.18-6.74-2.33,0-4.37,1.16-6.1,3.47v-2.77c0-.2-.09-.4-.24-.53-.13-.11-.29-.17-.45-.17h0Z"/></g><g><path class="g" d="M172.9,64.95c-6.83,0-10.29-3.22-10.29-9.57,0-4.82,3.14-8.25,9.35-10.18,5.38-1.69,8.11-3.69,8.11-5.96,0-3.02-1.46-4.48-4.45-4.48-3.5,0-5.2,1.42-5.2,4.33,0,.93,.29,2.19,.85,3.74,.04,.12,.02,.25-.06,.34-.07,.08-.16,.12-.26,.12-.02,0-.04,0-.07,0l-5.64-1.09c-.14-.03-.26-.14-.28-.29-.15-.99-.22-1.93-.22-2.79,0-5.19,4.71-7.83,14-7.83s13.31,2.47,13.31,7.33v19.07c0,2.31,.89,2.58,1.55,2.58,.23,0,.69-.11,1.57-.61,.05-.03,.11-.04,.17-.04,.04,0,.08,0,.12,.02,.1,.03,.17,.11,.21,.2l1.09,2.87c.07,.18-.02,.38-.2,.45-2.81,1.09-5.59,1.64-8.26,1.64-3.75,0-6.21-1.12-7.32-3.33-1.93,2.31-4.65,3.48-8.08,3.48Zm7.07-19.02c-.58,.56-1.23,1.05-1.94,1.46-2.25,1.32-3.35,3.48-3.35,6.62,0,2.68,.36,5.88,2.08,5.88,2.16,0,3.2-1.91,3.2-5.82v-8.14Z"/><path class="g" d="M178.73,31.63c8.64,0,12.97,2.33,12.97,6.98v19.07c0,1.95,.63,2.93,1.9,2.93,.39,0,.98-.22,1.74-.65l1.09,2.87c-2.78,1.08-5.5,1.62-8.13,1.62-3.91,0-6.32-1.22-7.23-3.65-1.89,2.54-4.61,3.8-8.17,3.8-6.63,0-9.94-3.08-9.94-9.23,0-4.68,3.03-7.96,9.1-9.85,5.57-1.74,8.35-3.84,8.35-6.3,0-3.22-1.6-4.83-4.8-4.83-3.7,0-5.55,1.56-5.55,4.68,0,.98,.29,2.26,.87,3.86l-5.64-1.09c-.15-.98-.22-1.89-.22-2.74,0-4.99,4.55-7.48,13.65-7.48m-1.96,28.61c2.37,0,3.55-2.06,3.55-6.17v-9.01c-.71,.81-1.53,1.49-2.46,2.03-2.35,1.37-3.52,3.68-3.52,6.92,0,4.15,.81,6.23,2.43,6.23m1.96-29.31c-9.52,0-14.35,2.75-14.35,8.18,0,.88,.08,1.84,.23,2.84,.04,.29,.27,.52,.56,.58l5.64,1.09s.09,.01,.13,.01c.2,0,.4-.09,.53-.24,.16-.19,.21-.45,.12-.69-.55-1.51-.83-2.73-.83-3.63,0-1.71,.5-3.98,4.85-3.98,2.8,0,4.1,1.31,4.1,4.13,0,2.07-2.72,4.02-7.86,5.63-6.36,1.98-9.59,5.52-9.59,10.51,0,6.58,3.58,9.92,10.64,9.92,3.35,0,6.04-1.08,8.02-3.23,1.26,2.04,3.74,3.07,7.38,3.07,2.71,0,5.54-.56,8.39-1.67,.36-.14,.53-.54,.4-.9l-1.09-2.87c-.07-.19-.22-.34-.42-.41-.08-.03-.16-.04-.24-.04-.12,0-.24,.03-.34,.09-.89,.51-1.28,.56-1.4,.56-.36,0-1.2,0-1.2-2.23v-19.07c0-5.09-4.6-7.68-13.66-7.68h0Zm-1.96,28.61c-1.51,0-1.73-3.47-1.73-5.54,0-3,1.04-5.07,3.18-6.32,.5-.29,.97-.62,1.41-.98v7.36c0,5.48-2.15,5.48-2.86,5.48h0Z"/></g><g><path class="g" d="M207.65,65.01c-7.26,0-10.94-5.59-10.94-16.62s3.89-17.08,11.57-17.08c2.71,0,4.96,1.07,6.7,3.19v-13.1c0-.19,.16-.35,.35-.35,3.4,0,7.22-.22,11.34-.65,.01,0,.02,0,.04,0,.09,0,.17,.03,.23,.09,.07,.07,.12,.16,.12,.26V63.95c0,.19-.16,.35-.35,.35h-11.38c-.19,0-.35-.16-.35-.35v-1.81c-1.9,1.91-4.36,2.88-7.32,2.88Zm4.3-28.42c-.62,0-2.52,0-2.52,4.92l-.22,6.68,.13,6.06c0,3.69,.95,5.49,2.89,5.49s2.8-1.76,2.8-5.39l.16-7.67-.25-5.21c-.31-3.23-1.32-4.87-2.99-4.87Z"/><path class="g" d="M226.69,20.75V63.95h-11.38v-2.71c-1.91,2.29-4.47,3.43-7.67,3.43-7.06,0-10.6-5.42-10.6-16.27s3.74-16.74,11.22-16.74c2.95,0,5.3,1.3,7.04,3.9v-14.15c3.43,0,7.22-.22,11.38-.65m-14.46,39.33c2.1,0,3.15-1.91,3.15-5.73l.16-7.67-.25-5.24c-.33-3.47-1.44-5.2-3.33-5.2s-2.87,1.76-2.87,5.27l-.22,6.67,.13,6.08c0,3.89,1.08,5.83,3.24,5.83m14.46-40.03s-.05,0-.07,0c-4.11,.43-7.91,.65-11.3,.65-.38,0-.7,.31-.7,.7v12.18c-1.71-1.74-3.83-2.63-6.35-2.63-7.91,0-11.92,5.87-11.92,17.43s3.8,16.97,11.29,16.97c2.76,0,5.1-.81,6.97-2.43v1.01c0,.38,.31,.7,.7,.7h11.38c.38,0,.7-.31,.7-.7V20.75c0-.2-.08-.39-.23-.52-.13-.12-.29-.18-.47-.18h0Zm-14.46,39.33c-.63,0-2.54,0-2.54-5.13l-.13-6.09,.22-6.63c0-4.59,1.63-4.59,2.17-4.59,1.46,0,2.35,1.54,2.64,4.58l.25,5.2-.16,7.62c0,5.05-1.85,5.05-2.45,5.05h0Z"/></g><g><path class="g" d="M247.14,65.01c-10.65,0-16.06-5.39-16.06-16.03,0-5.13,1.43-9.4,4.26-12.69,2.84-3.31,6.53-4.98,10.95-4.98,9.27,0,13.97,6.03,13.97,17.93,0,.19-.16,.35-.35,.35h-16.23c.06,7.73,2.05,11.65,5.91,11.65s5.51-2.17,5.51-6.63c0-.62-.02-1.33-.06-2.13,0-.11,.04-.22,.13-.29,.06-.05,.14-.07,.22-.07,.03,0,.07,0,.1,.01l4.58,1.34c.16,.05,.26,.19,.25,.36-.49,7.43-4.93,11.2-13.19,11.2Zm2.61-19.65c-.03-6.72-1.05-10.28-2.95-10.28-1.77,0-2.78,2.62-3.02,7.8l-.11,2.47h6.08Z"/><path class="g" d="M246.3,31.66c9.08,0,13.62,5.86,13.62,17.58h-16.58c0,8.23,2.09,12.34,6.26,12.34,3.91,0,5.86-2.33,5.86-6.98,0-.62-.02-1.34-.06-2.15l4.58,1.34c-.48,7.25-4.76,10.88-12.84,10.88-10.47,0-15.71-5.23-15.71-15.68,0-5.07,1.39-9.23,4.18-12.47,2.78-3.24,6.35-4.86,10.69-4.86m-2.99,14.06h6.79c0-7.31-1.1-10.97-3.3-10.97-2,0-3.12,2.71-3.37,8.13l-.13,2.84m2.99-14.75c-4.53,0-8.31,1.72-11.22,5.1-2.88,3.36-4.34,7.7-4.34,12.92,0,10.86,5.52,16.37,16.4,16.37,8.48,0,13.03-3.88,13.53-11.53,.02-.33-.19-.62-.5-.71l-4.58-1.34c-.06-.02-.13-.03-.2-.03-.15,0-.31,.05-.43,.15-.18,.14-.28,.36-.26,.58,.04,.79,.06,1.51,.06,2.12,0,4.29-1.64,6.28-5.16,6.28s-5.45-3.68-5.56-10.95h15.88c.38,0,.7-.31,.7-.7,0-12.13-4.82-18.27-14.32-18.27h0Zm-2.26,14.06l.09-2.11c.22-4.82,1.17-7.47,2.67-7.47,.76,0,2.51,.95,2.6,9.58h-5.37Z"/></g><g><path class="g" d="M277.25,65.04c-9.7,0-14.62-3.69-14.62-10.98,0-.17,.12-.31,.28-.34l5.86-1.18s.05,0,.07,0c.09,0,.17,.03,.24,.09,.08,.08,.12,.19,.11,.3-.08,.66-.12,1.3-.12,1.89,0,1.74,.71,3.22,2.17,4.51,1.45,1.29,3.19,1.94,5.18,1.94,2.57,0,3.77-1,3.77-3.14,0-.96-1.12-2.58-6.43-4.86-6.78-2.91-10.22-6.73-10.22-11.35,0-3.07,1.34-5.63,3.97-7.59,2.61-1.94,5.99-2.92,10.06-2.92,7.3,0,11.37,3.08,12.1,9.16,.02,.18-.1,.35-.29,.38l-5.52,.97s-.04,0-.06,0c-.08,0-.16-.03-.22-.08-.08-.07-.12-.16-.12-.27,0-4.51-2.03-6.7-6.2-6.7-2.51,0-3.67,.94-3.67,2.96,0,1,1.16,2.67,6.7,4.91,7.18,2.93,10.81,6.74,10.81,11.32,0,7.28-4.66,10.98-13.84,10.98Z"/><path class="g" d="M277.56,31.75c7.13,0,11.04,2.95,11.75,8.85l-5.52,.97c0-4.7-2.18-7.04-6.54-7.04-2.68,0-4.02,1.1-4.02,3.3,0,1.62,2.31,3.37,6.92,5.24,7.06,2.89,10.6,6.56,10.6,11,0,7.09-4.5,10.63-13.5,10.63-9.52,0-14.27-3.54-14.27-10.63l5.86-1.18c-.08,.69-.12,1.33-.12,1.93,0,1.83,.76,3.42,2.29,4.77,1.53,1.35,3.33,2.03,5.41,2.03,2.74,0,4.11-1.16,4.11-3.49,0-1.56-2.21-3.28-6.64-5.17-6.67-2.87-10-6.54-10-11.03,0-2.97,1.28-5.41,3.83-7.31,2.56-1.9,5.84-2.85,9.85-2.85m-8.73,21.13h0m8.72-21.83c-4.14,0-7.6,1.01-10.26,2.99-2.73,2.03-4.11,4.68-4.11,7.87,0,4.77,3.51,8.7,10.43,11.67,5.41,2.31,6.22,3.83,6.22,4.54,0,1.3-.39,2.79-3.42,2.79-1.92,0-3.54-.61-4.95-1.85-1.38-1.22-2.06-2.61-2.06-4.25,0-.56,.04-1.15,.11-1.78,.01-.05,.02-.1,.02-.15,0-.38-.31-.7-.69-.7h-.04s-.08,0-.12,.02l-5.85,1.18c-.32,.07-.56,.35-.56,.68,0,7.51,5.04,11.32,14.97,11.32,9.42,0,14.19-3.81,14.19-11.32,0-4.73-3.71-8.65-11.03-11.65-5.64-2.29-6.49-3.86-6.49-4.59,0-1.21,.38-2.61,3.32-2.61,3.99,0,5.85,2.02,5.85,6.35,0,.21,.09,.4,.25,.53,.13,.11,.29,.16,.45,.16,.04,0,.08,0,.12-.01l5.52-.97c.36-.06,.62-.4,.57-.77-.75-6.28-4.94-9.47-12.44-9.47h0Z"/></g><g><path class="g" d="M313.43,64.3c-.19,0-.35-.16-.35-.35v-23.87c0-2.12-.83-2.36-1.46-2.36-1.09,0-2.16,1.1-3.18,3.27-1.05,2.26-1.59,4.72-1.59,7.32v15.65c0,.19-.16,.35-.35,.35h-11.38c-.19,0-.35-.16-.35-.35V21.4c0-.19,.16-.35,.35-.35,3.34,0,7.16-.22,11.34-.65,.01,0,.02,0,.04,0,.09,0,.17,.03,.23,.09,.07,.07,.12,.16,.12,.26v15.98c2.46-3.56,5.83-5.36,10.03-5.36,5.48,0,8.26,2.51,8.26,7.45v25.12c0,.19-.16,.35-.35,.35h-11.38Z"/><path class="g" d="M306.51,20.75v17.17c2.45-4.13,5.91-6.2,10.38-6.2,5.28,0,7.92,2.37,7.92,7.11v25.12h-11.38v-23.87c0-1.81-.6-2.71-1.81-2.71s-2.41,1.16-3.49,3.47c-1.08,2.32-1.62,4.81-1.62,7.47v15.65h-11.38V21.4c3.37,0,7.16-.22,11.38-.65m0-.7s-.05,0-.07,0c-4.17,.43-7.97,.65-11.3,.65-.38,0-.7,.31-.7,.7V63.95c0,.38,.31,.7,.7,.7h11.38c.38,0,.7-.31,.7-.7v-15.65c0-2.54,.52-4.96,1.55-7.17,.65-1.4,1.68-3.07,2.86-3.07,.33,0,1.11,0,1.11,2.02v23.87c0,.38,.31,.7,.7,.7h11.38c.38,0,.7-.31,.7-.7v-25.12c0-5.1-2.98-7.8-8.61-7.8-3.97,0-7.22,1.56-9.68,4.66v-14.93c0-.2-.08-.39-.23-.52-.13-.12-.29-.18-.47-.18h0Z"/></g><g><path class="g" d="M345.44,65.01c-10.65,0-16.06-5.39-16.06-16.03,0-5.13,1.43-9.4,4.26-12.69,2.84-3.31,6.53-4.98,10.95-4.98,9.27,0,13.97,6.03,13.97,17.93,0,.19-.16,.35-.35,.35h-16.23c.06,7.73,2.05,11.65,5.92,11.65s5.51-2.17,5.51-6.63c0-.62-.02-1.33-.06-2.13,0-.11,.04-.22,.13-.29,.06-.05,.14-.07,.22-.07,.03,0,.07,0,.1,.01l4.58,1.34c.16,.05,.26,.19,.25,.36-.49,7.43-4.93,11.2-13.19,11.2Zm2.61-19.65c-.03-6.72-1.05-10.28-2.95-10.28-1.77,0-2.78,2.62-3.02,7.8l-.11,2.47h6.08Z"/><path class="g" d="M344.6,31.66c9.08,0,13.62,5.86,13.62,17.58h-16.58c0,8.23,2.09,12.34,6.27,12.34,3.91,0,5.86-2.33,5.86-6.98,0-.62-.02-1.34-.06-2.15l4.58,1.34c-.48,7.25-4.76,10.88-12.84,10.88-10.47,0-15.71-5.23-15.71-15.68,0-5.07,1.39-9.23,4.18-12.47,2.78-3.24,6.35-4.86,10.69-4.86m-2.99,14.06h6.79c0-7.31-1.1-10.97-3.3-10.97-2,0-3.12,2.71-3.37,8.13l-.13,2.84m2.99-14.75c-4.53,0-8.31,1.72-11.22,5.1-2.88,3.36-4.34,7.7-4.34,12.92,0,10.86,5.52,16.37,16.4,16.37,8.48,0,13.03-3.88,13.54-11.53,.02-.33-.19-.62-.5-.71l-4.58-1.34c-.06-.02-.13-.03-.2-.03-.15,0-.31,.05-.43,.15-.18,.14-.28,.36-.26,.58,.04,.82,.06,1.52,.06,2.12,0,4.29-1.64,6.28-5.16,6.28s-5.45-3.68-5.56-10.95h15.88c.38,0,.7-.31,.7-.7,0-12.13-4.82-18.27-14.32-18.27h0Zm-2.26,14.06l.09-2.11c.22-4.82,1.17-7.47,2.67-7.47,.76,0,2.51,.95,2.6,9.58h-5.37Z"/></g><g><path class="g" d="M377.32,65.01c-10.65,0-16.06-5.39-16.06-16.03,0-5.13,1.43-9.4,4.26-12.69,2.84-3.31,6.53-4.98,10.95-4.98,9.27,0,13.97,6.03,13.97,17.93,0,.19-.16,.35-.35,.35h-16.23c.06,7.73,2.05,11.65,5.91,11.65s5.51-2.17,5.51-6.63c0-.62-.02-1.33-.06-2.13,0-.11,.04-.22,.13-.29,.06-.05,.14-.07,.22-.07,.03,0,.07,0,.1,.01l4.58,1.34c.16,.05,.26,.19,.25,.36-.49,7.43-4.93,11.2-13.19,11.2Zm2.61-19.65c-.03-6.72-1.05-10.28-2.95-10.28-1.77,0-2.78,2.62-3.02,7.8l-.11,2.47h6.08Z"/><path class="g" d="M376.48,31.66c9.08,0,13.62,5.86,13.62,17.58h-16.58c0,8.23,2.09,12.34,6.26,12.34,3.91,0,5.86-2.33,5.86-6.98,0-.62-.02-1.34-.06-2.15l4.58,1.34c-.48,7.25-4.76,10.88-12.84,10.88-10.47,0-15.71-5.23-15.71-15.68,0-5.07,1.39-9.23,4.18-12.47,2.78-3.24,6.35-4.86,10.69-4.86m-2.99,14.06h6.79c0-7.31-1.1-10.97-3.3-10.97-2,0-3.12,2.71-3.37,8.13l-.13,2.84m2.99-14.75c-4.53,0-8.31,1.72-11.22,5.1-2.88,3.36-4.34,7.7-4.34,12.92,0,10.86,5.52,16.37,16.4,16.37,8.48,0,13.03-3.88,13.53-11.53,.02-.33-.19-.62-.5-.71l-4.58-1.34c-.06-.02-.13-.03-.2-.03-.15,0-.31,.05-.43,.15-.18,.14-.28,.36-.26,.58,.04,.79,.06,1.51,.06,2.12,0,4.29-1.64,6.28-5.16,6.28s-5.45-3.68-5.56-10.95h15.88c.38,0,.7-.31,.7-.7,0-12.13-4.82-18.27-14.32-18.27h0Zm-2.26,14.06l.09-2.11c.22-4.82,1.17-7.47,2.67-7.47,.76,0,2.51,.95,2.6,9.58h-5.37Z"/></g><g><path class="g" d="M404.1,64.64c-5.92,0-8.92-2.57-8.92-7.64v-20.5h-3.45c-.19,0-.35-.16-.35-.35v-3.52c0-.19,.16-.35,.35-.35h3.45v-5.2c0-.16,.1-.29,.26-.34,3.88-1.07,7.68-2.63,11.3-4.64,.05-.03,.11-.04,.17-.04s.12,.02,.18,.05c.11,.06,.17,.18,.17,.3v9.88h4.7c.19,0,.35,.16,.35,.35v3.52c0,.19-.16,.35-.35,.35h-4.7v21.87c0,1.74,.72,1.74,.99,1.74,.18,0,.66,0,.81-1.1,.02-.17,.17-.3,.35-.3,.01,0,3.27,.31,3.27,.31,.1,0,.2,.06,.25,.15,.06,.09,.08,.19,.05,.29-.94,3.44-3.92,5.18-8.88,5.18Z"/><path class="g" d="M406.9,22.4v10.22h5.05v3.52h-5.05v22.22c0,1.39,.45,2.09,1.34,2.09,.64,0,1.03-.47,1.15-1.4l3.24,.31c-.89,3.28-3.74,4.92-8.54,4.92-5.71,0-8.57-2.43-8.57-7.29v-20.85h-3.8v-3.52h3.8v-5.55c3.93-1.08,7.72-2.64,11.38-4.68m0-.7c-.12,0-.23,.03-.34,.09-3.59,2-7.37,3.55-11.22,4.61-.3,.08-.51,.36-.51,.67v4.85h-3.11c-.38,0-.7,.31-.7,.7v3.52c0,.38,.31,.7,.7,.7h3.11v20.16c0,3.64,1.61,7.99,9.27,7.99,5.13,0,8.23-1.83,9.21-5.44,.05-.2,.02-.41-.1-.58-.12-.17-.3-.28-.51-.3l-3.24-.31s-.05,0-.07,0c-.34,0-.64,.26-.69,.6-.11,.8-.36,.8-.46,.8-.19,0-.64,0-.64-1.39v-21.53h4.35c.38,0,.7-.31,.7-.7v-3.52c0-.38-.31-.7-.7-.7h-4.35v-9.53c0-.25-.13-.48-.34-.6-.11-.06-.23-.1-.35-.1h0Z"/></g></g></g><g><path class="e" d="M59.91,72.38c-.2,.74-.56,1.42-.9,2.11-.81,1.6-1.78,3.11-2.92,4.5-1.36,1.65-2.88,3.13-4.64,4.34-.14,.09-.27,.21-.43,.25-5.36,0-10.72,0-16.09,0-1.07,0-2.1-.19-3.11-.5-3.33-1.01-6.57-2.25-9.66-3.87-3.07-1.61-5.95-3.52-8.56-5.82-2.5-2.19-4.7-4.64-6.57-7.39-2.59-3.81-4.46-7.95-5.64-12.39-.53-1.99-.92-4-1.16-6.04C.09,46.48,0,45.38,0,44.28c0-1.53-.01-3.07,.03-4.6,.03-1.13,.14-2.26,.28-3.38,.23-1.82,.57-3.63,1.04-5.4,.52-1.99,1.22-3.91,2.06-5.78,1.22-2.7,2.77-5.19,4.61-7.49,1.85-2.31,3.95-4.35,6.27-6.18,3.81-3,8-5.3,12.57-6.93,2.91-1.04,5.89-1.76,8.95-2.2,1.93-.27,3.87-.39,5.81-.43,3.43-.07,6.86-.01,10.29-.03,.16,0,.34-.05,.49,.05-.64,.44-1.31,.84-1.92,1.33-1.7,1.36-3.1,2.97-4.27,4.81-1.04,1.63-1.85,3.37-2.47,5.2-.03,.09-.07,.17-.11,.25-1.58,.04-3.15,.01-4.72,.17-1.52,.15-3.04,.38-4.53,.7-2.47,.53-4.88,1.27-7.2,2.3-3.11,1.39-5.91,3.22-8.31,5.64-.63,.63-1.22,1.29-1.81,1.96-.56,.64-1.02,1.36-1.47,2.09-1.04,1.69-1.91,3.45-2.58,5.32-1.07,2.98-1.62,6.06-1.77,9.2-.09,1.94-.13,3.88,.22,5.81,.51,2.84,1.16,5.63,2.15,8.34,.91,2.48,2.06,4.84,3.58,7,1.27,1.82,2.75,3.44,4.47,4.85,2.33,1.92,4.96,3.31,7.81,4.28,2.27,.77,4.6,1.25,6.97,1.56,2.16,.28,4.33,.38,6.5,.43,1.21,.02,2.42-.01,3.63-.05,1.38-.05,2.75-.1,4.13-.18h.18l.31-.03h.02l6.1-.37s.05,0,.08,0c.84-.04,1.68-.09,2.52-.13Z"/><path class="h" d="M51.2,72.89l-.31,.02c.12,0,.23-.02,.31-.02Z"/><path class="e" d="M61.24,66.56c-.44,.02-.89,.04-1.33,.06l-9.49,.57c-1.2,.08-2.4,.13-3.59,.16-2.08,.06-4.16,.08-6.25-.04-1.38-.08-2.75-.19-4.11-.39-2.2-.32-4.35-.82-6.41-1.68-2.78-1.16-5.18-2.83-7.1-5.15-2.05-2.46-3.4-5.3-4.37-8.33-.59-1.84-1.03-3.71-1.36-5.61-.15-.86-.31-1.72-.29-2.6,.02-.72,.03-1.44,.06-2.16,.04-.89,.11-1.77,.23-2.65,.32-2.33,.9-4.59,1.87-6.74,1.31-2.9,3.21-5.34,5.73-7.3,2.62-2.03,5.57-3.36,8.75-4.23,1.53-.42,3.09-.73,4.67-.95,1.38-.2,2.77-.3,4.16-.24-.02,1.04-.12,2.08-.11,3.12,.03,2.48,.38,4.91,1.11,7.28,.05,.16,.13,.31,.11,.49-.58,.08-1.15,.14-1.73,.23-2.23,.34-4.35,1-6.31,2.13-2.66,1.52-4.94,4.37-5.41,7.65-.19,1.31-.31,2.61-.2,3.93,.15,1.76,.59,3.42,1.43,4.97,.34,.63,.76,1.22,1.25,1.73,.5,.51,1.02,1.01,1.6,1.44,2.72,1.97,5.76,3.02,9.12,3.06,3.25,.04,6.5,0,9.74,.08,1.55,.03,3.09,.01,4.64,.01,.47,.65,.82,1.36,1.22,2.04,.7,1.19,1.38,2.38,1.78,3.71,.31,1.06,.52,2.13,.6,3.24,.06,.72,.07,1.43-.02,2.15Z"/><path class="k" d="M77.28,6.75s-2.59-4.79-9.01-5.65-19.34,14.42-14.08,28.86,16.76,34.85,16.76,34.85l-3.55,11.98-5.75,6.04-11.3,1.38s9.48,.92,11.21,1.02,16.38,1.82,20.6-8.43c4.22-10.25,6.32-14.28-.57-27.98-6.9-13.7-26.49-34.35-4.31-42.06Z"/><path class="i" d="M68.27,1.09S58.98-.25,57.35,.04s-12.93,1.05-15.43,19.16c0,0-.77,6.61,.77,9.58,0,0,1.53,5.37,10.54,19.45,0,0,12.84,13.99,4.98,27.21-3.16,5.94-6.99,7.86-8.62,8.72,0,0,8.05,.38,9.39,.19s2.97,0,4.98-1.53,5.65-5.27,6.99-9.96c1.34-4.69,3.4-6.75-2.83-17.29-6.23-10.54-11.69-19.74-12.84-22.32s-3.83-11.4,0-20.41,9.87-10.73,12.98-11.74Z"/><path class="j" d="M77.47,8.8c-4.82,1.01-8.43,5.29-8.43,10.41s3.62,9.39,8.43,10.41V8.8Z"/><path class="j" d="M49.59,55.52v21.08c5.19-.7,9.2-5.15,9.2-10.54s-4-9.84-9.2-10.54Z"/></g></g></g></g></svg>