<?xml version="1.0" encoding="UTF-8"?><svg xmlns="http://www.w3.org/2000/svg" viewBox="0 0 323.6 85.38"><defs><style>.e{fill:#b65de1;}.f{isolation:isolate;}.g{fill:#3461d5;}.h{fill:#ad5de3;}.i{fill:#3180d7;}.j{fill:#fbd761;}.k{fill:#3462d6;}</style></defs><g id="a"/><g id="b"><g id="c"><g><g id="d" class="f"><g class="f"><g><path class="g" d="M109.92,56.83c-4.57,0-8.18-1.39-10.71-4.14-2.53-2.74-3.81-6.65-3.81-11.62s1.36-8.8,4.04-11.79c2.69-3,6.25-4.53,10.58-4.53,5.75,0,9.29,2.97,10.54,8.84,.02,.11-.03,.23-.14,.28l-4.16,1.9s-.07,.02-.1,.02c-.05,0-.09-.01-.14-.04-.07-.05-.11-.13-.11-.21v-.74l-.07-1.65c-.27-3.46-1.82-5.15-4.74-5.15-2.15,0-3.57,.89-4.36,2.71-.8,1.87-1.21,5.43-1.21,10.58,0,4.81,.33,8.12,.98,9.83,.63,1.65,1.79,2.46,3.56,2.46,2.05,0,3.04-1.12,3.04-3.42v-7.27h-4.16c-.14,0-.25-.11-.25-.25v-3.07c0-.14,.11-.25,.25-.25h12.58c.14,0,.25,.11,.25,.25v16.49c0,.14-.11,.25-.25,.25h-2.82c-.1,0-.19-.06-.23-.15l-.84-1.83c-2.42,1.65-5.01,2.49-7.71,2.49Z"/><path class="g" d="M110.01,25c5.64,0,9.07,2.88,10.29,8.64l-4.16,1.9v-.74l-.07-1.66c-.28-3.6-1.95-5.39-4.99-5.39-2.24,0-3.77,.96-4.59,2.86-.82,1.91-1.23,5.47-1.23,10.67,0,4.86,.33,8.17,1,9.91,.66,1.75,1.93,2.62,3.79,2.62,2.19,0,3.29-1.22,3.29-3.67v-7.52h-4.41v-3.07h12.58v16.49h-2.82l-.96-2.1c-2.46,1.75-5.07,2.62-7.81,2.62-4.52,0-8.03-1.35-10.53-4.06-2.5-2.71-3.75-6.52-3.75-11.45s1.32-8.66,3.97-11.63c2.65-2.96,6.11-4.44,10.4-4.44m0-.5c-4.41,0-8.03,1.55-10.77,4.61-2.72,3.04-4.1,7.07-4.1,11.96s1.31,9,3.88,11.79c2.59,2.8,6.25,4.22,10.9,4.22,2.65,0,5.21-.8,7.6-2.37l.72,1.56c.08,.18,.26,.29,.45,.29h2.82c.28,0,.5-.22,.5-.5v-16.49c0-.28-.22-.5-.5-.5h-12.58c-.28,0-.5,.22-.5,.5v3.07c0,.28,.22,.5,.5,.5h3.91v7.02c0,2.16-.89,3.17-2.79,3.17-1.65,0-2.74-.75-3.33-2.3-.64-1.68-.96-4.96-.96-9.74,0-5.11,.4-8.64,1.19-10.48,.74-1.72,2.09-2.56,4.13-2.56,2.76,0,4.23,1.61,4.49,4.93l.07,1.64v.72c0,.17,.09,.33,.23,.42,.08,.05,.18,.08,.27,.08,.07,0,.14-.01,.21-.05l4.16-1.9c.21-.1,.33-.33,.28-.56-1.27-6-4.9-9.03-10.78-9.03h0Z"/></g><g><path class="g" d="M125.54,56.31c-.14,0-.25-.11-.25-.25v-22.56c0-.07,.03-.13,.07-.18,.05-.05,.11-.07,.18-.07l1.59,.02c1.86,0,4.06-.2,6.54-.6,.01,0,.03,0,.04,0,.06,0,.12,.02,.16,.06,.06,.05,.09,.12,.09,.19v2.79c1.28-2.02,2.84-3.04,4.63-3.04,2.78,0,4.19,1.54,4.19,4.59,0,.78-.13,1.68-.39,2.68-.09,.4-.23,1-.42,1.81-.03,.11-.13,.19-.24,.19h-5.59c-.08,0-.15-.03-.19-.09-.05-.06-.07-.14-.05-.21,.2-.9,.37-1.55,.52-1.98,.2-.58,.3-1.11,.3-1.57,0-1.05-.42-1.18-.78-1.18-.23,0-.7,.22-1.27,1.73-.46,1.23-.7,2.54-.7,3.91v13.52c0,.14-.11,.25-.25,.25h-8.17Z"/><path class="g" d="M138.59,32.92c2.63,0,3.94,1.45,3.94,4.34,0,.76-.13,1.63-.38,2.62-.09,.4-.23,1.01-.43,1.81h-5.59c.19-.88,.37-1.53,.51-1.95,.21-.61,.31-1.16,.31-1.66,0-.95-.34-1.43-1.03-1.43-.52,0-1.02,.63-1.5,1.89-.48,1.26-.72,2.59-.72,3.99v13.52h-8.17v-22.56l1.59,.02c1.88,0,4.07-.2,6.58-.6v3.71c1.33-2.48,2.95-3.71,4.88-3.71m-4.88-.5s-.05,0-.08,0c-2.47,.4-4.65,.6-6.5,.6l-1.58-.02h0c-.13,0-.26,.05-.35,.14-.1,.09-.15,.22-.15,.36v22.56c0,.28,.22,.5,.5,.5h8.17c.28,0,.5-.22,.5-.5v-13.52c0-1.34,.23-2.62,.68-3.82,.58-1.52,.99-1.57,1.03-1.57,.19,0,.53,0,.53,.93,0,.44-.1,.94-.29,1.49-.16,.44-.33,1.09-.53,2-.03,.15,0,.3,.1,.42,.09,.12,.24,.19,.39,.19h5.59c.23,0,.43-.16,.49-.38,.19-.81,.34-1.42,.43-1.82,.26-1,.39-1.93,.39-2.73,0-4-2.41-4.84-4.44-4.84-1.67,0-3.14,.84-4.38,2.49v-1.99c0-.15-.06-.29-.18-.38-.09-.08-.21-.12-.32-.12h0Z"/></g><g><path class="g" d="M150.96,56.78c-4.9,0-7.39-2.31-7.39-6.87,0-3.46,2.26-5.92,6.71-7.31,3.86-1.21,5.82-2.65,5.82-4.28,0-2.17-1.05-3.22-3.2-3.22-2.51,0-3.73,1.02-3.73,3.11,0,.67,.21,1.57,.61,2.69,.03,.08,.01,.18-.04,.25-.05,.06-.12,.09-.19,.09-.02,0-.03,0-.05,0l-4.05-.78c-.1-.02-.18-.1-.2-.21-.11-.71-.16-1.38-.16-2.01,0-3.73,3.38-5.62,10.05-5.62s9.56,1.77,9.56,5.26v13.7c0,1.66,.64,1.85,1.12,1.85,.16,0,.49-.08,1.13-.44,.04-.02,.08-.03,.12-.03,.03,0,.06,0,.08,.01,.07,.02,.12,.08,.15,.15l.78,2.06c.05,.13-.01,.27-.14,.32-2.02,.78-4.01,1.18-5.93,1.18-2.69,0-4.46-.8-5.25-2.39-1.39,1.66-3.34,2.5-5.8,2.5Zm5.08-13.66c-.42,.4-.89,.75-1.39,1.05-1.62,.94-2.4,2.5-2.4,4.75,0,1.93,.26,4.23,1.5,4.23,1.55,0,2.3-1.37,2.3-4.18v-5.84Z"/><path class="g" d="M155.15,32.86c6.21,0,9.31,1.67,9.31,5.01v13.7c0,1.4,.46,2.1,1.37,2.1,.28,0,.7-.16,1.25-.47l.78,2.06c-2,.78-3.95,1.16-5.84,1.16-2.81,0-4.54-.87-5.19-2.62-1.36,1.82-3.31,2.73-5.86,2.73-4.76,0-7.14-2.21-7.14-6.62,0-3.36,2.18-5.71,6.53-7.07,4-1.25,6-2.76,6-4.52,0-2.31-1.15-3.47-3.45-3.47-2.66,0-3.98,1.12-3.98,3.36,0,.7,.21,1.63,.63,2.77l-4.05-.78c-.1-.7-.16-1.36-.16-1.97,0-3.58,3.27-5.37,9.8-5.37m-1.41,20.54c1.7,0,2.55-1.48,2.55-4.43v-6.47c-.51,.58-1.1,1.07-1.77,1.45-1.69,.98-2.53,2.64-2.53,4.97,0,2.98,.58,4.48,1.75,4.48m1.41-21.04c-6.84,0-10.3,1.98-10.3,5.87,0,.63,.05,1.32,.16,2.04,.03,.21,.19,.38,.4,.42l4.05,.78s.06,0,.09,0c.14,0,.28-.06,.38-.18,.12-.14,.15-.33,.09-.5-.4-1.09-.6-1.96-.6-2.6,0-1.23,.36-2.86,3.48-2.86,2.01,0,2.95,.94,2.95,2.97,0,1.49-1.95,2.89-5.65,4.04-4.57,1.42-6.89,3.96-6.89,7.55,0,4.73,2.57,7.12,7.64,7.12,2.41,0,4.34-.78,5.76-2.32,.91,1.47,2.69,2.21,5.3,2.21,1.95,0,3.98-.4,6.02-1.2,.26-.1,.38-.39,.29-.64l-.78-2.06c-.05-.14-.16-.24-.3-.29-.05-.02-.11-.03-.17-.03-.09,0-.17,.02-.25,.07-.64,.37-.92,.4-1.01,.4-.26,0-.87,0-.87-1.6v-13.7c0-3.66-3.3-5.51-9.81-5.51h0Zm-1.41,20.54c-1.08,0-1.25-2.49-1.25-3.98,0-2.16,.75-3.64,2.28-4.54,.36-.21,.7-.44,1.02-.7v5.29c0,3.93-1.54,3.93-2.05,3.93h0Z"/></g><g><path class="g" d="M175.91,56.83c-5.21,0-7.86-4.01-7.86-11.93s2.79-12.27,8.31-12.27c1.95,0,3.56,.77,4.81,2.29v-9.4c0-.14,.11-.25,.25-.25,2.44,0,5.18-.16,8.14-.47h.03c.06,0,.12,.02,.17,.06,.05,.05,.08,.11,.08,.19v31.02c0,.14-.11,.25-.25,.25h-8.17c-.14,0-.25-.11-.25-.25v-1.3c-1.36,1.37-3.13,2.07-5.26,2.07Zm3.09-20.41c-.45,0-1.81,0-1.81,3.53l-.16,4.8,.09,4.35c0,2.65,.68,3.94,2.08,3.94s2.01-1.26,2.01-3.87l.11-5.51-.18-3.74c-.22-2.32-.94-3.5-2.14-3.5Z"/><path class="g" d="M189.59,25.05v31.02h-8.17v-1.95c-1.37,1.64-3.21,2.46-5.51,2.46-5.07,0-7.61-3.89-7.61-11.68s2.69-12.02,8.06-12.02c2.12,0,3.8,.93,5.06,2.8v-10.16c2.46,0,5.18-.16,8.17-.47m-10.38,28.24c1.51,0,2.26-1.37,2.26-4.12l.11-5.51-.18-3.76c-.24-2.49-1.04-3.74-2.39-3.74s-2.06,1.26-2.06,3.78l-.16,4.79,.09,4.36c0,2.79,.78,4.18,2.33,4.18m10.38-28.74s-.03,0-.05,0c-2.95,.31-5.68,.47-8.12,.47-.28,0-.5,.22-.5,.5v8.75c-1.23-1.25-2.75-1.89-4.56-1.89-5.68,0-8.56,4.21-8.56,12.52s2.73,12.18,8.11,12.18c1.98,0,3.66-.59,5.01-1.74v.73c0,.28,.22,.5,.5,.5h8.17c.28,0,.5-.22,.5-.5V25.05c0-.14-.06-.28-.17-.37-.09-.08-.21-.13-.33-.13h0Zm-10.38,28.24c-.45,0-1.83,0-1.83-3.68l-.09-4.37,.16-4.76c0-3.3,1.17-3.3,1.56-3.3,1.05,0,1.69,1.11,1.9,3.29l.18,3.74-.11,5.47c0,3.63-1.33,3.63-1.76,3.63h0Z"/></g><g><path class="g" d="M204.27,56.83c-7.65,0-11.53-3.87-11.53-11.51,0-3.69,1.03-6.75,3.06-9.12,2.04-2.37,4.69-3.58,7.87-3.58,6.66,0,10.03,4.33,10.03,12.87,0,.14-.11,.25-.25,.25h-11.65c.04,5.55,1.47,8.36,4.25,8.36s3.96-1.56,3.96-4.76c0-.44-.01-.95-.04-1.53,0-.08,.03-.16,.09-.21,.04-.04,.1-.05,.16-.05,.02,0,.05,0,.07,0l3.29,.96c.11,.03,.19,.14,.18,.26-.35,5.34-3.54,8.04-9.47,8.04Zm1.88-14.11c-.02-4.83-.76-7.38-2.12-7.38-1.27,0-2,1.88-2.17,5.6l-.08,1.78h4.37Z"/><path class="g" d="M203.67,32.88c6.52,0,9.78,4.21,9.78,12.62h-11.91c0,5.91,1.5,8.86,4.5,8.86,2.8,0,4.21-1.67,4.21-5.01,0-.45-.01-.96-.04-1.54l3.29,.96c-.34,5.21-3.42,7.81-9.22,7.81-7.52,0-11.28-3.75-11.28-11.26,0-3.64,1-6.62,3-8.95,2-2.33,4.56-3.49,7.68-3.49m-2.15,10.09h4.88c0-5.25-.79-7.88-2.37-7.88-1.43,0-2.24,1.95-2.42,5.84l-.09,2.04m2.15-10.59c-3.26,0-5.97,1.23-8.06,3.66-2.07,2.41-3.12,5.53-3.12,9.28,0,7.8,3.96,11.76,11.78,11.76,6.09,0,9.36-2.79,9.72-8.28,.02-.23-.13-.45-.36-.51l-3.29-.96s-.09-.02-.14-.02c-.11,0-.22,.04-.31,.11-.13,.1-.2,.26-.19,.42,.03,.57,.04,1.08,.04,1.52,0,3.08-1.18,4.51-3.71,4.51s-3.91-2.64-3.99-7.86h11.4c.28,0,.5-.22,.5-.5,0-8.71-3.46-13.12-10.28-13.12h0Zm-1.63,10.09l.07-1.52c.16-3.46,.84-5.36,1.92-5.36,.55,0,1.81,.68,1.87,6.88h-3.85Z"/></g><g><path class="g" d="M225.89,56.85c-6.97,0-10.5-2.65-10.5-7.88,0-.12,.08-.22,.2-.25l4.21-.85s.03,0,.05,0c.06,0,.12,.02,.17,.07,.06,.05,.09,.13,.08,.21-.06,.48-.09,.93-.09,1.36,0,1.25,.51,2.31,1.56,3.24,1.04,.92,2.29,1.39,3.72,1.39,1.84,0,2.7-.72,2.7-2.26,0-.69-.8-1.86-4.62-3.49-4.87-2.09-7.33-4.83-7.33-8.15,0-2.21,.96-4.04,2.85-5.45,1.87-1.39,4.3-2.1,7.22-2.1,5.24,0,8.16,2.21,8.69,6.58,.02,.13-.07,.25-.21,.28l-3.96,.69s-.03,0-.04,0c-.06,0-.12-.02-.16-.06-.06-.05-.09-.12-.09-.19,0-3.23-1.46-4.81-4.45-4.81-1.8,0-2.64,.67-2.64,2.12,0,.72,.83,1.92,4.81,3.53,5.15,2.11,7.77,4.84,7.77,8.13,0,5.23-3.34,7.88-9.94,7.88Z"/><path class="g" d="M226.11,32.94c5.12,0,7.93,2.12,8.44,6.36l-3.96,.69c0-3.37-1.57-5.06-4.7-5.06-1.92,0-2.89,.79-2.89,2.37,0,1.16,1.66,2.42,4.97,3.76,5.07,2.07,7.61,4.71,7.61,7.9,0,5.09-3.23,7.63-9.69,7.63-6.83,0-10.25-2.54-10.25-7.63l4.21-.85c-.06,.49-.09,.96-.09,1.39,0,1.31,.55,2.46,1.64,3.42,1.1,.97,2.39,1.45,3.88,1.45,1.97,0,2.95-.83,2.95-2.51,0-1.12-1.59-2.36-4.77-3.72-4.79-2.06-7.18-4.7-7.18-7.92,0-2.13,.92-3.88,2.75-5.25,1.84-1.37,4.19-2.05,7.07-2.05m-6.27,15.17h0m6.26-15.67c-2.98,0-5.46,.72-7.37,2.15-1.96,1.46-2.95,3.36-2.95,5.65,0,3.43,2.52,6.25,7.49,8.38,3.88,1.66,4.46,2.75,4.46,3.26,0,.93-.28,2.01-2.45,2.01-1.38,0-2.54-.43-3.55-1.33-.99-.88-1.48-1.88-1.48-3.05,0-.4,.03-.83,.08-1.28,0-.03,.01-.07,.01-.11,0-.28-.22-.5-.5-.5h-.03s-.06,0-.09,.01l-4.2,.85c-.23,.05-.4,.25-.4,.49,0,5.4,3.62,8.13,10.75,8.13,6.76,0,10.19-2.74,10.19-8.13,0-3.4-2.66-6.21-7.92-8.36-4.05-1.64-4.66-2.77-4.66-3.3,0-.87,.27-1.87,2.39-1.87,2.86,0,4.2,1.45,4.2,4.56,0,.15,.07,.29,.18,.38,.09,.08,.2,.12,.32,.12,.03,0,.06,0,.09,0l3.96-.69c.26-.05,.44-.29,.41-.55-.54-4.51-3.55-6.8-8.93-6.8h0Z"/></g><g><path class="g" d="M251.87,56.31c-.14,0-.25-.11-.25-.25v-17.14c0-1.52-.6-1.7-1.05-1.7-.79,0-1.55,.79-2.28,2.35-.76,1.62-1.14,3.39-1.14,5.25v11.23c0,.14-.11,.25-.25,.25h-8.17c-.14,0-.25-.11-.25-.25V25.52c0-.14,.11-.25,.25-.25,2.4,0,5.14-.16,8.14-.47h.03c.06,0,.12,.02,.17,.06,.05,.05,.08,.11,.08,.19v11.48c1.77-2.56,4.19-3.85,7.2-3.85,3.94,0,5.93,1.8,5.93,5.35v18.04c0,.14-.11,.25-.25,.25h-8.17Z"/><path class="g" d="M246.9,25.05v12.33c1.76-2.97,4.24-4.45,7.45-4.45,3.79,0,5.68,1.7,5.68,5.1v18.04h-8.17v-17.14c0-1.3-.43-1.95-1.3-1.95s-1.73,.83-2.51,2.5c-.78,1.66-1.16,3.45-1.16,5.36v11.23h-8.17V25.52c2.42,0,5.14-.16,8.17-.47m0-.5s-.03,0-.05,0c-2.99,.31-5.73,.47-8.12,.47-.28,0-.5,.22-.5,.5v30.55c0,.28,.22,.5,.5,.5h8.17c.28,0,.5-.22,.5-.5v-11.23c0-1.83,.38-3.56,1.12-5.15,.47-1.01,1.21-2.21,2.05-2.21,.24,0,.8,0,.8,1.45v17.14c0,.28,.22,.5,.5,.5h8.17c.28,0,.5-.22,.5-.5v-18.04c0-3.67-2.14-5.6-6.18-5.6-2.85,0-5.18,1.12-6.95,3.34v-10.72c0-.14-.06-.28-.17-.37-.09-.08-.21-.13-.33-.13h0Z"/></g><g><path class="g" d="M274.85,56.83c-7.65,0-11.53-3.87-11.53-11.51,0-3.68,1.03-6.75,3.06-9.12,2.04-2.37,4.69-3.58,7.87-3.58,6.66,0,10.03,4.33,10.03,12.87,0,.14-.11,.25-.25,.25h-11.66c.04,5.55,1.47,8.36,4.25,8.36s3.96-1.56,3.96-4.76c0-.44-.02-.95-.04-1.53,0-.08,.03-.16,.09-.21,.04-.04,.1-.05,.16-.05,.02,0,.05,0,.07,0l3.29,.96c.11,.03,.19,.14,.18,.26-.35,5.34-3.54,8.04-9.47,8.04Zm1.88-14.11c-.02-4.83-.76-7.38-2.12-7.38-1.27,0-2,1.88-2.17,5.6l-.08,1.78h4.37Z"/><path class="g" d="M274.25,32.88c6.52,0,9.78,4.21,9.78,12.62h-11.91c0,5.91,1.5,8.86,4.5,8.86,2.8,0,4.21-1.67,4.21-5.01,0-.45-.02-.96-.04-1.54l3.29,.96c-.34,5.21-3.42,7.81-9.22,7.81-7.52,0-11.28-3.75-11.28-11.26,0-3.64,1-6.62,3-8.95,2-2.33,4.56-3.49,7.68-3.49m-2.15,10.09h4.88c0-5.25-.79-7.88-2.37-7.88-1.43,0-2.24,1.95-2.42,5.84l-.09,2.04m2.15-10.59c-3.26,0-5.97,1.23-8.06,3.66-2.07,2.41-3.12,5.53-3.12,9.28,0,7.8,3.96,11.76,11.78,11.76,6.09,0,9.36-2.78,9.72-8.28,.02-.23-.13-.45-.36-.51l-3.29-.96s-.09-.02-.14-.02c-.11,0-.22,.04-.31,.11-.13,.1-.2,.26-.19,.42,.03,.59,.04,1.09,.04,1.52,0,3.08-1.18,4.51-3.71,4.51s-3.92-2.64-4-7.86h11.4c.28,0,.5-.22,.5-.5,0-8.71-3.46-13.12-10.28-13.12h0Zm-1.63,10.09l.07-1.52c.16-3.46,.84-5.36,1.92-5.36,.55,0,1.81,.68,1.87,6.88h-3.85Z"/></g><g><path class="g" d="M297.75,56.83c-7.65,0-11.53-3.87-11.53-11.51,0-3.69,1.03-6.75,3.06-9.12,2.04-2.37,4.69-3.58,7.87-3.58,6.66,0,10.03,4.33,10.03,12.87,0,.14-.11,.25-.25,.25h-11.65c.04,5.55,1.47,8.36,4.25,8.36s3.96-1.56,3.96-4.76c0-.44-.01-.95-.04-1.53,0-.08,.03-.16,.09-.21,.04-.04,.1-.05,.16-.05,.02,0,.05,0,.07,0l3.29,.96c.11,.03,.19,.14,.18,.26-.35,5.34-3.54,8.04-9.47,8.04Zm1.88-14.11c-.02-4.83-.76-7.38-2.12-7.38-1.27,0-2,1.88-2.17,5.6l-.08,1.78h4.37Z"/><path class="g" d="M297.14,32.88c6.52,0,9.78,4.21,9.78,12.62h-11.91c0,5.91,1.5,8.86,4.5,8.86,2.8,0,4.21-1.67,4.21-5.01,0-.45-.01-.96-.04-1.54l3.29,.96c-.34,5.21-3.42,7.81-9.22,7.81-7.52,0-11.28-3.75-11.28-11.26,0-3.64,1-6.62,3-8.95,2-2.33,4.56-3.49,7.68-3.49m-2.15,10.09h4.88c0-5.25-.79-7.88-2.37-7.88-1.43,0-2.24,1.95-2.42,5.84l-.09,2.04m2.15-10.59c-3.26,0-5.97,1.23-8.06,3.66-2.07,2.41-3.12,5.53-3.12,9.28,0,7.8,3.96,11.76,11.78,11.76,6.09,0,9.36-2.79,9.72-8.28,.02-.23-.13-.45-.36-.51l-3.29-.96s-.09-.02-.14-.02c-.11,0-.22,.04-.31,.11-.13,.1-.2,.26-.19,.42,.03,.57,.04,1.08,.04,1.52,0,3.08-1.18,4.51-3.71,4.51s-3.91-2.64-3.99-7.86h11.4c.28,0,.5-.22,.5-.5,0-8.71-3.46-13.12-10.28-13.12h0Zm-1.63,10.09l.07-1.52c.16-3.46,.84-5.36,1.92-5.36,.55,0,1.81,.68,1.87,6.88h-3.85Z"/></g><g><path class="g" d="M316.97,56.56c-4.25,0-6.4-1.85-6.4-5.49v-14.72h-2.48c-.14,0-.25-.11-.25-.25v-2.53c0-.14,.11-.25,.25-.25h2.48v-3.73c0-.11,.08-.21,.18-.24,2.79-.77,5.52-1.89,8.11-3.33,.04-.02,.08-.03,.12-.03s.09,.01,.13,.03c.08,.04,.12,.13,.12,.22v7.09h3.38c.14,0,.25,.11,.25,.25v2.53c0,.14-.11,.25-.25,.25h-3.38v15.71c0,1.25,.52,1.25,.71,1.25,.13,0,.47,0,.58-.79,.02-.12,.12-.22,.25-.22,0,0,2.35,.22,2.35,.22,.07,0,.14,.05,.18,.11,.04,.06,.05,.14,.04,.21-.67,2.47-2.82,3.72-6.37,3.72Z"/><path class="g" d="M318.99,26.23v7.34h3.63v2.53h-3.63v15.96c0,1,.32,1.5,.96,1.5,.46,0,.74-.33,.83-1.01l2.33,.22c-.64,2.36-2.69,3.54-6.13,3.54-4.1,0-6.15-1.75-6.15-5.24v-14.97h-2.73v-2.53h2.73v-3.98c2.82-.78,5.54-1.89,8.17-3.36m0-.5c-.08,0-.17,.02-.24,.06-2.58,1.44-5.29,2.55-8.06,3.31-.22,.06-.37,.26-.37,.48v3.48h-2.23c-.28,0-.5,.22-.5,.5v2.53c0,.28,.22,.5,.5,.5h2.23v14.47c0,2.62,1.15,5.74,6.65,5.74,3.68,0,5.91-1.31,6.61-3.9,.04-.14,.01-.29-.07-.42-.08-.12-.22-.2-.36-.21l-2.33-.22s-.03,0-.05,0c-.25,0-.46,.18-.5,.43-.08,.57-.26,.57-.33,.57-.14,0-.46,0-.46-1v-15.46h3.13c.28,0,.5-.22,.5-.5v-2.53c0-.28-.22-.5-.5-.5h-3.13v-6.84c0-.18-.09-.34-.25-.43-.08-.05-.17-.07-.25-.07h0Z"/></g></g></g><g><path class="e" d="M59.91,72.38c-.2,.74-.56,1.42-.9,2.11-.81,1.6-1.78,3.11-2.92,4.5-1.36,1.65-2.88,3.13-4.64,4.34-.14,.09-.27,.21-.43,.25-5.36,0-10.72,0-16.09,0-1.07,0-2.1-.19-3.11-.5-3.33-1.01-6.57-2.25-9.66-3.87-3.07-1.61-5.95-3.52-8.56-5.82-2.5-2.19-4.7-4.64-6.57-7.39-2.59-3.81-4.46-7.95-5.64-12.39-.53-1.99-.92-4-1.16-6.04C.09,46.48,0,45.38,0,44.28c0-1.53-.01-3.07,.03-4.6,.03-1.13,.14-2.26,.28-3.38,.23-1.82,.57-3.63,1.04-5.4,.52-1.99,1.22-3.91,2.06-5.78,1.22-2.7,2.77-5.19,4.61-7.49,1.85-2.31,3.95-4.35,6.27-6.18,3.81-3,8-5.3,12.57-6.93,2.91-1.04,5.89-1.76,8.95-2.2,1.93-.27,3.87-.39,5.81-.43,3.43-.07,6.86-.01,10.29-.03,.16,0,.34-.05,.49,.05-.64,.44-1.31,.84-1.92,1.33-1.7,1.36-3.1,2.97-4.27,4.81-1.04,1.63-1.85,3.37-2.47,5.2-.03,.09-.07,.17-.11,.25-1.58,.04-3.15,.01-4.72,.17-1.52,.15-3.04,.38-4.53,.7-2.47,.53-4.88,1.27-7.2,2.3-3.11,1.39-5.91,3.22-8.31,5.64-.63,.63-1.22,1.29-1.81,1.96-.56,.64-1.02,1.36-1.47,2.09-1.04,1.69-1.91,3.45-2.58,5.32-1.07,2.98-1.62,6.06-1.77,9.2-.09,1.94-.13,3.88,.22,5.81,.51,2.84,1.16,5.63,2.15,8.34,.91,2.48,2.06,4.84,3.58,7,1.27,1.82,2.75,3.44,4.47,4.85,2.33,1.92,4.96,3.31,7.81,4.28,2.27,.77,4.6,1.25,6.97,1.56,2.16,.28,4.33,.38,6.5,.43,1.21,.02,2.42-.01,3.63-.05,1.38-.05,2.75-.1,4.13-.18h.18l.31-.03h.02l6.1-.37s.05,0,.08,0c.84-.04,1.68-.09,2.52-.13Z"/><path class="h" d="M51.2,72.89l-.31,.02c.12,0,.23-.02,.31-.02Z"/><path class="e" d="M61.24,66.56c-.44,.02-.89,.04-1.33,.06l-9.49,.57c-1.2,.08-2.4,.13-3.59,.16-2.08,.06-4.16,.08-6.25-.04-1.38-.08-2.75-.19-4.11-.39-2.2-.32-4.35-.82-6.41-1.68-2.78-1.16-5.18-2.83-7.1-5.15-2.05-2.46-3.4-5.3-4.37-8.33-.59-1.84-1.03-3.71-1.36-5.61-.15-.86-.31-1.72-.29-2.6,.02-.72,.03-1.44,.06-2.16,.04-.89,.11-1.77,.23-2.65,.32-2.33,.9-4.59,1.87-6.74,1.31-2.9,3.21-5.34,5.73-7.3,2.62-2.03,5.57-3.36,8.75-4.23,1.53-.42,3.09-.73,4.67-.95,1.38-.2,2.77-.3,4.16-.24-.02,1.04-.12,2.08-.11,3.12,.03,2.48,.38,4.91,1.11,7.28,.05,.16,.13,.31,.11,.49-.58,.08-1.15,.14-1.73,.23-2.23,.34-4.35,1-6.31,2.13-2.66,1.52-4.94,4.37-5.41,7.65-.19,1.31-.31,2.61-.2,3.93,.15,1.76,.59,3.42,1.43,4.97,.34,.63,.76,1.22,1.25,1.73,.5,.51,1.02,1.01,1.6,1.44,2.72,1.97,5.76,3.02,9.12,3.06,3.25,.04,6.5,0,9.74,.08,1.55,.03,3.09,.01,4.64,.01,.47,.65,.82,1.36,1.22,2.04,.7,1.19,1.38,2.38,1.78,3.71,.31,1.06,.52,2.13,.6,3.24,.06,.72,.07,1.43-.02,2.15Z"/><path class="k" d="M77.28,6.75s-2.59-4.79-9.01-5.65-19.34,14.42-14.08,28.86c5.26,14.45,16.76,34.85,16.76,34.85l-3.55,11.98-5.75,6.04-11.3,1.38s9.48,.92,11.21,1.02,16.38,1.82,20.6-8.43c4.22-10.25,6.32-14.28-.57-27.98-6.9-13.7-26.49-34.35-4.31-42.06Z"/><path class="i" d="M68.27,1.09S58.98-.25,57.35,.04s-12.93,1.05-15.43,19.16c0,0-.77,6.61,.77,9.58,0,0,1.53,5.37,10.54,19.45,0,0,12.84,13.99,4.98,27.21-3.16,5.94-6.99,7.86-8.62,8.72,0,0,8.05,.38,9.39,.19s2.97,0,4.98-1.53,5.65-5.27,6.99-9.96c1.34-4.69,3.4-6.75-2.83-17.29-6.23-10.54-11.69-19.74-12.84-22.32s-3.83-11.4,0-20.41,9.87-10.73,12.98-11.74Z"/><path class="j" d="M77.47,8.8c-4.82,1.01-8.43,5.29-8.43,10.41s3.62,9.39,8.43,10.41V8.8Z"/><path class="j" d="M49.59,55.52v21.08c5.19-.7,9.2-5.15,9.2-10.54s-4-9.84-9.2-10.54Z"/></g></g></g></g></svg>