<?xml version="1.0" encoding="UTF-8"?><svg xmlns="http://www.w3.org/2000/svg" viewBox="0 0 274.13 86"><defs><style>.d{fill:#6c57fc;}.e{fill:#f95458;}.f{fill:#f7b040;}</style></defs><g id="a"/><g id="b"><g id="c"><g><g><g><path class="d" d="M74.46,59.48c-.19,0-.35-.16-.35-.35V16.59c0-.19,.16-.35,.35-.35h12.34c.19,0,.35,.16,.35,.35V54.51h17.14c.19,0,.35,.16,.35,.35v4.27c0,.19-.16,.35-.35,.35h-29.83Z"/><path class="d" d="M86.81,16.59V54.86h17.48v4.27h-29.83V16.59h12.34m0-.7h-12.34c-.38,0-.7,.31-.7,.7V59.13c0,.38,.31,.7,.7,.7h29.83c.38,0,.7-.31,.7-.7v-4.27c0-.38-.31-.7-.7-.7h-16.79V16.59c0-.38-.31-.7-.7-.7h0Z"/></g><g><path class="d" d="M106.5,59.48c-.19,0-.35-.16-.35-.35V27.74c0-.19,.16-.35,.35-.35,3.52,0,7.33-.28,11.33-.84,.02,0,.03,0,.05,0,.08,0,.16,.03,.23,.09,.08,.07,.12,.16,.12,.26V59.13c0,.19-.16,.35-.35,.35h-11.38Zm5.77-35.37c-3.75,0-5.65-1.5-5.65-4.46s1.9-4.46,5.65-4.46,5.65,1.5,5.65,4.46-1.9,4.46-5.65,4.46Z"/><path class="d" d="M112.27,15.53c3.53,0,5.3,1.37,5.3,4.11s-1.77,4.11-5.3,4.11-5.3-1.37-5.3-4.11,1.77-4.11,5.3-4.11m5.61,11.38V59.13h-11.38V27.74c3.55,0,7.34-.28,11.38-.84m-5.61-12.07c-4.95,0-6,2.62-6,4.81s1.04,4.81,6,4.81,5.99-2.62,5.99-4.81-1.04-4.81-5.99-4.81h0Zm5.61,11.38s-.06,0-.1,0c-3.98,.55-7.77,.84-11.28,.84-.38,0-.7,.31-.7,.7v31.39c0,.38,.31,.7,.7,.7h11.38c.38,0,.7-.31,.7-.7V26.9c0-.2-.09-.39-.24-.53-.13-.11-.29-.17-.46-.17h0Z"/></g><g><path class="d" d="M140.54,60.16c-4.12,0-7.69-1.88-10.64-5.6l-2.55,4.73c-.06,.11-.18,.18-.31,.18h-2.84c-.19,0-.35-.16-.35-.35V16.59c0-.19,.16-.35,.35-.35,1.84,0,5.66-.22,11.35-.65h.03c.09,0,.17,.03,.24,.09,.07,.07,.11,.16,.11,.26v14.14c2.02-2.33,4.28-3.52,6.73-3.52,7.63,0,11.51,5.32,11.51,15.81,0,11.81-4.58,17.8-13.63,17.8Zm-1.4-28.33c-2.27,0-3.42,3.55-3.42,10.56,0,10.32,1.81,12.49,3.33,12.49,1.9,0,2.86-2.14,2.86-6.35l.19-7.71-.22-4.31c-.31-3.1-1.23-4.69-2.74-4.69Z"/><path class="d" d="M135.58,15.93v15.12c2.12-2.76,4.48-4.15,7.07-4.15,7.44,0,11.16,5.15,11.16,15.46,0,11.64-4.43,17.45-13.28,17.45-4.18,0-7.74-1.96-10.69-5.89l-2.81,5.2h-2.84V16.59c1.85,0,5.64-.22,11.38-.65m3.46,39.3c2.14,0,3.21-2.23,3.21-6.7l.19-7.7-.22-4.33c-.33-3.35-1.36-5.02-3.09-5.02-2.51,0-3.77,3.64-3.77,10.91,0,8.56,1.23,12.84,3.68,12.84m-3.46-40s-.04,0-.05,0c-5.69,.43-9.49,.65-11.32,.65-.38,0-.7,.31-.7,.7V59.13c0,.38,.31,.7,.7,.7h2.84c.26,0,.49-.14,.61-.37l2.3-4.27c2.95,3.53,6.5,5.32,10.58,5.32,9.27,0,13.97-6.11,13.97-18.15,0-10.72-3.99-16.16-11.85-16.16-2.3,0-4.44,1-6.38,2.97V15.93c0-.19-.08-.38-.22-.51-.13-.12-.3-.19-.47-.19h0Zm3.46,39.3c-1.11,0-2.98-1.58-2.98-12.14,0-6.68,1.06-10.21,3.08-10.21,1.3,0,2.1,1.48,2.39,4.39l.22,4.3-.19,7.65c0,4-.85,6.02-2.51,6.02h0Z"/></g><g><path class="d" d="M158.71,59.48c-.19,0-.35-.16-.35-.35V27.71c0-.09,.04-.18,.1-.25,.06-.06,.15-.1,.24-.1l2.22,.03c2.59,0,5.65-.28,9.1-.84,.02,0,.04,0,.06,0,.08,0,.16,.03,.23,.08,.08,.07,.12,.16,.12,.27v3.89c1.79-2.81,3.95-4.23,6.45-4.23,3.87,0,5.83,2.15,5.83,6.39,0,1.08-.18,2.34-.54,3.73-.12,.55-.32,1.39-.59,2.52-.04,.16-.18,.27-.34,.27h-7.79c-.11,0-.21-.05-.27-.13-.07-.08-.09-.19-.07-.29,.27-1.23,.52-2.16,.73-2.75,.28-.81,.42-1.54,.42-2.19,0-1.46-.58-1.65-1.09-1.65-.32,0-.97,.31-1.76,2.41-.65,1.71-.97,3.54-.97,5.44v18.83c0,.19-.16,.35-.35,.35h-11.38Z"/><path class="d" d="M176.88,26.9c3.66,0,5.49,2.02,5.49,6.05,0,1.06-.18,2.28-.53,3.65-.12,.56-.32,1.4-.59,2.53h-7.79c.27-1.23,.51-2.13,.72-2.71,.29-.85,.44-1.62,.44-2.31,0-1.33-.48-2-1.43-2-.73,0-1.42,.88-2.09,2.63s-1,3.61-1,5.56v18.83h-11.38V27.71l2.21,.03c2.62,0,5.67-.28,9.16-.84v5.17c1.85-3.45,4.11-5.17,6.79-5.17m-6.79-.7s-.07,0-.11,0c-3.44,.55-6.48,.83-9.05,.83l-2.2-.03h0c-.18,0-.36,.07-.49,.2-.13,.13-.21,.31-.21,.5v31.42c0,.38,.31,.7,.7,.7h11.38c.38,0,.7-.31,.7-.7v-18.83c0-1.86,.32-3.65,.95-5.32,.8-2.12,1.37-2.18,1.44-2.18,.26,0,.74,0,.74,1.3,0,.61-.13,1.31-.4,2.08-.22,.6-.46,1.54-.74,2.79-.05,.21,0,.42,.14,.59,.13,.16,.33,.26,.54,.26h7.79c.32,0,.6-.22,.68-.53,.27-1.13,.47-1.97,.59-2.54,.36-1.4,.55-2.68,.55-3.8,0-5.57-3.36-6.74-6.18-6.74-2.33,0-4.37,1.16-6.1,3.46v-2.77c0-.2-.09-.4-.24-.53-.13-.11-.29-.17-.45-.17h0Z"/></g><g><path class="d" d="M194.11,60.13c-6.83,0-10.29-3.22-10.29-9.57,0-4.82,3.14-8.25,9.35-10.18,5.38-1.69,8.11-3.69,8.11-5.96,0-3.02-1.46-4.48-4.45-4.48-3.5,0-5.2,1.42-5.2,4.33,0,.93,.29,2.19,.85,3.74,.04,.12,.02,.25-.06,.34-.07,.08-.16,.12-.27,.12-.02,0-.04,0-.07,0l-5.64-1.09c-.14-.03-.26-.14-.28-.29-.15-.99-.22-1.93-.22-2.79,0-5.19,4.71-7.83,14-7.83s13.31,2.47,13.31,7.33v19.07c0,2.31,.89,2.58,1.55,2.58,.23,0,.69-.11,1.57-.61,.05-.03,.11-.05,.17-.05,.04,0,.08,0,.12,.02,.1,.03,.17,.11,.21,.2l1.09,2.87c.07,.18-.02,.38-.2,.45-2.81,1.09-5.59,1.64-8.26,1.64-3.75,0-6.21-1.12-7.32-3.33-1.93,2.31-4.65,3.48-8.08,3.48Zm7.07-19.02c-.58,.56-1.23,1.05-1.94,1.46-2.25,1.32-3.35,3.48-3.35,6.62,0,2.68,.36,5.88,2.08,5.88,2.16,0,3.21-1.9,3.21-5.82v-8.14Z"/><path class="d" d="M199.94,26.81c8.64,0,12.97,2.33,12.97,6.98v19.07c0,1.95,.63,2.93,1.9,2.93,.39,0,.98-.22,1.74-.65l1.09,2.87c-2.78,1.08-5.5,1.62-8.13,1.62-3.91,0-6.32-1.22-7.23-3.65-1.89,2.54-4.61,3.8-8.17,3.8-6.63,0-9.94-3.08-9.94-9.23,0-4.68,3.03-7.96,9.1-9.85,5.57-1.74,8.35-3.84,8.35-6.3,0-3.22-1.6-4.83-4.8-4.83-3.7,0-5.55,1.56-5.55,4.68,0,.98,.29,2.26,.87,3.86l-5.64-1.09c-.15-.98-.22-1.89-.22-2.74,0-4.99,4.55-7.48,13.65-7.48m-1.96,28.61c2.37,0,3.55-2.06,3.55-6.17v-9.01c-.71,.81-1.53,1.49-2.46,2.03-2.35,1.37-3.52,3.68-3.52,6.92,0,4.15,.81,6.23,2.43,6.23m1.96-29.31c-9.52,0-14.35,2.75-14.35,8.18,0,.88,.08,1.84,.23,2.84,.04,.29,.27,.52,.56,.58l5.64,1.09s.09,.01,.13,.01c.2,0,.4-.09,.53-.24,.16-.19,.21-.45,.12-.69-.55-1.52-.83-2.74-.83-3.63,0-1.71,.5-3.98,4.85-3.98,2.8,0,4.1,1.31,4.1,4.13,0,2.07-2.72,4.02-7.86,5.63-6.36,1.98-9.59,5.52-9.59,10.51,0,6.58,3.58,9.92,10.64,9.92,3.35,0,6.04-1.08,8.02-3.23,1.26,2.04,3.74,3.07,7.38,3.07,2.71,0,5.54-.56,8.39-1.67,.36-.14,.53-.54,.4-.9l-1.09-2.87c-.07-.19-.22-.34-.42-.41-.08-.03-.16-.04-.24-.04-.12,0-.24,.03-.34,.09-.89,.51-1.28,.56-1.4,.56-.36,0-1.2,0-1.2-2.23v-19.07c0-5.09-4.6-7.68-13.66-7.68h0Zm-1.96,28.61c-1.51,0-1.73-3.47-1.73-5.54,0-3,1.04-5.07,3.18-6.32,.5-.29,.97-.62,1.42-.98v7.36c0,5.48-2.15,5.48-2.86,5.48h0Z"/></g><g><path class="d" d="M219.8,59.48c-.19,0-.35-.16-.35-.35V27.71c0-.09,.04-.18,.1-.25,.07-.06,.15-.1,.24-.1l2.22,.03c2.59,0,5.65-.28,9.1-.84,.02,0,.04,0,.06,0,.08,0,.16,.03,.23,.08,.08,.07,.12,.16,.12,.27v3.89c1.79-2.81,3.95-4.24,6.45-4.24,3.87,0,5.83,2.15,5.83,6.39,0,1.08-.18,2.34-.54,3.73-.12,.55-.32,1.4-.59,2.52-.04,.16-.18,.27-.34,.27h-7.79c-.11,0-.21-.05-.27-.13-.07-.08-.09-.19-.07-.29,.28-1.26,.52-2.16,.73-2.75,.28-.81,.42-1.54,.42-2.19,0-1.46-.58-1.65-1.09-1.65-.32,0-.97,.31-1.76,2.41-.65,1.71-.97,3.54-.97,5.44v18.83c0,.19-.16,.35-.35,.35h-11.38Z"/><path class="d" d="M237.97,26.9c3.66,0,5.49,2.02,5.49,6.05,0,1.06-.18,2.28-.53,3.65-.13,.56-.32,1.4-.59,2.53h-7.79c.27-1.23,.51-2.13,.72-2.71,.29-.85,.44-1.62,.44-2.31,0-1.33-.48-2-1.43-2-.73,0-1.42,.88-2.09,2.63s-1,3.61-1,5.56v18.83h-11.38V27.71l2.21,.03c2.62,0,5.67-.28,9.16-.84v5.17c1.85-3.45,4.11-5.17,6.79-5.17m-6.79-.7s-.07,0-.11,0c-3.43,.55-6.48,.83-9.05,.83l-2.2-.03h0c-.18,0-.36,.07-.49,.2-.13,.13-.21,.31-.21,.5v31.42c0,.38,.31,.7,.7,.7h11.38c.38,0,.7-.31,.7-.7v-18.83c0-1.86,.32-3.65,.95-5.32,.8-2.12,1.38-2.18,1.44-2.18,.26,0,.74,0,.74,1.3,0,.61-.13,1.31-.4,2.08-.21,.6-.46,1.52-.74,2.79-.05,.21,0,.42,.14,.59,.13,.16,.33,.26,.54,.26h7.79c.32,0,.6-.22,.68-.53,.27-1.13,.47-1.97,.6-2.54,.36-1.4,.55-2.69,.55-3.8,0-5.57-3.36-6.74-6.18-6.74-2.33,0-4.37,1.16-6.1,3.47v-2.77c0-.2-.09-.4-.24-.53-.13-.11-.29-.17-.45-.17h0Z"/></g><g><path class="d" d="M251.06,70.82c-3.38,0-5.71-1.47-6.93-4.36-.06-.15-.01-.32,.12-.42l3.93-2.84c.06-.04,.13-.07,.2-.07,.05,0,.09,0,.14,.03,.11,.05,.19,.15,.21,.27,.29,2.21,1.04,3.28,2.3,3.28,1.47,0,2.7-1.32,3.66-3.92l.8-2.12-12.61-32.85c-.04-.11-.03-.23,.04-.32s.17-.15,.29-.15h12.5c.15,0,.28,.09,.33,.24l6.02,17.58,6.85-17.6c.05-.13,.18-.22,.33-.22h4.21c.12,0,.22,.06,.29,.15,.07,.1,.08,.22,.03,.33l-14.4,35.47c-2.02,4.98-4.82,7.51-8.3,7.51Z"/><path class="d" d="M273.44,27.71l-14.4,35.47c-1.97,4.86-4.63,7.29-7.98,7.29s-5.44-1.38-6.61-4.15l3.93-2.84c.31,2.39,1.19,3.59,2.65,3.59,1.64,0,2.97-1.38,3.99-4.15l.84-2.24-12.65-32.98h12.5l6.33,18.48,7.2-18.48h4.21m0-.7h-4.21c-.29,0-.54,.18-.65,.44l-6.51,16.71-5.71-16.68c-.1-.28-.36-.47-.66-.47h-12.5c-.23,0-.44,.11-.57,.3-.13,.19-.16,.43-.08,.64l12.56,32.73-.75,2c-.9,2.45-2.03,3.69-3.34,3.69-.39,0-1.57,0-1.96-2.98-.03-.24-.19-.45-.41-.55-.09-.04-.18-.06-.28-.06-.14,0-.29,.04-.41,.13l-3.93,2.84c-.26,.19-.36,.54-.23,.83,1.28,3.03,3.72,4.57,7.25,4.57s6.54-2.6,8.62-7.73l14.4-35.47c.09-.21,.06-.46-.07-.65s-.35-.31-.58-.31h0Zm0,1.39h0Z"/></g></g><g><path class="e" d="M10.42,86c-.91-.47-1.7-.88-2.49-1.29-2.47-1.29-4.93-2.59-7.4-3.86C.12,80.64,0,80.4,0,79.96,0,54.4,0,28.83,0,3.27c0-.18,.02-.35,.03-.63,.45,.22,.83,.4,1.2,.6,2.94,1.54,5.87,3.08,8.81,4.61,.29,.15,.4,.32,.4,.65,0,25.63,0,51.26,0,76.89,0,.16-.01,.32-.03,.61Z"/><path class="d" d="M19.59,84.27c-.85-.44-1.62-.83-2.38-1.22-1.12-.58-2.23-1.18-3.35-1.74-.29-.15-.41-.32-.41-.65,.05-6.56,.08-13.11,.12-19.67,.01-2.03,.03-4.05,.04-6.08,.02-2.26,.03-4.51,.04-6.77,.02-3.37,.05-6.74,.07-10.11,.02-3.1,.01-6.21,.03-9.31,.03-6.47,.07-12.95,.12-19.42,0-.61,.05-1.23,.03-1.84,0-.18-.16-.44-.32-.52-1.67-.88-3.35-1.75-5.04-2.59-.38-.19-.53-.41-.52-.84,.03-1,0-1.99,.01-2.99,0-.14,.02-.28,.04-.51,.65,.3,1.23,.56,1.81,.84,3.23,1.54,6.46,3.09,9.69,4.62,.26,.12,.37,.26,.37,.56-.03,6.58-.04,13.15-.06,19.73,0,2.96-.03,5.91-.05,8.87-.03,6.51-.05,13.02-.07,19.52,0,1.26-.02,2.52-.02,3.79-.02,4.96-.04,9.93-.06,14.89-.02,3.64-.04,7.27-.06,10.91,0,.15-.01,.29-.03,.55Z"/><path class="f" d="M21.58,65.11c.19,.08,.32,.12,.44,.19,1.8,.99,3.59,2,5.39,2.98,.29,.16,.39,.35,.39,.67,0,4.05,0,8.1,0,12.15,0,.13-.02,.25-.05,.48-.68-.36-1.31-.69-1.92-1.02-1.27-.68-2.53-1.37-3.8-2.04-.3-.16-.49-.32-.49-.71,.02-4.08,0-8.16,.01-12.25,0-.12,.02-.25,.04-.45Z"/><path class="f" d="M24.59,62.72c1.1,.55,2.06,1.03,3.01,1.52,2.38,1.2,4.76,2.4,7.14,3.6,.26,.13,.46,.26,.45,.62-.06,3.25-.11,6.5-.16,9.75,0,.08-.02,.16-.05,.33-.55-.2-1.07-.38-1.59-.57-1.26-.45-2.52-.92-3.78-1.36-.24-.08-.33-.18-.33-.46,.03-2.49,.03-4.98,.06-7.47,0-.38-.1-.6-.45-.78-1.32-.69-2.62-1.42-3.94-2.12-.27-.14-.38-.32-.37-.62,.02-.77,0-1.55,0-2.45Z"/><path class="f" d="M31.04,62.57c1.24,.56,2.34,1.05,3.44,1.55,1.54,.7,3.07,1.4,4.61,2.09,.31,.14,.45,.31,.45,.67-.04,3.19-.07,6.37-.11,9.56,0,.11-.04,.21-.07,.38-.9-.46-1.73-.91-2.6-1.31-.44-.2-.59-.46-.58-.95,.05-2.39,.06-4.78,.11-7.17,0-.4-.14-.58-.48-.74-1.46-.67-2.9-1.38-4.36-2.06-.29-.14-.44-.3-.42-.64,.03-.42,0-.85,0-1.38Z"/></g></g></g></g></svg>