<?xml version="1.0" encoding="UTF-8"?><svg xmlns="http://www.w3.org/2000/svg" viewBox="0 0 259.46 85.86"><defs><style>.d{fill:#5785ed;}.e{fill:#be3c52;}.f{fill:#c6701f;}.g{fill:#3d68b5;}.h{fill:#f9952a;}.i{fill:#e74f65;}</style></defs><g id="a"/><g id="b"><g id="c"><g><g><g><path class="d" d="M90.33,57.11c-7.69,0-11.6-3.04-11.6-9.04,0-.48,.04-1.09,.11-1.79,.01-.11,.09-.19,.19-.22l4.27-.94s.04,0,.05,0c.07,0,.13,.03,.18,.08,.06,.06,.08,.15,.06,.24-.32,1.27-.48,2.39-.48,3.32,0,3.66,2.05,5.43,6.26,5.43,3.34,0,4.96-1.26,4.96-3.85,0-1.9-2.05-3.62-6.08-5.11-6.09-2.24-9.18-5.88-9.18-10.82,0-2.81,1.04-5.11,3.1-6.83,2.04-1.71,4.76-2.58,8.07-2.58,6.85,0,10.32,3.13,10.32,9.31,0,.12-.09,.22-.2,.25l-4.12,.76s-.03,0-.05,0c-.07,0-.13-.03-.18-.08-.06-.06-.08-.15-.06-.23,.17-.8,.26-1.47,.26-2.01,0-3.42-2.03-5.08-6.22-5.08-3.27,0-4.85,1.12-4.85,3.42,0,1.71,1.86,3.22,5.54,4.49,7.42,2.55,11.18,6.39,11.18,11.43,0,2.96-1.07,5.37-3.18,7.16-2.1,1.78-4.91,2.69-8.38,2.69Z"/><path class="d" d="M90.26,25.24c6.71,0,10.07,3.02,10.07,9.06l-4.12,.76c.18-.82,.27-1.51,.27-2.06,0-3.55-2.16-5.33-6.47-5.33-3.4,0-5.1,1.22-5.1,3.67,0,1.83,1.9,3.41,5.71,4.72,7.34,2.52,11.01,6.25,11.01,11.19,0,2.89-1.03,5.22-3.09,6.97-2.06,1.75-4.8,2.63-8.21,2.63-7.56,0-11.35-2.93-11.35-8.79,0-.48,.04-1.07,.11-1.77l4.27-.94c-.33,1.3-.49,2.42-.49,3.38,0,3.79,2.17,5.68,6.51,5.68,3.48,0,5.21-1.37,5.21-4.1,0-2.03-2.08-3.81-6.24-5.35-6.01-2.21-9.02-5.74-9.02-10.58,0-2.75,1-4.96,3.01-6.64,2.01-1.68,4.64-2.52,7.91-2.52m-6.89,20.12h0m6.89-20.62c-3.37,0-6.14,.89-8.23,2.63-2.12,1.77-3.19,4.13-3.19,7.02,0,5.06,3.14,8.78,9.35,11.05,3.93,1.45,5.92,3.09,5.92,4.88,0,1.54-.49,3.6-4.71,3.6s-6.01-1.7-6.01-5.18c0-.9,.16-1.98,.47-3.21,.02-.05,.03-.11,.03-.17,0-.28-.22-.5-.5-.5h-.03s-.07,0-.1,.01l-4.26,.94c-.21,.05-.37,.22-.39,.44-.08,.71-.11,1.33-.11,1.82,0,6.17,3.99,9.29,11.85,9.29,3.52,0,6.4-.92,8.54-2.75,2.17-1.84,3.26-4.32,3.26-7.35,0-5.15-3.82-9.08-11.35-11.66-3.56-1.23-5.37-2.66-5.37-4.25,0-1.36,.48-3.17,4.6-3.17s5.97,1.58,5.97,4.83c0,.51-.09,1.17-.26,1.95-.04,.16,.01,.33,.13,.45,.1,.1,.23,.15,.36,.15,.03,0,.06,0,.09,0l4.12-.76c.24-.04,.41-.25,.41-.49,0-6.35-3.56-9.56-10.57-9.56h0Z"/></g><g><path class="d" d="M115.24,57.04c-7.56,0-11.4-3.89-11.4-11.55,0-3.82,1.12-6.92,3.31-9.2,2.2-2.29,5.19-3.44,8.89-3.44,5.38,0,8.1,2.48,8.1,7.37,0,.1-.05,.18-.14,.23l-3.83,1.86s-.07,.02-.11,.02c-.05,0-.09-.01-.13-.04-.07-.05-.12-.13-.12-.22l.04-2.15c0-3.08-.98-4.58-2.99-4.58-2.69,0-4.05,3.11-4.05,9.24,0,3.86,.3,6.53,.9,7.95,.57,1.37,1.61,2.03,3.17,2.03,2.89,0,4.29-1.84,4.29-5.64,0-.54-.09-1.43-.27-2.65-.01-.08,.02-.17,.08-.23,.05-.04,.1-.06,.16-.06,.02,0,.05,0,.07,.01l3.45,1.05c.1,.03,.17,.13,.18,.23l.02,.92c0,5.87-3.25,8.85-9.65,8.85Z"/><path class="d" d="M116.05,33.09c5.24,0,7.85,2.37,7.85,7.12l-3.83,1.86,.04-2.15c0-3.22-1.08-4.83-3.24-4.83-2.86,0-4.3,3.16-4.3,9.49,0,3.91,.31,6.59,.92,8.04,.61,1.46,1.75,2.18,3.4,2.18,3.03,0,4.54-1.96,4.54-5.89,0-.55-.09-1.45-.27-2.69l3.45,1.05,.02,.92c0,5.73-3.13,8.59-9.4,8.59-7.43,0-11.15-3.77-11.15-11.3,0-3.77,1.08-6.78,3.25-9.03,2.16-2.25,5.06-3.37,8.71-3.37m0-.5c-3.77,0-6.82,1.18-9.07,3.52-2.25,2.33-3.38,5.49-3.38,9.38,0,7.83,3.92,11.8,11.65,11.8,6.57,0,9.9-3.06,9.9-9.09l-.02-.93c0-.22-.15-.4-.35-.47l-3.45-1.05s-.1-.02-.15-.02c-.12,0-.23,.04-.33,.12-.13,.11-.19,.28-.17,.45,.17,1.21,.26,2.09,.26,2.61,0,3.62-1.32,5.39-4.04,5.39-1.45,0-2.41-.61-2.94-1.88-.58-1.39-.88-4.03-.88-7.85,0-5.96,1.28-8.99,3.8-8.99,.68,0,2.74,0,2.74,4.33l-.04,2.14c0,.17,.08,.34,.23,.43,.08,.05,.18,.08,.27,.08,.07,0,.15-.02,.22-.05l3.83-1.86c.17-.08,.28-.26,.28-.45,0-5.05-2.81-7.62-8.35-7.62h0Z"/></g><g><path class="d" d="M140.57,56.55c-.14,0-.25-.11-.25-.25v-17.14c0-1.52-.6-1.7-1.05-1.7-.79,0-1.55,.79-2.28,2.35-.76,1.62-1.14,3.39-1.14,5.25v11.23c0,.14-.11,.25-.25,.25h-8.17c-.14,0-.25-.11-.25-.25V25.75c0-.14,.11-.25,.25-.25,2.4,0,5.14-.16,8.14-.47h.03c.06,0,.12,.02,.17,.06,.05,.05,.08,.11,.08,.19v11.48c1.77-2.56,4.19-3.85,7.2-3.85,3.94,0,5.94,1.8,5.94,5.35v18.04c0,.14-.11,.25-.25,.25h-8.17Z"/><path class="d" d="M135.61,25.28v12.33c1.76-2.97,4.24-4.45,7.45-4.45,3.79,0,5.69,1.7,5.69,5.1v18.04h-8.17v-17.14c0-1.3-.43-1.95-1.3-1.95s-1.73,.83-2.51,2.5c-.78,1.66-1.16,3.45-1.16,5.36v11.23h-8.17V25.75c2.42,0,5.14-.16,8.17-.47m0-.5s-.03,0-.05,0c-2.99,.31-5.73,.47-8.12,.47-.28,0-.5,.22-.5,.5v30.55c0,.28,.22,.5,.5,.5h8.17c.28,0,.5-.22,.5-.5v-11.23c0-1.83,.38-3.56,1.12-5.15,.47-1.01,1.21-2.21,2.05-2.21,.24,0,.8,0,.8,1.45v17.14c0,.28,.22,.5,.5,.5h8.17c.28,0,.5-.22,.5-.5v-18.04c0-3.67-2.14-5.6-6.19-5.6-2.85,0-5.18,1.12-6.95,3.34v-10.72c0-.14-.06-.28-.17-.37-.09-.08-.21-.13-.33-.13h0Z"/></g><g><path class="d" d="M163.56,57.07c-7.65,0-11.53-3.87-11.53-11.51,0-3.69,1.03-6.75,3.06-9.12,2.04-2.37,4.69-3.58,7.87-3.58,6.66,0,10.03,4.33,10.03,12.87,0,.14-.11,.25-.25,.25h-11.65c.04,5.55,1.47,8.36,4.25,8.36s3.96-1.56,3.96-4.76c0-.44-.01-.95-.04-1.53,0-.08,.03-.16,.09-.21,.04-.04,.1-.05,.16-.05,.02,0,.05,0,.07,.01l3.29,.96c.11,.03,.19,.14,.18,.26-.35,5.34-3.54,8.04-9.47,8.04Zm1.88-14.11c-.02-4.83-.76-7.38-2.12-7.38-1.27,0-2,1.88-2.17,5.6l-.08,1.78h4.37Z"/><path class="d" d="M162.95,33.12c6.52,0,9.78,4.21,9.78,12.62h-11.91c0,5.91,1.5,8.86,4.5,8.86,2.8,0,4.21-1.67,4.21-5.01,0-.45-.01-.96-.04-1.54l3.29,.96c-.34,5.21-3.42,7.81-9.22,7.81-7.52,0-11.28-3.75-11.28-11.26,0-3.64,1-6.62,3-8.95,2-2.33,4.56-3.49,7.68-3.49m-2.15,10.09h4.88c0-5.25-.79-7.88-2.37-7.88-1.43,0-2.24,1.95-2.42,5.84l-.09,2.04m2.15-10.59c-3.26,0-5.97,1.23-8.06,3.66-2.07,2.41-3.12,5.53-3.12,9.28,0,7.8,3.96,11.76,11.78,11.76,6.09,0,9.36-2.79,9.72-8.28,.02-.23-.13-.45-.36-.51l-3.29-.96s-.09-.02-.14-.02c-.11,0-.22,.04-.31,.11-.13,.1-.2,.26-.19,.42,.03,.57,.04,1.08,.04,1.52,0,3.08-1.18,4.51-3.71,4.51s-3.91-2.64-3.99-7.86h11.4c.28,0,.5-.22,.5-.5,0-8.71-3.46-13.12-10.28-13.12h0Zm-1.63,10.09l.07-1.52c.16-3.46,.84-5.36,1.92-5.36,.55,0,1.81,.68,1.87,6.88h-3.85Z"/></g><g><path class="d" d="M182.78,57.07c-5.21,0-7.86-4.01-7.86-11.93s2.79-12.27,8.31-12.27c1.95,0,3.56,.77,4.81,2.29v-9.4c0-.14,.11-.25,.25-.25,2.44,0,5.18-.16,8.14-.47h.03c.06,0,.12,.02,.17,.06,.05,.05,.08,.11,.08,.19v31.02c0,.14-.11,.25-.25,.25h-8.17c-.14,0-.25-.11-.25-.25v-1.3c-1.36,1.37-3.13,2.07-5.25,2.07Zm3.09-20.41c-.45,0-1.81,0-1.81,3.53l-.16,4.8,.09,4.35c0,2.65,.68,3.94,2.08,3.94s2.01-1.27,2.01-3.87l.11-5.51-.18-3.74c-.22-2.32-.94-3.5-2.14-3.5Z"/><path class="d" d="M196.46,25.28v31.02h-8.17v-1.95c-1.37,1.64-3.21,2.46-5.5,2.46-5.07,0-7.61-3.89-7.61-11.68s2.69-12.02,8.06-12.02c2.12,0,3.8,.93,5.06,2.8v-10.16c2.46,0,5.18-.16,8.17-.47m-10.38,28.24c1.51,0,2.26-1.37,2.26-4.12l.11-5.51-.18-3.76c-.24-2.49-1.04-3.74-2.39-3.74s-2.06,1.26-2.06,3.78l-.16,4.79,.09,4.36c0,2.79,.78,4.18,2.33,4.18m10.38-28.74s-.03,0-.05,0c-2.95,.31-5.68,.47-8.12,.47-.28,0-.5,.22-.5,.5v8.75c-1.23-1.25-2.75-1.88-4.56-1.88-5.68,0-8.56,4.21-8.56,12.52s2.73,12.18,8.11,12.18c1.98,0,3.66-.58,5-1.74v.73c0,.28,.22,.5,.5,.5h8.17c.28,0,.5-.22,.5-.5V25.28c0-.14-.06-.28-.17-.37-.09-.08-.21-.13-.33-.13h0Zm-10.38,28.24c-.45,0-1.83,0-1.83-3.68l-.09-4.37,.16-4.76c0-3.3,1.17-3.3,1.56-3.3,1.05,0,1.69,1.11,1.9,3.28l.18,3.74-.11,5.47c0,3.63-1.32,3.63-1.76,3.63h0Z"/></g><g><path class="d" d="M206.93,56.98c-4.13,0-6.23-2.04-6.23-6.07v-17.17c0-.13,.11-.24,.24-.25,2.72-.12,5.46-.31,8.16-.58h.02c.06,0,.12,.02,.17,.06,.05,.05,.08,.11,.08,.19v17.55c0,2.03,.86,2.03,1.14,2.03,2.27,0,3.42-2.57,3.42-7.63v-11.37c0-.13,.11-.24,.24-.25,2.71-.12,5.45-.31,8.15-.58h.02c.06,0,.12,.02,.17,.06,.05,.05,.08,.11,.08,.19v23.14c0,.14-.11,.25-.25,.25h-8.17c-.14,0-.25-.11-.25-.25v-2.85c-1.86,2.34-4.21,3.52-7,3.52Z"/><path class="d" d="M222.35,33.16v23.14h-8.17v-3.6c-1.88,2.69-4.3,4.03-7.25,4.03-3.98,0-5.98-1.94-5.98-5.82v-17.17c2.75-.12,5.47-.31,8.17-.58v17.55c0,1.52,.46,2.28,1.39,2.28,2.45,0,3.67-2.62,3.67-7.88v-11.37c2.73-.12,5.45-.31,8.17-.58m-13.23-.5s-.03,0-.05,0c-2.69,.27-5.42,.46-8.14,.58-.27,.01-.48,.23-.48,.5v17.17c0,4.13,2.24,6.32,6.48,6.32,2.65,0,4.92-1.04,6.75-3.09v2.16c0,.28,.22,.5,.5,.5h8.17c.28,0,.5-.22,.5-.5v-23.14c0-.14-.06-.28-.16-.37-.09-.08-.21-.13-.34-.13-.02,0-.03,0-.05,0-2.7,.27-5.44,.46-8.14,.58-.27,.01-.48,.23-.48,.5v11.37c0,4.89-1.07,7.38-3.17,7.38-.24,0-.89,0-.89-1.78v-17.55c0-.14-.06-.28-.16-.37-.09-.08-.21-.13-.34-.13h0Z"/></g><g><path class="d" d="M226.87,56.55c-.14,0-.25-.11-.25-.25V25.75c0-.14,.11-.25,.25-.25,2.23,0,4.97-.15,8.15-.45h.02c.06,0,.12,.02,.17,.06,.05,.05,.08,.11,.08,.18v31c0,.14-.11,.25-.25,.25h-8.17Z"/><path class="d" d="M235.04,25.31v31h-8.17V25.75c2.25,0,4.98-.15,8.17-.45m0-.5s-.03,0-.05,0c-3.17,.3-5.9,.45-8.12,.45-.28,0-.5,.22-.5,.5v30.55c0,.28,.22,.5,.5,.5h8.17c.28,0,.5-.22,.5-.5V25.31c0-.14-.06-.27-.16-.37-.09-.08-.21-.13-.34-.13h0Z"/></g><g><path class="d" d="M249.74,57.07c-7.65,0-11.53-3.87-11.53-11.51,0-3.68,1.03-6.75,3.06-9.12,2.04-2.37,4.69-3.58,7.87-3.58,6.66,0,10.03,4.33,10.03,12.87,0,.14-.11,.25-.25,.25h-11.66c.04,5.55,1.47,8.36,4.25,8.36s3.96-1.56,3.96-4.76c0-.44-.02-.95-.04-1.53,0-.08,.03-.16,.09-.21,.04-.04,.1-.05,.16-.05,.02,0,.05,0,.07,.01l3.29,.96c.11,.03,.19,.14,.18,.26-.35,5.34-3.54,8.04-9.47,8.04Zm1.88-14.11c-.02-4.83-.76-7.38-2.12-7.38-1.27,0-2,1.88-2.17,5.6l-.08,1.78h4.37Z"/><path class="d" d="M249.14,33.12c6.52,0,9.78,4.21,9.78,12.62h-11.91c0,5.91,1.5,8.86,4.5,8.86,2.8,0,4.21-1.67,4.21-5.01,0-.45-.02-.96-.04-1.54l3.29,.96c-.34,5.21-3.42,7.81-9.22,7.81-7.52,0-11.28-3.75-11.28-11.26,0-3.64,1-6.62,3-8.95,2-2.33,4.56-3.49,7.68-3.49m-2.15,10.09h4.88c0-5.25-.79-7.88-2.37-7.88-1.43,0-2.24,1.95-2.42,5.84l-.09,2.04m2.15-10.59c-3.26,0-5.97,1.23-8.06,3.66-2.07,2.41-3.12,5.53-3.12,9.28,0,7.8,3.96,11.76,11.78,11.76,6.09,0,9.36-2.78,9.72-8.28,.02-.23-.13-.45-.36-.51l-3.29-.96s-.09-.02-.14-.02c-.11,0-.22,.04-.31,.11-.13,.1-.2,.26-.19,.42,.03,.59,.04,1.09,.04,1.52,0,3.08-1.18,4.51-3.71,4.51s-3.92-2.64-4-7.86h11.4c.28,0,.5-.22,.5-.5,0-8.71-3.46-13.12-10.28-13.12h0Zm-1.63,10.09l.07-1.52c.16-3.46,.84-5.36,1.92-5.36,.55,0,1.81,.68,1.87,6.88h-3.85Z"/></g></g><g><g><path class="i" d="M4.09,27.12c.08-4.02,1.65-6.97,4.98-8.9C18.87,12.56,28.67,6.9,38.47,1.25,42.6-1.13,47.9,0,50.85,3.72c3.39,4.28,2.25,11.27-2.85,14.19-5.89,3.37-11.76,6.78-17.63,10.17-3.9,2.25-7.8,4.5-11.7,6.76-5.79,3.35-12.85,.29-14.34-6.23-.13-.56-.18-1.13-.24-1.5Z"/><path class="e" d="M4.16,28.02s3.25,8.3,14.44,2.89,27.2-14.32,30.57-18.05,2.17-8.43,2.17-8.43c0,0,3.61,5.06-.36,11.19,0,0-2.29,2.53-6.5,4.45,0,0-25.03,14.8-26.72,15.41s-11.19,3.49-13.6-7.46Z"/></g><g><path class="d" d="M0,76.71c.08-4.02,1.65-6.97,4.98-8.9,9.8-5.66,19.59-11.32,29.4-16.97,4.13-2.38,9.43-1.25,12.38,2.47,3.39,4.28,2.25,11.27-2.85,14.19-5.89,3.37-11.76,6.78-17.63,10.17-3.9,2.25-7.8,4.5-11.7,6.76-5.79,3.35-12.85,.29-14.34-6.23-.13-.56-.18-1.13-.24-1.5Z"/><path class="g" d="M.07,77.6s3.25,8.3,14.44,2.89c11.19-5.42,27.2-14.32,30.57-18.05,3.37-3.73,2.17-8.43,2.17-8.43,0,0,3.61,5.06-.36,11.19,0,0-2.29,2.53-6.5,4.45,0,0-25.03,14.8-26.72,15.41S2.47,88.56,.07,77.6Z"/></g><g><path class="h" d="M25.01,52.94c-3.1-.07-5.9-1.74-7.86-4.72-1.1-1.66-1.32-3.61-1.16-5.6,.19-2.47,1.14-4.62,2.97-6.23,1.17-1.03,2.6-1.78,3.94-2.61,1.21-.75,2.45-1.44,3.68-2.14,5.85-3.33,13.08,.19,14.24,6.54,.72,3.96-.98,7.89-4.41,9.98-2.07,1.25-4.17,2.45-6.27,3.63-1.41,.79-2.95,1.15-5.12,1.15Z"/><path class="f" d="M40.81,38.18c-.23-1.28-.71-2.44-1.38-3.46,.18,.49,.32,1,.41,1.53,.72,3.96-.98,7.89-4.41,9.98-2.07,1.25-4.17,2.45-6.27,3.63-1.41,.79-2.95,1.15-5.12,1.15-3.02-.07-5.75-1.65-7.7-4.48,.19,.59,.45,1.15,.8,1.69,1.97,2.98,4.76,4.64,7.86,4.72,2.16,0,3.7-.35,5.12-1.15,2.11-1.18,4.21-2.38,6.27-3.63,3.43-2.08,5.13-6.02,4.41-9.98Z"/></g></g></g></g></g></svg>