<?xml version="1.0" encoding="UTF-8"?><svg xmlns="http://www.w3.org/2000/svg" viewBox="0 0 518.13 85.49"><defs><style>.e{fill:#f95458;}.f{isolation:isolate;}.g{fill:#f7b040;}.h{fill:#5b5ffb;}</style></defs><g id="a"/><g id="b"><g id="c"><g><g id="d"><g class="f"><g><path class="h" d="M82.03,64.54c-.19,0-.35-.16-.35-.35V21.64c0-.19,.16-.35,.35-.35h18.92c9.93,0,14.97,3.63,14.97,10.79,0,4.71-2.6,7.89-7.73,9.48,6.33,1.65,9.54,5.45,9.54,11.31,0,7.74-4.93,11.66-14.65,11.66h-21.04Zm15.86-4.22c4.42,0,6.57-2.48,6.57-7.57,0-5.87-2.22-8.72-6.79-8.72h-2.96v16.29h3.17Zm.28-20.51c3.31,0,4.92-2.43,4.92-7.44,0-4.61-1.71-6.85-5.23-6.85h-3.14v14.29h3.45Z"/><path class="h" d="M100.95,21.64c9.74,0,14.62,3.48,14.62,10.44,0,4.95-2.94,8.11-8.82,9.51,7.09,1.41,10.63,5.17,10.63,11.28,0,7.54-4.77,11.31-14.31,11.31h-21.04V21.64h18.92m-6.58,18.51h3.8c3.51,0,5.27-2.6,5.27-7.79,0-4.8-1.86-7.2-5.58-7.2h-3.49v14.99m0,20.51h3.52c4.61,0,6.92-2.64,6.92-7.92,0-6.05-2.38-9.07-7.14-9.07h-3.3v16.99m6.58-39.72h-18.92c-.38,0-.7,.31-.7,.7v42.54c0,.38,.31,.7,.7,.7h21.04c9.95,0,15-4.04,15-12.01,0-5.7-2.93-9.51-8.73-11.34,4.6-1.73,6.92-4.9,6.92-9.45,0-7.39-5.15-11.14-15.31-11.14h0Zm-5.88,4.92h2.79c2.1,0,4.88,.67,4.88,6.5,0,7.1-3.44,7.1-4.57,7.1h-3.11v-13.6h0Zm0,18.51h2.61c4.33,0,6.44,2.74,6.44,8.37,0,4.93-1.98,7.22-6.22,7.22h-2.83v-15.59h0Z"/></g><g><path class="h" d="M121.68,64.54c-.19,0-.35-.16-.35-.35v-31.42c0-.09,.04-.18,.1-.25,.06-.07,.15-.1,.24-.1l2.22,.03c2.59,0,5.65-.28,9.1-.84,.02,0,.04,0,.06,0,.08,0,.16,.03,.23,.08,.08,.07,.12,.16,.12,.27v3.89c1.79-2.81,3.95-4.24,6.45-4.24,3.87,0,5.83,2.15,5.83,6.39,0,1.08-.18,2.34-.54,3.73-.12,.55-.32,1.4-.59,2.52-.04,.16-.18,.27-.34,.27h-7.79c-.11,0-.21-.05-.27-.13-.07-.08-.09-.19-.07-.29,.28-1.25,.51-2.15,.73-2.75,.28-.81,.42-1.54,.42-2.19,0-1.46-.58-1.65-1.09-1.65-.32,0-.97,.31-1.76,2.41-.65,1.71-.97,3.54-.97,5.44v18.83c0,.19-.16,.35-.35,.35h-11.38Z"/><path class="h" d="M139.85,31.96c3.66,0,5.49,2.02,5.49,6.05,0,1.06-.18,2.28-.53,3.65-.12,.56-.32,1.4-.59,2.53h-7.79c.27-1.23,.51-2.13,.72-2.71,.29-.85,.44-1.62,.44-2.31,0-1.33-.48-2-1.43-2-.73,0-1.42,.88-2.09,2.63-.67,1.76-1,3.61-1,5.56v18.83h-11.38v-31.42l2.21,.03c2.62,0,5.67-.28,9.16-.84v5.17c1.85-3.45,4.11-5.17,6.79-5.17m-6.79-.7s-.07,0-.11,0c-3.43,.55-6.48,.83-9.05,.83l-2.2-.03h0c-.18,0-.36,.07-.49,.2-.13,.13-.21,.31-.21,.5v31.42c0,.38,.31,.7,.7,.7h11.38c.38,0,.7-.31,.7-.7v-18.83c0-1.86,.32-3.65,.95-5.32,.8-2.12,1.37-2.18,1.44-2.18,.26,0,.74,0,.74,1.3,0,.61-.13,1.31-.4,2.08-.22,.61-.46,1.52-.74,2.79-.05,.21,0,.42,.14,.59,.13,.16,.33,.26,.54,.26h7.79c.32,0,.6-.22,.68-.53,.27-1.13,.47-1.97,.6-2.54,.36-1.4,.55-2.68,.55-3.8,0-5.57-3.36-6.74-6.18-6.74-2.33,0-4.37,1.16-6.1,3.47v-2.77c0-.2-.09-.4-.24-.53-.13-.11-.29-.17-.45-.17h0Z"/></g><g><path class="h" d="M149.04,64.54c-.19,0-.35-.16-.35-.35v-31.39c0-.19,.16-.35,.35-.35,3.52,0,7.33-.28,11.33-.84,.02,0,.03,0,.05,0,.08,0,.16,.03,.23,.09,.08,.07,.12,.16,.12,.26v32.23c0,.19-.16,.35-.35,.35h-11.38Zm5.77-35.37c-3.75,0-5.65-1.5-5.65-4.46s1.9-4.46,5.65-4.46,5.65,1.5,5.65,4.46-1.9,4.46-5.65,4.46Z"/><path class="h" d="M154.81,20.59c3.53,0,5.3,1.37,5.3,4.11s-1.77,4.11-5.3,4.11-5.3-1.37-5.3-4.11,1.77-4.11,5.3-4.11m5.61,11.38v32.23h-11.38v-31.39c3.55,0,7.34-.28,11.38-.84m-5.61-12.07c-4.95,0-6,2.62-6,4.81s1.04,4.81,6,4.81,5.99-2.62,5.99-4.81-1.04-4.81-5.99-4.81h0Zm5.61,11.38s-.06,0-.1,0c-3.98,.55-7.77,.84-11.28,.84-.38,0-.7,.31-.7,.7v31.39c0,.38,.31,.7,.7,.7h11.38c.38,0,.7-.31,.7-.7V31.96c0-.2-.09-.39-.24-.53-.13-.11-.29-.17-.46-.17h0Z"/></g><g><path class="h" d="M181.08,65.25c-10.65,0-16.06-5.39-16.06-16.03,0-5.13,1.43-9.4,4.26-12.69,2.84-3.31,6.53-4.98,10.95-4.98,9.27,0,13.97,6.03,13.97,17.93,0,.19-.16,.35-.35,.35h-16.23c.06,7.73,2.05,11.65,5.91,11.65s5.51-2.17,5.51-6.63c0-.62-.02-1.33-.06-2.13,0-.11,.04-.22,.13-.29,.06-.05,.14-.07,.22-.07,.03,0,.07,0,.1,.01l4.58,1.34c.16,.05,.26,.19,.25,.36-.49,7.43-4.93,11.2-13.19,11.2Zm2.61-19.65c-.03-6.72-1.05-10.28-2.95-10.28-1.77,0-2.78,2.62-3.02,7.8l-.11,2.47h6.08Z"/><path class="h" d="M180.24,31.9c9.08,0,13.62,5.86,13.62,17.58h-16.58c0,8.23,2.09,12.34,6.26,12.34,3.91,0,5.86-2.33,5.86-6.98,0-.62-.02-1.34-.06-2.15l4.58,1.34c-.48,7.25-4.76,10.88-12.84,10.88-10.47,0-15.71-5.23-15.71-15.68,0-5.07,1.39-9.23,4.18-12.47,2.78-3.24,6.35-4.86,10.69-4.86m-2.99,14.06h6.79c0-7.31-1.1-10.97-3.3-10.97-2,0-3.12,2.71-3.37,8.13l-.13,2.84m2.99-14.75c-4.53,0-8.31,1.72-11.22,5.1-2.88,3.36-4.34,7.7-4.34,12.92,0,10.86,5.52,16.37,16.41,16.37,8.48,0,13.03-3.88,13.53-11.53,.02-.33-.19-.62-.5-.71l-4.58-1.34c-.06-.02-.13-.03-.2-.03-.15,0-.31,.05-.43,.15-.18,.14-.28,.36-.26,.58,.04,.8,.06,1.51,.06,2.12,0,4.29-1.64,6.28-5.16,6.28s-5.45-3.68-5.56-10.95h15.88c.38,0,.7-.31,.7-.7,0-12.13-4.82-18.27-14.32-18.27h0Zm-2.26,14.06l.09-2.11c.22-4.82,1.17-7.47,2.67-7.47,.76,0,2.51,.95,2.6,9.58h-5.37Z"/></g><g><path class="h" d="M199.28,64.54c-.19,0-.35-.16-.35-.35v-27.55h-3.64c-.19,0-.35-.16-.35-.35v-3.52c0-.19,.16-.35,.35-.35h3.64v-2.46c0-2.66,.95-4.91,2.84-6.68,1.88-1.76,4.26-2.65,7.08-2.65,5.69,0,8.58,2.19,8.58,6.52,0,.32-.01,.72-.03,1.2,0,.14-.1,.27-.23,.31l-5.39,1.9s-.08,.02-.12,.02c-.09,0-.17-.03-.24-.09-.1-.09-.13-.22-.1-.35,.28-1.05,.42-1.88,.42-2.47,0-2.65-1.12-2.96-1.96-2.96-.71,0-1.65,.26-1.65,2.55,0,1.08,.9,2.81,2.69,5.14h4.32c.19,0,.35,.16,.35,.35v3.52c0,.19-.16,.35-.35,.35h-4.14v27.55c0,.19-.16,.35-.35,.35h-11.38Z"/><path class="h" d="M208.85,20.99c5.49,0,8.23,2.06,8.23,6.17,0,.31-.01,.71-.03,1.18l-5.39,1.9c.29-1.08,.44-1.93,.44-2.56,0-2.2-.77-3.3-2.31-3.3-1.33,0-2,.97-2,2.9,0,1.18,.96,3.01,2.87,5.49h4.49v3.52h-4.49v27.89h-11.38v-27.89h-3.99v-3.52h3.99v-2.8c0-2.58,.91-4.72,2.73-6.42,1.82-1.7,4.1-2.56,6.84-2.56m0-.7c-2.91,0-5.37,.92-7.32,2.74-1.96,1.83-2.95,4.16-2.95,6.93v2.11h-3.29c-.38,0-.7,.31-.7,.7v3.52c0,.38,.31,.7,.7,.7h3.29v27.2c0,.38,.31,.7,.7,.7h11.38c.38,0,.7-.31,.7-.7v-27.2h3.79c.38,0,.7-.31,.7-.7v-3.52c0-.38-.31-.7-.7-.7h-4.14c-2.07-2.73-2.51-4.11-2.51-4.79,0-2.2,.91-2.2,1.3-2.2,.48,0,1.61,0,1.61,2.61,0,.56-.14,1.36-.41,2.38-.07,.25,0,.52,.2,.69,.13,.12,.3,.19,.47,.19,.08,0,.16-.01,.23-.04l5.39-1.9c.27-.09,.45-.34,.46-.63,.02-.49,.03-.9,.03-1.21,0-3.13-1.55-6.87-8.92-6.87h0Z"/></g><g><rect class="h" x="238.24" y="21.3" width="13.04" height="43.24" rx=".35" ry=".35"/><path class="h" d="M250.93,21.64v42.54h-12.34V21.64h12.34m0-.7h-12.34c-.38,0-.7,.31-.7,.7v42.54c0,.38,.31,.7,.7,.7h12.34c.38,0,.7-.31,.7-.7V21.64c0-.38-.31-.7-.7-.7h0Z"/></g><g><path class="h" d="M276.11,64.54c-.19,0-.35-.16-.35-.35v-23.06c0-3.17-1.22-3.17-1.62-3.17-1.18,0-2.24,.88-3.15,2.6-.95,1.8-1.43,3.96-1.43,6.43v17.2c0,.19-.16,.35-.35,.35h-11.38c-.19,0-.35-.16-.35-.35v-31.48c0-.19,.16-.35,.35-.35,3.87,0,7.68-.26,11.33-.78,.02,0,.03,0,.05,0,.08,0,.16,.03,.23,.09,.08,.07,.12,.16,.12,.26v4.86c2.77-3.44,6.13-5.18,10-5.18,5.48,0,8.26,2.82,8.26,8.39v24.19c0,.19-.16,.35-.35,.35h-11.38Z"/><path class="h" d="M269.22,31.93v5.89c2.82-3.91,6.27-5.86,10.35-5.86,5.28,0,7.92,2.68,7.92,8.04v24.19h-11.38v-23.06c0-2.35-.65-3.52-1.96-3.52s-2.48,.93-3.46,2.79c-.98,1.86-1.46,4.06-1.46,6.59v17.2h-11.38v-31.48c3.91,0,7.7-.26,11.38-.78m0-.7s-.06,0-.1,0c-3.63,.51-7.42,.77-11.28,.77-.38,0-.7,.31-.7,.7v31.48c0,.38,.31,.7,.7,.7h11.38c.38,0,.7-.31,.7-.7v-17.2c0-2.41,.47-4.52,1.38-6.27,.84-1.6,1.8-2.42,2.84-2.42,.31,0,1.27,0,1.27,2.83v23.06c0,.38,.31,.7,.7,.7h11.38c.38,0,.7-.31,.7-.7v-24.19c0-5.72-2.98-8.74-8.61-8.74-3.7,0-6.94,1.54-9.65,4.58v-3.91c0-.2-.09-.39-.24-.53-.13-.11-.29-.17-.46-.17h0Z"/></g><g><path class="h" d="M303.01,64.88c-5.92,0-8.92-2.57-8.92-7.64v-20.5h-3.45c-.19,0-.35-.16-.35-.35v-3.52c0-.19,.16-.35,.35-.35h3.45v-5.2c0-.16,.1-.29,.26-.34,3.88-1.07,7.68-2.63,11.3-4.64,.05-.03,.11-.04,.17-.04s.12,.02,.18,.05c.11,.06,.17,.18,.17,.3v9.88h4.7c.19,0,.35,.16,.35,.35v3.52c0,.19-.16,.35-.35,.35h-4.7v21.87c0,1.74,.72,1.74,.99,1.74,.18,0,.66,0,.81-1.1,.02-.17,.17-.3,.35-.3,.01,0,3.27,.31,3.27,.31,.1,0,.2,.06,.25,.15,.06,.09,.08,.19,.05,.29-.94,3.44-3.92,5.18-8.88,5.18Z"/><path class="h" d="M305.81,22.64v10.22h5.05v3.52h-5.05v22.22c0,1.39,.45,2.09,1.34,2.09,.64,0,1.03-.47,1.15-1.4l3.24,.31c-.89,3.28-3.74,4.92-8.54,4.92-5.71,0-8.57-2.43-8.57-7.29v-20.85h-3.8v-3.52h3.8v-5.55c3.93-1.08,7.72-2.64,11.38-4.68m0-.7c-.12,0-.23,.03-.34,.09-3.59,2-7.37,3.55-11.22,4.61-.3,.08-.51,.36-.51,.67v4.85h-3.11c-.38,0-.7,.31-.7,.7v3.52c0,.38,.31,.7,.7,.7h3.11v20.16c0,3.64,1.61,7.99,9.27,7.99,5.13,0,8.23-1.83,9.21-5.44,.05-.2,.02-.41-.1-.58-.12-.17-.3-.28-.51-.3l-3.24-.31s-.05,0-.07,0c-.34,0-.64,.26-.69,.6-.11,.8-.36,.8-.46,.8-.19,0-.64,0-.64-1.39v-21.53h4.35c.38,0,.7-.31,.7-.7v-3.52c0-.38-.31-.7-.7-.7h-4.35v-9.53c0-.25-.13-.48-.34-.6-.11-.06-.23-.1-.35-.1h0Z"/></g><g><path class="h" d="M328.72,65.25c-10.65,0-16.06-5.39-16.06-16.03,0-5.13,1.43-9.4,4.26-12.69,2.84-3.31,6.53-4.98,10.95-4.98,9.27,0,13.97,6.03,13.97,17.93,0,.19-.16,.35-.35,.35h-16.23c.06,7.73,2.05,11.65,5.92,11.65s5.51-2.17,5.51-6.63c0-.62-.02-1.33-.06-2.13,0-.11,.04-.22,.13-.29,.06-.05,.14-.07,.22-.07,.03,0,.07,0,.1,.01l4.58,1.34c.16,.05,.26,.19,.25,.36-.49,7.43-4.93,11.2-13.19,11.2Zm2.61-19.65c-.03-6.72-1.05-10.28-2.95-10.28-1.77,0-2.78,2.62-3.02,7.8l-.11,2.47h6.08Z"/><path class="h" d="M327.88,31.9c9.08,0,13.62,5.86,13.62,17.58h-16.58c0,8.23,2.09,12.34,6.27,12.34,3.91,0,5.86-2.33,5.86-6.98,0-.62-.02-1.34-.06-2.15l4.58,1.34c-.48,7.25-4.76,10.88-12.84,10.88-10.47,0-15.71-5.23-15.71-15.68,0-5.07,1.39-9.23,4.18-12.47,2.78-3.24,6.35-4.86,10.69-4.86m-2.99,14.06h6.79c0-7.31-1.1-10.97-3.3-10.97-2,0-3.12,2.71-3.37,8.13l-.13,2.84m2.99-14.75c-4.53,0-8.31,1.72-11.22,5.1-2.88,3.36-4.34,7.7-4.34,12.92,0,10.86,5.52,16.37,16.4,16.37,8.48,0,13.03-3.88,13.54-11.53,.02-.33-.19-.62-.5-.71l-4.58-1.34c-.06-.02-.13-.03-.2-.03-.15,0-.31,.05-.43,.15-.18,.14-.28,.36-.26,.58,.04,.82,.06,1.52,.06,2.12,0,4.29-1.64,6.28-5.16,6.28s-5.45-3.68-5.56-10.95h15.88c.38,0,.7-.31,.7-.7,0-12.13-4.82-18.27-14.32-18.27h0Zm-2.26,14.06l.09-2.11c.22-4.82,1.17-7.47,2.67-7.47,.76,0,2.51,.95,2.6,9.58h-5.37Z"/></g><g><path class="h" d="M346.42,64.54c-.19,0-.35-.16-.35-.35v-31.42c0-.09,.04-.18,.1-.25,.07-.07,.15-.1,.24-.1l2.22,.03c2.59,0,5.65-.28,9.1-.84,.02,0,.04,0,.06,0,.08,0,.16,.03,.23,.08,.08,.07,.12,.16,.12,.27v3.89c1.79-2.81,3.95-4.24,6.45-4.24,3.87,0,5.83,2.15,5.83,6.39,0,1.08-.18,2.34-.54,3.73-.12,.55-.32,1.4-.59,2.52-.04,.16-.18,.27-.34,.27h-7.79c-.11,0-.21-.05-.27-.13-.07-.08-.09-.19-.07-.29,.28-1.26,.52-2.16,.73-2.75,.28-.81,.42-1.54,.42-2.19,0-1.46-.58-1.65-1.09-1.65-.32,0-.97,.31-1.76,2.41-.65,1.71-.97,3.54-.97,5.44v18.83c0,.19-.16,.35-.35,.35h-11.38Z"/><path class="h" d="M364.59,31.96c3.66,0,5.49,2.02,5.49,6.05,0,1.06-.18,2.28-.53,3.65-.13,.56-.32,1.4-.59,2.53h-7.79c.27-1.23,.51-2.13,.72-2.71,.29-.85,.44-1.62,.44-2.31,0-1.33-.48-2-1.43-2-.73,0-1.42,.88-2.09,2.63-.67,1.76-1,3.61-1,5.56v18.83h-11.38v-31.42l2.21,.03c2.62,0,5.67-.28,9.16-.84v5.17c1.85-3.45,4.11-5.17,6.79-5.17m-6.79-.7s-.07,0-.11,0c-3.43,.55-6.48,.83-9.05,.83l-2.2-.03h0c-.18,0-.36,.07-.49,.2-.13,.13-.21,.31-.21,.5v31.42c0,.38,.31,.7,.7,.7h11.38c.38,0,.7-.31,.7-.7v-18.83c0-1.86,.32-3.65,.95-5.32,.8-2.12,1.38-2.18,1.44-2.18,.26,0,.74,0,.74,1.3,0,.61-.13,1.31-.4,2.08-.21,.6-.46,1.52-.74,2.79-.05,.21,0,.42,.14,.59,.13,.16,.33,.26,.54,.26h7.79c.32,0,.6-.22,.68-.53,.27-1.13,.47-1.97,.6-2.54,.36-1.4,.55-2.69,.55-3.8,0-5.57-3.36-6.74-6.18-6.74-2.33,0-4.37,1.16-6.1,3.47v-2.77c0-.2-.09-.4-.24-.53-.13-.11-.29-.17-.45-.17h0Z"/></g><g><path class="h" d="M381.83,65.19c-6.83,0-10.29-3.22-10.29-9.57,0-4.82,3.14-8.25,9.34-10.18,5.38-1.69,8.11-3.69,8.11-5.96,0-3.02-1.46-4.48-4.45-4.48-3.5,0-5.2,1.42-5.2,4.33,0,.93,.29,2.19,.85,3.74,.04,.12,.02,.25-.06,.35-.07,.08-.16,.12-.27,.12-.02,0-.04,0-.07,0l-5.64-1.09c-.14-.03-.26-.14-.28-.29-.15-.99-.22-1.93-.22-2.79,0-5.19,4.71-7.83,14-7.83s13.31,2.47,13.31,7.33v19.07c0,2.31,.89,2.58,1.55,2.58,.23,0,.69-.11,1.57-.61,.05-.03,.11-.04,.17-.04,.04,0,.08,0,.12,.02,.1,.03,.17,.11,.21,.2l1.09,2.87c.07,.18-.02,.38-.2,.45-2.81,1.09-5.59,1.64-8.26,1.64-3.75,0-6.21-1.12-7.32-3.33-1.93,2.31-4.65,3.48-8.08,3.48Zm7.07-19.02c-.58,.56-1.23,1.05-1.94,1.46-2.25,1.31-3.35,3.48-3.35,6.62,0,2.68,.36,5.88,2.08,5.88,2.16,0,3.2-1.91,3.2-5.82v-8.14Z"/><path class="h" d="M387.66,31.87c8.64,0,12.97,2.33,12.97,6.98v19.07c0,1.95,.63,2.93,1.9,2.93,.4,0,.98-.22,1.75-.65l1.09,2.87c-2.79,1.08-5.5,1.62-8.13,1.62-3.91,0-6.32-1.22-7.23-3.65-1.89,2.54-4.61,3.8-8.17,3.8-6.63,0-9.94-3.08-9.94-9.23,0-4.68,3.03-7.96,9.1-9.85,5.57-1.74,8.35-3.84,8.35-6.3,0-3.22-1.6-4.83-4.8-4.83-3.7,0-5.55,1.56-5.55,4.68,0,.98,.29,2.26,.87,3.86l-5.64-1.09c-.15-.98-.22-1.89-.22-2.74,0-4.99,4.55-7.48,13.65-7.48m-1.96,28.61c2.37,0,3.55-2.06,3.55-6.17v-9.01c-.71,.81-1.53,1.49-2.46,2.03-2.35,1.37-3.52,3.68-3.52,6.92,0,4.15,.81,6.23,2.43,6.23m1.96-29.31c-9.52,0-14.35,2.75-14.35,8.18,0,.88,.08,1.84,.23,2.84,.04,.29,.27,.52,.56,.58l5.64,1.09s.09,.01,.13,.01c.2,0,.4-.09,.53-.24,.16-.19,.21-.45,.12-.69-.55-1.51-.83-2.73-.83-3.63,0-1.71,.5-3.98,4.85-3.98,2.8,0,4.1,1.31,4.1,4.13,0,2.07-2.72,4.02-7.87,5.63-6.36,1.98-9.59,5.52-9.59,10.51,0,6.58,3.58,9.92,10.64,9.92,3.35,0,6.04-1.08,8.02-3.23,1.26,2.04,3.74,3.07,7.38,3.07,2.71,0,5.53-.56,8.39-1.67,.36-.14,.53-.54,.4-.9l-1.09-2.87c-.07-.19-.22-.34-.41-.41-.08-.03-.16-.04-.24-.04-.12,0-.24,.03-.34,.09-.9,.51-1.28,.56-1.4,.56-.36,0-1.2,0-1.2-2.23v-19.07c0-5.09-4.6-7.68-13.66-7.68h0Zm-1.96,28.61c-1.51,0-1.74-3.47-1.74-5.54,0-3,1.04-5.07,3.18-6.32,.5-.29,.97-.62,1.41-.98v7.36c0,5.48-2.15,5.48-2.86,5.48h0Z"/></g><g><path class="h" d="M421.51,65.22c-10.53,0-15.87-5.41-15.87-16.09,0-5.32,1.55-9.64,4.62-12.82,3.07-3.18,7.23-4.8,12.37-4.8,7.49,0,11.29,3.45,11.29,10.26,0,.13-.08,.25-.2,.31l-5.33,2.59s-.1,.04-.15,.04c-.07,0-.13-.02-.19-.05-.1-.07-.16-.18-.16-.3l.06-2.99c0-4.29-1.36-6.38-4.17-6.38-3.74,0-5.64,4.33-5.64,12.87,0,5.37,.42,9.1,1.25,11.07,.8,1.9,2.24,2.83,4.42,2.83,4.02,0,5.98-2.57,5.98-7.85,0-.75-.13-1.99-.37-3.69-.02-.12,.03-.24,.12-.31,.06-.06,.15-.08,.23-.08,.03,0,.07,0,.1,.01l4.8,1.46c.14,.04,.24,.17,.25,.33l.03,1.28c0,8.18-4.52,12.32-13.44,12.32Z"/><path class="h" d="M422.63,31.87c7.29,0,10.94,3.3,10.94,9.91l-5.33,2.59,.06-2.99c0-4.49-1.51-6.73-4.52-6.73-3.99,0-5.98,4.41-5.98,13.22,0,5.44,.43,9.18,1.28,11.2,.85,2.03,2.43,3.04,4.74,3.04,4.22,0,6.33-2.73,6.33-8.2,0-.77-.13-2.02-.37-3.74l4.8,1.46,.03,1.28c0,7.98-4.36,11.97-13.09,11.97-10.35,0-15.52-5.25-15.52-15.74,0-5.26,1.51-9.45,4.52-12.57,3.01-3.13,7.05-4.69,12.12-4.69m0-.7c-5.24,0-9.49,1.65-12.63,4.9-3.13,3.25-4.71,7.64-4.71,13.06,0,10.91,5.46,16.44,16.22,16.44,9.15,0,13.79-4.26,13.79-12.66l-.03-1.29c0-.3-.21-.56-.49-.65l-4.8-1.46c-.07-.02-.14-.03-.2-.03-.16,0-.33,.06-.45,.17-.18,.16-.27,.39-.24,.63,.24,1.69,.37,2.91,.37,3.64,0,5.05-1.84,7.5-5.63,7.5-2.02,0-3.36-.85-4.1-2.61-.81-1.93-1.22-5.61-1.22-10.93,0-8.31,1.78-12.52,5.29-12.52,.95,0,3.82,0,3.82,6.04l-.06,2.98c0,.24,.12,.47,.32,.6,.11,.07,.24,.11,.38,.11,.1,0,.21-.02,.3-.07l5.33-2.59c.24-.12,.39-.36,.39-.63,0-7.04-3.91-10.61-11.64-10.61h0Z"/></g><g><path class="h" d="M447.72,64.88c-5.92,0-8.92-2.57-8.92-7.64v-20.5h-3.45c-.19,0-.35-.16-.35-.35v-3.52c0-.19,.16-.35,.35-.35h3.45v-5.2c0-.16,.1-.29,.26-.34,3.88-1.07,7.68-2.63,11.3-4.64,.05-.03,.11-.04,.17-.04s.12,.02,.18,.05c.11,.06,.17,.18,.17,.3v9.88h4.7c.19,0,.35,.16,.35,.35v3.52c0,.19-.16,.35-.35,.35h-4.7v21.87c0,1.74,.72,1.74,.99,1.74,.18,0,.66,0,.81-1.1,.02-.17,.17-.3,.35-.3,.01,0,3.27,.31,3.27,.31,.1,0,.2,.06,.25,.15,.06,.09,.08,.19,.05,.29-.94,3.44-3.92,5.18-8.88,5.18Z"/><path class="h" d="M450.52,22.64v10.22h5.05v3.52h-5.05v22.22c0,1.39,.45,2.09,1.34,2.09,.64,0,1.03-.47,1.15-1.4l3.24,.31c-.89,3.28-3.74,4.92-8.54,4.92-5.71,0-8.57-2.43-8.57-7.29v-20.85h-3.8v-3.52h3.8v-5.55c3.93-1.08,7.72-2.64,11.38-4.68m0-.7c-.12,0-.23,.03-.34,.09-3.59,2-7.37,3.55-11.22,4.61-.3,.08-.51,.36-.51,.67v4.85h-3.1c-.38,0-.7,.31-.7,.7v3.52c0,.38,.31,.7,.7,.7h3.1v20.16c0,3.64,1.61,7.99,9.27,7.99,5.13,0,8.23-1.83,9.21-5.44,.05-.2,.02-.41-.1-.58-.12-.17-.3-.28-.51-.3l-3.24-.31s-.05,0-.07,0c-.34,0-.64,.26-.69,.6-.11,.8-.36,.8-.46,.8-.19,0-.64,0-.64-1.39v-21.53h4.35c.38,0,.7-.31,.7-.7v-3.52c0-.38-.31-.7-.7-.7h-4.35v-9.53c0-.25-.13-.48-.34-.6-.11-.06-.23-.1-.35-.1h0Z"/></g><g><path class="h" d="M473.34,65.22c-10.59,0-15.96-5.65-15.96-16.8s5.37-16.8,15.96-16.8,15.93,5.65,15.93,16.8-5.36,16.8-15.93,16.8Zm-.03-30.14c-1.56,0-3.42,2.31-3.42,13.33s1.86,13.34,3.42,13.34,3.45-2.31,3.45-13.34-1.88-13.33-3.45-13.33Z"/><path class="h" d="M473.34,31.96c10.39,0,15.58,5.49,15.58,16.46s-5.2,16.46-15.58,16.46-15.61-5.49-15.61-16.46,5.2-16.46,15.61-16.46m-.03,30.14c2.54,0,3.8-4.56,3.8-13.68s-1.27-13.68-3.8-13.68-3.77,4.56-3.77,13.68,1.26,13.68,3.77,13.68m.03-30.84c-10.82,0-16.31,5.77-16.31,17.15s5.49,17.15,16.31,17.15,16.28-5.77,16.28-17.15-5.48-17.15-16.28-17.15h0Zm-.03,30.14c-1.15,0-3.07-1.69-3.07-12.99s1.93-12.99,3.07-12.99,3.11,1.69,3.11,12.99-1.95,12.99-3.11,12.99h0Z"/></g><g><path class="h" d="M493.78,64.54c-.19,0-.35-.16-.35-.35v-31.42c0-.09,.04-.18,.1-.25,.07-.07,.15-.1,.24-.1l2.22,.03c2.59,0,5.65-.28,9.1-.84,.02,0,.04,0,.06,0,.08,0,.16,.03,.23,.08,.08,.07,.12,.16,.12,.27v3.89c1.79-2.81,3.95-4.24,6.45-4.24,3.87,0,5.83,2.15,5.83,6.39,0,1.08-.18,2.34-.54,3.73-.12,.55-.32,1.4-.59,2.52-.04,.16-.18,.27-.34,.27h-7.79c-.11,0-.21-.05-.27-.13-.07-.08-.09-.19-.07-.29,.28-1.26,.52-2.16,.73-2.75,.28-.81,.42-1.54,.42-2.19,0-1.46-.58-1.65-1.09-1.65-.32,0-.97,.31-1.76,2.41-.65,1.71-.97,3.54-.97,5.44v18.83c0,.19-.16,.35-.35,.35h-11.38Z"/><path class="h" d="M511.95,31.96c3.66,0,5.49,2.02,5.49,6.05,0,1.06-.18,2.28-.53,3.65-.13,.56-.32,1.4-.59,2.53h-7.79c.27-1.23,.51-2.13,.72-2.71,.29-.85,.44-1.62,.44-2.31,0-1.33-.48-2-1.43-2-.73,0-1.42,.88-2.09,2.63-.67,1.76-1,3.61-1,5.56v18.83h-11.38v-31.42l2.21,.03c2.62,0,5.67-.28,9.16-.84v5.17c1.85-3.45,4.11-5.17,6.79-5.17m-6.79-.7s-.07,0-.11,0c-3.43,.55-6.48,.83-9.05,.83l-2.2-.03h0c-.18,0-.36,.07-.49,.2-.13,.13-.21,.31-.21,.5v31.42c0,.38,.31,.7,.7,.7h11.38c.38,0,.7-.31,.7-.7v-18.83c0-1.86,.32-3.65,.95-5.32,.8-2.12,1.38-2.18,1.44-2.18,.26,0,.74,0,.74,1.3,0,.61-.13,1.31-.4,2.08-.21,.6-.46,1.52-.74,2.79-.05,.21,0,.42,.14,.59,.13,.16,.33,.26,.54,.26h7.79c.32,0,.6-.22,.68-.53,.27-1.13,.47-1.97,.6-2.54,.36-1.4,.55-2.69,.55-3.8,0-5.57-3.36-6.74-6.18-6.74-2.33,0-4.37,1.16-6.1,3.47v-2.77c0-.2-.09-.4-.24-.53-.13-.11-.29-.17-.45-.17h0Z"/></g></g></g><g><path class="g" d="M30.35,0c-3.91,.07-7.82,.04-11.74,.03-.44,0-.58,.1-.57,.55,.02,2.18,0,4.35,0,6.53h0c0,2.18,.01,4.35,0,6.53,0,.47,.14,.59,.6,.58,4.15-.02,8.3-.01,12.45,0,.32,0,.63,.05,.94,.1,.74,.12,1.4,.45,2.1,.65,.87,.25,1.7,.64,2.33,1.19,1.58,1.37,3.25,2.71,4.03,4.76,.37,.97,.8,1.93,.82,2.98,.04,1.81,.18,3.62-.51,5.39-.32,.82-.59,1.67-1.13,2.34-1.14,1.43-2.31,2.84-3.96,3.74-1.16,.63-2.37,1.18-3.67,1.29-2.48,.21-4.98,.01-7.47,.17-2.02,.13-4.05,.03-6.07,.03-.32,0-.47,.04-.46,.43,.02,3.9,.01,7.79,0,11.69,0,.54,.02,1.07-.1,1.61-.1,.43,.11,.6,.55,.54,.17-.02,.35-.03,.52-.02,3.5,.02,7,.09,10.5,.04,1.36-.02,2.66,.12,3.97,.46,1.6,.42,3.04,1.14,4.29,2.18,1.18,.98,2.27,2.06,3.11,3.39,.86,1.36,1.45,2.83,1.58,4.4,.17,1.95,.32,3.93-.31,5.85-.19,.59-.04,.74,.55,.74,3.59,0,7.18,0,10.78-.01,.86,0,1.71-.11,2.57,0,.45,.06,.86-.2,.86-.72,0-.1,0-.15,0-.22,0-.12,0-.25,.02-.37,.05-.44,.1-.87,.09-1.29-.01-.99,0-1.99,0-2.98-.02-1.99-.24-3.94-.76-5.87-.31-1.14-.56-2.3-.96-3.41-.5-1.4-1.1-2.76-1.91-4-.4-.61-.72-1.28-1.27-1.81-1.12-1.08-2.2-2.21-3.32-3.3-.34-.33-.28-.57,.05-.81,.5-.36,.9-.83,1.3-1.29,.54-.61,.99-1.29,1.47-1.95,.51-.7,1.12-1.36,1.47-2.14,.42-.94,.89-1.88,1.17-2.9,.28-1.03,.61-2.03,.84-3.08,.25-1.15,.48-2.27,.44-3.46-.07-2.31,.05-4.62-.11-6.92-.07-.95-.31-1.84-.56-2.73-.23-.84-.51-1.66-.8-2.49-.54-1.54-1.27-2.99-2.14-4.35-.79-1.23-1.7-2.38-2.7-3.46-1.44-1.56-3-2.98-4.71-4.23-1.1-.81-2.31-1.5-3.56-2.07-1.51-.69-3.08-1.24-4.7-1.61-1.05-.24-2.05-.55-3.13-.56l-2.78-.13Z"/><path class="h" d="M.01,43.07C.01,34.89,.01,26.72,0,18.54c0-.41,.12-.5,.51-.5,4.4,.01,8.8,.02,13.2,0,.5,0,.57,.18,.57,.61-.01,5.82-.12,11.64,.03,17.45,.13,4.8,.17,9.6,.06,14.39-.13,5.7-.02,11.39-.09,17.08,0,.43-.15,.54-.55,.54-4.4-.01-8.8-.01-13.2,0-.43,0-.53-.14-.53-.55,.01-8.16,0-16.32,0-24.48Z"/><path class="e" d="M1.7,75.99c-.09-.22-.19-.43-.29-.65-.56-1.27-1.05-2.56-1.02-3.99,0-.27,.24-.48,.51-.46,.09,0,.19,0,.28,0,17.99,0,35.98,0,53.97,0,.93,0,.95,.01,.5,.81-.88,1.55-1.98,2.94-3.2,4.23-.11,.12-.87,.93-1.01,1.07-.88,.85-1.74,1.72-2.67,2.52-1.25,1.07-2.65,1.88-4.07,2.67-1.83,1.02-3.74,1.88-5.78,2.39-1.99,.5-4.01,.74-6.07,.81-5.53,.17-11.05,.05-16.58,.09-1.97,.01-3.83-.49-5.67-1.2-1.3-.5-2.44-1.19-3.52-2-1.48-1.1-2.89-2.29-3.9-3.89-.17-.26-.35-.52-.54-.77-.3-.4-.56-.84-.77-1.29l-.16-.33Z"/><path class="e" d="M7.23,14.41c-2.21,0-4.42,0-6.62,0-.57,0-.61-.06-.52-.61,.3-1.87,.99-3.61,1.77-5.32,.72-1.57,1.94-2.75,3.13-3.96,.96-.98,2-1.85,3.2-2.49,1.51-.79,3.04-1.54,4.8-1.7,.32-.03,.64-.09,.96-.18,.41-.12,.48,.02,.48,.38-.01,1.43,0,2.86,0,4.3,0,3.02,0,6.03,0,9.05,0,.42-.1,.54-.53,.54-2.22-.02-4.45-.01-6.67-.01h0Z"/></g></g></g></g></svg>