<?xml version="1.0" encoding="UTF-8"?><svg xmlns="http://www.w3.org/2000/svg" viewBox="0 0 330.53 85.86"><defs><style>.d{fill:#5785ed;}.e{fill:#be3c52;}.f{fill:#c6701f;}.g{fill:#3d68b5;}.h{fill:#f9952a;}.i{fill:#e74f65;}</style></defs><g id="a"/><g id="b"><g id="c"><g><g><g><path class="d" d="M94.98,65.3c-10.72,0-16.15-4.24-16.15-12.6,0-.68,.05-1.52,.16-2.5,.02-.15,.13-.27,.27-.3l5.95-1.31s.05,0,.07,0c.09,0,.18,.04,.25,.11,.08,.09,.12,.21,.09,.33-.45,1.77-.67,3.32-.67,4.62,0,5.09,2.85,7.57,8.72,7.57,4.65,0,6.91-1.75,6.91-5.36,0-2.65-2.85-5.05-8.47-7.12-8.49-3.12-12.79-8.19-12.79-15.07,0-3.91,1.45-7.11,4.32-9.51,2.84-2.38,6.63-3.59,11.24-3.59,9.54,0,14.37,4.36,14.37,12.97,0,.17-.12,.31-.28,.34l-5.73,1.06s-.04,0-.06,0c-.09,0-.18-.04-.25-.11-.08-.08-.11-.2-.09-.32,.24-1.11,.37-2.05,.37-2.79,0-4.76-2.83-7.07-8.66-7.07-4.55,0-6.76,1.56-6.76,4.76,0,2.38,2.59,4.48,7.71,6.25,10.33,3.55,15.57,8.9,15.57,15.91,0,4.12-1.49,7.47-4.42,9.97-2.92,2.49-6.84,3.75-11.66,3.75Z"/><path class="d" d="M94.89,20.91c9.35,0,14.03,4.21,14.03,12.62l-5.73,1.06c.25-1.14,.37-2.1,.37-2.87,0-4.95-3-7.42-9.01-7.42-4.74,0-7.11,1.7-7.11,5.11,0,2.56,2.65,4.75,7.95,6.58,10.22,3.51,15.33,8.71,15.33,15.58,0,4.03-1.43,7.27-4.3,9.71-2.87,2.44-6.68,3.66-11.44,3.66-10.53,0-15.8-4.08-15.8-12.25,0-.67,.05-1.49,.16-2.46l5.95-1.31c-.46,1.81-.69,3.38-.69,4.71,0,5.28,3.02,7.92,9.07,7.92,4.84,0,7.26-1.9,7.26-5.7,0-2.82-2.9-5.31-8.7-7.45-8.37-3.08-12.56-7.99-12.56-14.74,0-3.82,1.4-6.9,4.19-9.24,2.79-2.34,6.47-3.51,11.02-3.51m-9.6,28.02h0m9.59-28.72c-4.7,0-8.55,1.23-11.46,3.67-2.95,2.47-4.44,5.75-4.44,9.78,0,7.04,4.38,12.22,13.02,15.4,5.47,2.02,8.24,4.31,8.24,6.8,0,2.15-.68,5.01-6.57,5.01s-8.37-2.36-8.37-7.22c0-1.25,.22-2.76,.65-4.47,.03-.07,.04-.15,.04-.23,0-.38-.31-.7-.69-.7h-.04s-.09,0-.13,.02l-5.94,1.31c-.29,.06-.51,.31-.54,.61-.11,1-.16,1.85-.16,2.54,0,8.59,5.55,12.94,16.5,12.94,4.91,0,8.91-1.29,11.89-3.83,3.02-2.57,4.55-6.01,4.55-10.24,0-7.17-5.32-12.64-15.8-16.24-4.96-1.71-7.48-3.7-7.48-5.92,0-1.9,.66-4.41,6.41-4.41s8.31,2.2,8.31,6.72c0,.72-.12,1.63-.36,2.72-.05,.23,.02,.47,.18,.63,.13,.14,.31,.21,.5,.21,.04,0,.08,0,.13-.01l5.73-1.06c.33-.06,.57-.35,.57-.68,0-8.84-4.95-13.32-14.72-13.32h0Z"/></g><g><path class="d" d="M129.67,65.2c-10.53,0-15.87-5.41-15.87-16.09,0-5.33,1.55-9.64,4.62-12.82,3.07-3.18,7.23-4.8,12.37-4.8,7.49,0,11.29,3.45,11.29,10.26,0,.13-.08,.26-.2,.31l-5.33,2.59s-.1,.03-.15,.03c-.07,0-.13-.02-.19-.06-.1-.07-.16-.18-.16-.3l.06-2.99c0-4.29-1.36-6.38-4.17-6.38-3.74,0-5.64,4.33-5.64,12.87,0,5.37,.42,9.1,1.25,11.07,.8,1.9,2.24,2.83,4.42,2.83,4.02,0,5.98-2.57,5.98-7.85,0-.75-.12-1.99-.37-3.69-.02-.12,.03-.24,.12-.31,.06-.05,.14-.08,.23-.08,.03,0,.07,0,.1,.01l4.8,1.46c.14,.04,.24,.17,.25,.32l.03,1.28c0,8.18-4.52,12.33-13.44,12.33Z"/><path class="d" d="M130.79,31.85c7.29,0,10.94,3.3,10.94,9.91l-5.33,2.59,.06-2.99c0-4.49-1.51-6.73-4.52-6.73-3.99,0-5.98,4.41-5.98,13.22,0,5.44,.43,9.18,1.28,11.2,.85,2.03,2.43,3.04,4.74,3.04,4.22,0,6.33-2.73,6.33-8.2,0-.77-.13-2.02-.37-3.74l4.8,1.46,.03,1.28c0,7.98-4.36,11.97-13.09,11.97-10.35,0-15.52-5.25-15.52-15.74,0-5.26,1.51-9.45,4.52-12.57,3.01-3.13,7.05-4.69,12.12-4.69m0-.7c-5.24,0-9.49,1.65-12.63,4.9-3.13,3.25-4.71,7.64-4.71,13.06,0,10.91,5.46,16.44,16.22,16.44,9.15,0,13.79-4.26,13.79-12.66l-.03-1.29c0-.3-.21-.56-.49-.65l-4.8-1.46c-.07-.02-.14-.03-.2-.03-.16,0-.33,.06-.45,.17-.18,.16-.27,.39-.24,.63,.24,1.69,.37,2.91,.37,3.64,0,5.05-1.84,7.5-5.63,7.5-2.02,0-3.36-.85-4.1-2.61-.81-1.93-1.22-5.61-1.22-10.93,0-8.31,1.78-12.52,5.29-12.52,.95,0,3.82,0,3.82,6.04l-.06,2.98c0,.24,.12,.47,.32,.6,.11,.07,.24,.11,.38,.11,.1,0,.21-.02,.3-.07l5.33-2.59c.24-.12,.39-.36,.39-.63,0-7.04-3.91-10.61-11.64-10.61h0Z"/></g><g><path class="d" d="M164.95,64.52c-.19,0-.35-.16-.35-.35v-23.87c0-2.12-.83-2.36-1.46-2.36-1.09,0-2.16,1.1-3.17,3.27-1.05,2.26-1.59,4.72-1.59,7.32v15.65c0,.19-.16,.35-.35,.35h-11.38c-.19,0-.35-.16-.35-.35V21.63c0-.19,.16-.35,.35-.35,3.34,0,7.16-.22,11.34-.65,.01,0,.02,0,.04,0,.09,0,.17,.03,.23,.09,.07,.07,.11,.16,.11,.26v15.98c2.46-3.56,5.83-5.36,10.03-5.36,5.48,0,8.27,2.51,8.27,7.45v25.12c0,.19-.16,.35-.35,.35h-11.38Z"/><path class="d" d="M158.03,20.97v17.17c2.45-4.13,5.91-6.2,10.38-6.2,5.28,0,7.92,2.37,7.92,7.11v25.12h-11.38v-23.87c0-1.81-.6-2.71-1.81-2.71s-2.41,1.16-3.49,3.47c-1.08,2.32-1.62,4.8-1.62,7.47v15.65h-11.38V21.63c3.37,0,7.16-.22,11.38-.65m0-.7s-.05,0-.07,0c-4.17,.43-7.97,.65-11.3,.65-.38,0-.7,.31-.7,.7v42.54c0,.38,.31,.7,.7,.7h11.38c.38,0,.7-.31,.7-.7v-15.65c0-2.54,.52-4.96,1.56-7.17,.65-1.4,1.68-3.07,2.86-3.07,.33,0,1.11,0,1.11,2.02v23.87c0,.38,.31,.7,.7,.7h11.38c.38,0,.7-.31,.7-.7v-25.12c0-5.1-2.98-7.8-8.61-7.8-3.97,0-7.22,1.56-9.68,4.66v-14.93c0-.2-.08-.39-.23-.52-.13-.12-.29-.18-.47-.18h0Z"/></g><g><path class="d" d="M196.96,65.23c-10.65,0-16.06-5.39-16.06-16.03,0-5.13,1.43-9.4,4.26-12.69,2.84-3.31,6.53-4.98,10.95-4.98,9.27,0,13.97,6.03,13.97,17.93,0,.19-.16,.35-.35,.35h-16.23c.06,7.73,2.05,11.65,5.91,11.65s5.51-2.17,5.51-6.63c0-.62-.02-1.33-.06-2.13,0-.11,.04-.22,.13-.29,.06-.05,.14-.07,.22-.07,.03,0,.07,0,.1,.01l4.58,1.34c.16,.05,.26,.19,.25,.36-.49,7.43-4.93,11.2-13.19,11.2Zm2.61-19.65c-.03-6.72-1.05-10.28-2.95-10.28-1.77,0-2.78,2.62-3.02,7.8l-.11,2.47h6.08Z"/><path class="d" d="M196.12,31.88c9.08,0,13.62,5.86,13.62,17.58h-16.58c0,8.23,2.09,12.34,6.26,12.34,3.91,0,5.86-2.33,5.86-6.98,0-.62-.02-1.34-.06-2.15l4.58,1.34c-.48,7.25-4.76,10.88-12.84,10.88-10.47,0-15.71-5.23-15.71-15.68,0-5.07,1.39-9.23,4.18-12.47,2.78-3.24,6.35-4.86,10.69-4.86m-2.99,14.06h6.79c0-7.31-1.1-10.97-3.3-10.97-2,0-3.12,2.71-3.37,8.13l-.13,2.84m2.99-14.75c-4.53,0-8.31,1.72-11.22,5.1-2.88,3.36-4.34,7.7-4.34,12.92,0,10.86,5.52,16.37,16.4,16.37,8.48,0,13.03-3.88,13.53-11.53,.02-.33-.19-.62-.5-.71l-4.58-1.34c-.06-.02-.13-.03-.2-.03-.15,0-.31,.05-.43,.15-.18,.14-.28,.36-.26,.58,.04,.79,.06,1.51,.06,2.12,0,4.29-1.64,6.28-5.16,6.28s-5.45-3.68-5.56-10.95h15.88c.38,0,.7-.31,.7-.7,0-12.13-4.82-18.27-14.32-18.27h0Zm-2.26,14.06l.09-2.11c.22-4.82,1.17-7.47,2.67-7.47,.76,0,2.51,.95,2.6,9.58h-5.37Z"/></g><g><path class="d" d="M223.74,65.23c-7.26,0-10.95-5.59-10.95-16.62s3.89-17.08,11.57-17.08c2.71,0,4.96,1.07,6.7,3.19v-13.1c0-.19,.16-.35,.35-.35,3.4,0,7.22-.22,11.34-.65,.01,0,.02,0,.04,0,.09,0,.17,.03,.23,.09,.07,.07,.12,.16,.12,.26v43.2c0,.19-.16,.35-.35,.35h-11.38c-.19,0-.35-.16-.35-.35v-1.81c-1.9,1.91-4.36,2.88-7.32,2.88Zm4.3-28.42c-.62,0-2.52,0-2.52,4.92l-.22,6.68,.12,6.06c0,3.69,.95,5.49,2.89,5.49s2.8-1.76,2.8-5.39l.16-7.67-.25-5.21c-.31-3.23-1.31-4.87-2.99-4.87Z"/><path class="d" d="M242.78,20.97v43.2h-11.38v-2.71c-1.91,2.29-4.47,3.43-7.67,3.43-7.07,0-10.6-5.42-10.6-16.27s3.74-16.74,11.22-16.74c2.95,0,5.3,1.3,7.04,3.9v-14.15c3.43,0,7.22-.22,11.38-.65m-14.46,39.33c2.1,0,3.15-1.91,3.15-5.73l.16-7.67-.25-5.24c-.33-3.47-1.44-5.2-3.33-5.2s-2.87,1.76-2.87,5.27l-.22,6.67,.12,6.08c0,3.89,1.08,5.83,3.24,5.83m14.46-40.03s-.05,0-.07,0c-4.11,.43-7.91,.65-11.3,.65-.38,0-.7,.31-.7,.7v12.18c-1.71-1.74-3.83-2.62-6.35-2.62-7.91,0-11.92,5.87-11.92,17.43s3.8,16.97,11.29,16.97c2.76,0,5.1-.81,6.97-2.43v1.01c0,.38,.31,.7,.7,.7h11.38c.38,0,.7-.31,.7-.7V20.97c0-.2-.08-.39-.23-.52-.13-.12-.29-.18-.47-.18h0Zm-14.46,39.33c-.63,0-2.55,0-2.55-5.13l-.12-6.09,.22-6.63c0-4.59,1.63-4.59,2.17-4.59,1.46,0,2.35,1.54,2.64,4.57l.25,5.2-.16,7.62c0,5.05-1.84,5.05-2.45,5.05h0Z"/></g><g><path class="d" d="M257.37,65.11c-5.75,0-8.67-2.84-8.67-8.45v-23.91c0-.19,.15-.34,.33-.35,3.79-.16,7.61-.44,11.36-.81,.01,0,.02,0,.03,0,.09,0,.17,.03,.23,.09,.07,.07,.11,.16,.11,.26v24.44c0,2.83,1.19,2.83,1.58,2.83,3.16,0,4.76-3.57,4.76-10.62v-15.83c0-.19,.15-.34,.33-.35,3.77-.16,7.59-.44,11.36-.81h.03c.09,0,.17,.03,.23,.09,.07,.07,.11,.16,.11,.26v32.23c0,.19-.16,.35-.35,.35h-11.38c-.19,0-.35-.16-.35-.35v-3.97c-2.58,3.26-5.86,4.91-9.75,4.91Z"/><path class="d" d="M278.84,31.94v32.23h-11.38v-5.02c-2.62,3.74-5.98,5.61-10.1,5.61-5.55,0-8.32-2.7-8.32-8.1v-23.91c3.82-.17,7.61-.44,11.38-.81v24.44c0,2.12,.64,3.18,1.93,3.18,3.41,0,5.11-3.66,5.11-10.97v-15.83c3.8-.17,7.59-.44,11.38-.81m-18.42-.7s-.05,0-.07,0c-3.74,.37-7.55,.64-11.34,.81-.37,.02-.67,.32-.67,.7v23.91c0,5.76,3.12,8.8,9.02,8.8,3.7,0,6.85-1.45,9.4-4.3v3.01c0,.38,.31,.7,.7,.7h11.38c.38,0,.7-.31,.7-.7V31.94c0-.2-.08-.38-.23-.52-.13-.12-.3-.18-.47-.18-.02,0-.05,0-.07,0-3.76,.37-7.57,.64-11.34,.81-.37,.02-.67,.32-.67,.7v15.83c0,6.82-1.49,10.27-4.42,10.27-.34,0-1.23,0-1.23-2.48V31.94c0-.2-.08-.38-.23-.52-.13-.12-.3-.18-.47-.18h0Z"/></g><g><path class="d" d="M285.13,64.52c-.19,0-.35-.16-.35-.35V21.63c0-.19,.16-.35,.35-.35,3.11,0,6.92-.21,11.34-.62h.03c.09,0,.17,.03,.23,.09,.07,.07,.11,.16,.11,.26v43.17c0,.19-.16,.35-.35,.35h-11.38Z"/><path class="d" d="M296.51,21v43.17h-11.38V21.63c3.14,0,6.93-.21,11.38-.62m0-.7s-.04,0-.06,0c-4.41,.41-8.22,.62-11.31,.62-.38,0-.7,.31-.7,.7v42.54c0,.38,.31,.7,.7,.7h11.38c.38,0,.7-.31,.7-.7V21c0-.2-.08-.38-.23-.51-.13-.12-.3-.18-.47-.18h0Z"/></g><g><path class="d" d="M316.99,65.23c-10.65,0-16.06-5.39-16.06-16.03,0-5.13,1.43-9.4,4.26-12.69,2.84-3.31,6.53-4.98,10.95-4.98,9.27,0,13.97,6.03,13.97,17.93,0,.19-.16,.35-.35,.35h-16.23c.06,7.73,2.05,11.65,5.92,11.65s5.51-2.17,5.51-6.63c0-.62-.02-1.33-.06-2.13,0-.11,.04-.22,.13-.29,.06-.05,.14-.07,.22-.07,.03,0,.07,0,.1,.01l4.58,1.34c.16,.05,.26,.19,.25,.36-.49,7.43-4.93,11.2-13.19,11.2Zm2.61-19.65c-.03-6.72-1.05-10.28-2.95-10.28-1.77,0-2.78,2.62-3.02,7.8l-.11,2.47h6.08Z"/><path class="d" d="M316.15,31.88c9.08,0,13.62,5.86,13.62,17.58h-16.58c0,8.23,2.09,12.34,6.27,12.34,3.91,0,5.86-2.33,5.86-6.98,0-.62-.02-1.34-.06-2.15l4.58,1.34c-.48,7.25-4.76,10.88-12.84,10.88-10.47,0-15.71-5.23-15.71-15.68,0-5.07,1.39-9.23,4.18-12.47,2.78-3.24,6.35-4.86,10.69-4.86m-2.99,14.06h6.79c0-7.31-1.1-10.97-3.3-10.97-2,0-3.12,2.71-3.37,8.13l-.13,2.84m2.99-14.75c-4.53,0-8.31,1.72-11.22,5.1-2.88,3.36-4.34,7.7-4.34,12.92,0,10.86,5.52,16.37,16.4,16.37,8.48,0,13.03-3.88,13.54-11.53,.02-.33-.19-.62-.5-.71l-4.58-1.34c-.06-.02-.13-.03-.2-.03-.15,0-.31,.05-.43,.15-.18,.14-.28,.36-.26,.58,.04,.82,.06,1.52,.06,2.12,0,4.29-1.64,6.28-5.16,6.28s-5.45-3.68-5.56-10.95h15.88c.38,0,.7-.31,.7-.7,0-12.13-4.82-18.27-14.32-18.27h0Zm-2.26,14.06l.09-2.11c.22-4.82,1.17-7.47,2.67-7.47,.76,0,2.51,.95,2.6,9.58h-5.37Z"/></g></g><g><g><path class="i" d="M4.09,27.12c.08-4.02,1.65-6.97,4.98-8.9C18.87,12.56,28.67,6.9,38.47,1.25,42.6-1.13,47.9,0,50.85,3.72c3.39,4.28,2.25,11.27-2.85,14.19-5.89,3.37-11.76,6.78-17.63,10.17-3.9,2.25-7.8,4.5-11.7,6.76-5.79,3.35-12.85,.29-14.34-6.23-.13-.56-.18-1.13-.24-1.5Z"/><path class="e" d="M4.16,28.02s3.25,8.3,14.44,2.89c11.19-5.42,27.2-14.32,30.57-18.05s2.17-8.43,2.17-8.43c0,0,3.61,5.06-.36,11.19,0,0-2.29,2.53-6.5,4.45,0,0-25.03,14.8-26.72,15.41s-11.19,3.49-13.6-7.46Z"/></g><g><path class="d" d="M0,76.71c.08-4.02,1.65-6.97,4.98-8.9,9.8-5.66,19.59-11.32,29.4-16.97,4.13-2.38,9.43-1.25,12.38,2.47,3.39,4.28,2.25,11.27-2.85,14.19-5.89,3.37-11.76,6.78-17.63,10.17-3.9,2.25-7.8,4.5-11.7,6.76-5.79,3.35-12.85,.29-14.34-6.23-.13-.56-.18-1.13-.24-1.5Z"/><path class="g" d="M.07,77.6s3.25,8.3,14.44,2.89c11.19-5.42,27.2-14.32,30.57-18.05,3.37-3.73,2.17-8.43,2.17-8.43,0,0,3.61,5.06-.36,11.19,0,0-2.29,2.53-6.5,4.45,0,0-25.03,14.8-26.72,15.41S2.47,88.56,.07,77.6Z"/></g><g><path class="h" d="M25.01,52.94c-3.1-.07-5.9-1.74-7.86-4.72-1.1-1.66-1.32-3.61-1.16-5.6,.19-2.47,1.14-4.62,2.97-6.23,1.17-1.03,2.6-1.78,3.94-2.61,1.21-.75,2.45-1.44,3.68-2.14,5.85-3.33,13.08,.19,14.24,6.54,.72,3.96-.98,7.89-4.41,9.98-2.07,1.25-4.17,2.45-6.27,3.63-1.41,.79-2.95,1.15-5.12,1.15Z"/><path class="f" d="M40.81,38.18c-.23-1.28-.71-2.44-1.38-3.46,.18,.49,.32,1,.41,1.53,.72,3.96-.98,7.89-4.41,9.98-2.07,1.25-4.17,2.45-6.27,3.63-1.41,.79-2.95,1.15-5.12,1.15-3.02-.07-5.75-1.65-7.7-4.48,.19,.59,.45,1.15,.8,1.69,1.97,2.98,4.76,4.64,7.86,4.72,2.16,0,3.7-.35,5.12-1.15,2.11-1.18,4.21-2.38,6.27-3.63,3.43-2.08,5.13-6.02,4.41-9.98Z"/></g></g></g></g></g></svg>