<?xml version="1.0" encoding="UTF-8"?><svg xmlns="http://www.w3.org/2000/svg" viewBox="0 0 217.09 86"><defs><style>.d{fill:#6c57fc;}.e{fill:#f95458;}.f{fill:#f7b040;}</style></defs><g id="a"/><g id="b"><g id="c"><g><g><g><path class="d" d="M73.72,56.62c-.14,0-.25-.11-.25-.25V25.82c0-.14,.11-.25,.25-.25h8.86c.14,0,.25,.11,.25,.25v27.23h12.3c.14,0,.25,.11,.25,.25v3.07c0,.14-.11,.25-.25,.25h-21.42Z"/><path class="d" d="M82.59,25.82v27.48h12.55v3.07h-21.42V25.82h8.86m0-.5h-8.86c-.28,0-.5,.22-.5,.5v30.55c0,.28,.22,.5,.5,.5h21.42c.28,0,.5-.22,.5-.5v-3.07c0-.28-.22-.5-.5-.5h-12.05V25.82c0-.28-.22-.5-.5-.5h0Z"/></g><g><path class="d" d="M96.73,56.62c-.14,0-.25-.11-.25-.25v-22.54c0-.14,.11-.25,.25-.25,2.53,0,5.27-.2,8.13-.6,.01,0,.02,0,.03,0,.06,0,.12,.02,.16,.06,.05,.05,.09,.12,.09,.19v23.14c0,.14-.11,.25-.25,.25h-8.17Zm4.14-25.4c-2.69,0-4.05-1.08-4.05-3.2s1.36-3.2,4.05-3.2,4.05,1.08,4.05,3.2-1.36,3.2-4.05,3.2Z"/><path class="d" d="M100.87,25.06c2.54,0,3.8,.98,3.8,2.95s-1.27,2.95-3.8,2.95-3.8-.99-3.8-2.95,1.27-2.95,3.8-2.95m4.03,8.17v23.14h-8.17v-22.54c2.55,0,5.27-.2,8.17-.6m-4.03-8.67c-3.56,0-4.3,1.88-4.3,3.45s.75,3.45,4.3,3.45,4.3-1.88,4.3-3.45-.75-3.45-4.3-3.45h0Zm4.03,8.17s-.05,0-.07,0c-2.86,.4-5.58,.6-8.1,.6-.28,0-.5,.22-.5,.5v22.54c0,.28,.22,.5,.5,.5h8.17c.28,0,.5-.22,.5-.5v-23.14c0-.14-.06-.28-.17-.38-.09-.08-.21-.12-.33-.12h0Z"/></g><g><path class="d" d="M121.17,57.11c-2.96,0-5.52-1.35-7.64-4.02l-1.83,3.4c-.04,.08-.13,.13-.22,.13h-2.04c-.14,0-.25-.11-.25-.25V25.82c0-.14,.11-.25,.25-.25,1.32,0,4.06-.16,8.15-.47h.02c.06,0,.12,.02,.17,.07,.05,.05,.08,.11,.08,.18v10.15c1.45-1.68,3.08-2.52,4.83-2.52,5.48,0,8.26,3.82,8.26,11.35,0,8.48-3.29,12.78-9.78,12.78Zm-1.01-20.34c-1.63,0-2.46,2.55-2.46,7.58,0,7.41,1.3,8.97,2.39,8.97,1.36,0,2.06-1.53,2.06-4.56l.13-5.53-.16-3.09c-.22-2.23-.88-3.37-1.97-3.37Z"/><path class="d" d="M117.61,25.35v10.85c1.52-1.98,3.21-2.98,5.08-2.98,5.34,0,8.01,3.7,8.01,11.1,0,8.36-3.18,12.53-9.53,12.53-3,0-5.56-1.41-7.68-4.23l-2.01,3.74h-2.04V25.82c1.33,0,4.05-.16,8.17-.47m2.48,28.22c1.54,0,2.31-1.6,2.31-4.81l.13-5.53-.16-3.11c-.24-2.4-.98-3.6-2.22-3.6-1.81,0-2.71,2.61-2.71,7.83,0,6.15,.88,9.22,2.64,9.22m-2.48-28.72h-.04c-4.08,.31-6.82,.47-8.13,.47-.28,0-.5,.22-.5,.5v30.55c0,.28,.22,.5,.5,.5h2.04c.18,0,.35-.1,.44-.26l1.65-3.07c2.12,2.54,4.67,3.82,7.6,3.82,6.66,0,10.03-4.38,10.03-13.03,0-7.7-2.86-11.6-8.51-11.6-1.65,0-3.19,.72-4.58,2.13v-9.51c0-.14-.06-.27-.16-.37-.09-.09-.21-.13-.34-.13h0Zm2.48,28.22c-.8,0-2.14-1.13-2.14-8.72,0-4.8,.76-7.33,2.21-7.33,.93,0,1.51,1.06,1.72,3.15l.15,3.09-.13,5.49c0,2.87-.61,4.32-1.81,4.32h0Z"/></g><g><path class="d" d="M134.21,56.62c-.14,0-.25-.11-.25-.25v-22.56c0-.07,.03-.13,.07-.18,.05-.05,.11-.07,.18-.07l1.59,.02c1.86,0,4.06-.2,6.54-.6,.01,0,.03,0,.04,0,.06,0,.12,.02,.16,.06,.06,.05,.09,.12,.09,.19v2.79c1.28-2.02,2.84-3.04,4.63-3.04,2.78,0,4.19,1.54,4.19,4.59,0,.78-.13,1.68-.39,2.68-.09,.4-.23,1-.42,1.81-.03,.11-.13,.19-.24,.19h-5.59c-.08,0-.15-.03-.19-.09-.05-.06-.07-.14-.05-.21,.19-.88,.37-1.55,.52-1.98,.2-.58,.3-1.11,.3-1.57,0-1.05-.42-1.18-.78-1.18-.23,0-.7,.22-1.27,1.73-.46,1.23-.7,2.54-.7,3.91v13.52c0,.14-.11,.25-.25,.25h-8.17Z"/><path class="d" d="M147.26,33.23c2.63,0,3.94,1.45,3.94,4.34,0,.76-.13,1.63-.38,2.62-.09,.4-.23,1.01-.42,1.81h-5.59c.19-.88,.37-1.53,.51-1.95,.21-.61,.31-1.16,.31-1.66,0-.95-.34-1.43-1.03-1.43-.52,0-1.02,.63-1.5,1.89s-.72,2.59-.72,3.99v13.52h-8.17v-22.56l1.59,.02c1.88,0,4.07-.2,6.58-.6v3.71c1.33-2.48,2.95-3.71,4.88-3.71m-4.88-.5s-.05,0-.08,0c-2.47,.4-4.65,.6-6.5,.6l-1.58-.02h0c-.13,0-.26,.05-.35,.14-.1,.09-.15,.22-.15,.36v22.56c0,.28,.22,.5,.5,.5h8.17c.28,0,.5-.22,.5-.5v-13.52c0-1.34,.23-2.62,.68-3.82,.58-1.52,.99-1.57,1.03-1.57,.19,0,.53,0,.53,.93,0,.44-.1,.94-.29,1.49-.15,.43-.33,1.11-.53,2-.03,.15,0,.3,.1,.42,.09,.12,.24,.19,.39,.19h5.59c.23,0,.43-.16,.49-.38,.19-.81,.34-1.42,.43-1.82,.26-1,.39-1.93,.39-2.73,0-4-2.41-4.84-4.44-4.84-1.67,0-3.14,.84-4.38,2.49v-1.99c0-.15-.06-.29-.18-.38-.09-.08-.21-.12-.32-.12h0Z"/></g><g><path class="d" d="M159.64,57.09c-4.9,0-7.39-2.31-7.39-6.87,0-3.46,2.26-5.92,6.71-7.31,3.86-1.21,5.82-2.65,5.82-4.28,0-2.17-1.05-3.22-3.2-3.22-2.51,0-3.73,1.02-3.73,3.11,0,.67,.21,1.57,.61,2.69,.03,.08,.01,.18-.04,.25-.05,.06-.12,.09-.19,.09-.02,0-.03,0-.05,0l-4.05-.78c-.1-.02-.18-.1-.2-.21-.11-.71-.16-1.39-.16-2.01,0-3.73,3.38-5.62,10.05-5.62s9.56,1.77,9.56,5.26v13.7c0,1.66,.64,1.85,1.12,1.85,.16,0,.49-.08,1.13-.44,.04-.02,.08-.03,.12-.03,.03,0,.06,0,.08,.01,.07,.02,.12,.08,.15,.15l.78,2.06c.05,.13-.01,.27-.14,.32-2.02,.78-4.01,1.18-5.93,1.18-2.69,0-4.46-.8-5.25-2.39-1.39,1.66-3.34,2.5-5.8,2.5Zm5.08-13.66c-.42,.4-.89,.75-1.39,1.05-1.62,.94-2.4,2.5-2.4,4.75,0,1.93,.26,4.23,1.5,4.23,1.55,0,2.3-1.37,2.3-4.18v-5.84Z"/><path class="d" d="M163.82,33.16c6.21,0,9.31,1.67,9.31,5.01v13.7c0,1.4,.46,2.1,1.37,2.1,.28,0,.7-.16,1.25-.47l.78,2.06c-2,.78-3.95,1.16-5.84,1.16-2.8,0-4.54-.87-5.19-2.62-1.36,1.82-3.31,2.73-5.86,2.73-4.76,0-7.14-2.21-7.14-6.62,0-3.36,2.18-5.71,6.54-7.07,4-1.25,6-2.76,6-4.52,0-2.31-1.15-3.47-3.45-3.47-2.66,0-3.98,1.12-3.98,3.36,0,.7,.21,1.63,.63,2.77l-4.05-.78c-.1-.7-.16-1.36-.16-1.97,0-3.58,3.27-5.37,9.8-5.37m-1.41,20.54c1.7,0,2.55-1.48,2.55-4.43v-6.47c-.51,.58-1.1,1.07-1.77,1.45-1.69,.98-2.53,2.64-2.53,4.97,0,2.98,.58,4.48,1.75,4.48m1.41-21.04c-6.84,0-10.3,1.98-10.3,5.87,0,.63,.05,1.32,.16,2.04,.03,.21,.19,.38,.4,.42l4.05,.78s.06,0,.09,0c.14,0,.28-.06,.38-.18,.12-.14,.15-.33,.09-.5-.4-1.09-.6-1.96-.6-2.6,0-1.23,.36-2.86,3.48-2.86,2.01,0,2.95,.94,2.95,2.97,0,1.49-1.95,2.89-5.65,4.04-4.57,1.42-6.89,3.96-6.89,7.55,0,4.73,2.57,7.12,7.64,7.12,2.41,0,4.34-.78,5.76-2.32,.91,1.47,2.68,2.21,5.3,2.21,1.95,0,3.98-.4,6.02-1.2,.26-.1,.38-.39,.29-.64l-.78-2.06c-.05-.14-.16-.24-.3-.29-.05-.02-.11-.03-.17-.03-.09,0-.17,.02-.25,.07-.64,.37-.92,.4-1.01,.4-.26,0-.87,0-.87-1.6v-13.7c0-3.66-3.3-5.51-9.81-5.51h0Zm-1.41,20.54c-1.08,0-1.25-2.49-1.25-3.98,0-2.16,.75-3.64,2.28-4.54,.36-.21,.7-.44,1.02-.7v5.29c0,3.93-1.54,3.93-2.05,3.93h0Z"/></g><g><path class="d" d="M178.08,56.62c-.14,0-.25-.11-.25-.25v-22.56c0-.07,.03-.13,.07-.18,.05-.05,.11-.07,.18-.07l1.59,.02c1.86,0,4.06-.2,6.54-.6,.01,0,.03,0,.04,0,.06,0,.12,.02,.16,.06,.06,.05,.09,.12,.09,.19v2.79c1.29-2.02,2.84-3.04,4.63-3.04,2.78,0,4.19,1.54,4.19,4.59,0,.78-.13,1.68-.39,2.68-.09,.4-.23,1-.42,1.81-.03,.11-.13,.19-.24,.19h-5.59c-.08,0-.15-.03-.2-.09-.05-.06-.07-.14-.05-.21,.2-.9,.37-1.55,.52-1.98,.2-.58,.3-1.11,.3-1.57,0-1.05-.42-1.18-.78-1.18-.23,0-.7,.22-1.27,1.73-.46,1.23-.7,2.54-.7,3.91v13.52c0,.14-.11,.25-.25,.25h-8.17Z"/><path class="d" d="M191.13,33.23c2.63,0,3.94,1.45,3.94,4.34,0,.76-.13,1.63-.38,2.62-.09,.4-.23,1.01-.43,1.81h-5.59c.19-.88,.37-1.53,.51-1.95,.21-.61,.31-1.16,.31-1.66,0-.95-.34-1.43-1.03-1.43-.52,0-1.02,.63-1.5,1.89s-.72,2.59-.72,3.99v13.52h-8.17v-22.56l1.59,.02c1.88,0,4.07-.2,6.58-.6v3.71c1.33-2.48,2.95-3.71,4.88-3.71m-4.88-.5s-.05,0-.08,0c-2.47,.4-4.65,.6-6.5,.6l-1.58-.02h0c-.13,0-.26,.05-.35,.14-.1,.09-.15,.22-.15,.36v22.56c0,.28,.22,.5,.5,.5h8.17c.28,0,.5-.22,.5-.5v-13.52c0-1.34,.23-2.62,.68-3.82,.58-1.52,.99-1.57,1.03-1.57,.18,0,.53,0,.53,.93,0,.44-.1,.94-.29,1.49-.15,.43-.33,1.09-.53,2-.03,.15,0,.3,.1,.42,.09,.12,.24,.19,.39,.19h5.59c.23,0,.43-.16,.49-.38,.2-.81,.34-1.42,.43-1.82,.26-1.01,.39-1.93,.39-2.73,0-4-2.41-4.84-4.44-4.84-1.67,0-3.14,.84-4.38,2.49v-1.99c0-.15-.06-.29-.18-.38-.09-.08-.21-.12-.32-.12h0Z"/></g><g><path class="d" d="M200.53,64.77c-2.43,0-4.1-1.05-4.98-3.13-.04-.11-.01-.23,.08-.3l2.82-2.04s.09-.05,.15-.05c.03,0,.07,0,.1,.02,.08,.04,.14,.11,.15,.2,.21,1.59,.75,2.36,1.65,2.36,1.06,0,1.94-.95,2.63-2.81l.57-1.52-9.05-23.59c-.03-.08-.02-.16,.03-.23s.12-.11,.21-.11h8.97c.11,0,.2,.07,.24,.17l4.32,12.62,4.92-12.63c.04-.1,.13-.16,.23-.16h3.02c.08,0,.16,.04,.21,.11,.05,.07,.06,.16,.02,.23l-10.34,25.47c-1.45,3.58-3.46,5.39-5.96,5.39Z"/><path class="d" d="M216.59,33.81l-10.34,25.47c-1.42,3.49-3.33,5.24-5.73,5.24s-3.91-.99-4.75-2.98l2.82-2.04c.22,1.72,.86,2.57,1.9,2.57,1.18,0,2.13-.99,2.86-2.98l.6-1.61-9.09-23.68h8.97l4.54,13.27,5.17-13.27h3.02m0-.5h-3.02c-.21,0-.39,.13-.47,.32l-4.67,12-4.1-11.98c-.07-.2-.26-.34-.47-.34h-8.97c-.16,0-.32,.08-.41,.22-.09,.14-.11,.31-.05,.46l9.02,23.5-.54,1.43c-.65,1.76-1.45,2.65-2.4,2.65-.28,0-1.13,0-1.41-2.14-.02-.17-.14-.32-.3-.39-.06-.03-.13-.04-.2-.04-.1,0-.21,.03-.29,.09l-2.82,2.04c-.19,.14-.26,.38-.17,.6,.92,2.18,2.67,3.28,5.21,3.28s4.7-1.87,6.19-5.55l10.34-25.47c.06-.15,.04-.33-.05-.47s-.25-.22-.41-.22h0Zm0,1h0Z"/></g></g><g><path class="e" d="M10.42,86c-.91-.47-1.7-.88-2.49-1.29-2.47-1.29-4.93-2.59-7.4-3.86C.12,80.64,0,80.4,0,79.96,0,54.4,0,28.83,0,3.27c0-.18,.02-.35,.03-.63,.45,.22,.83,.4,1.2,.6,2.94,1.54,5.87,3.08,8.81,4.61,.29,.15,.4,.32,.4,.65,0,25.63,0,51.26,0,76.89,0,.16-.01,.32-.03,.61Z"/><path class="d" d="M19.59,84.27c-.85-.44-1.62-.83-2.38-1.22-1.12-.58-2.23-1.18-3.35-1.74-.29-.15-.41-.32-.41-.65,.05-6.56,.08-13.11,.12-19.67,.01-2.03,.03-4.05,.04-6.08,.02-2.26,.03-4.51,.04-6.77,.02-3.37,.05-6.74,.07-10.11,.02-3.1,.01-6.21,.03-9.31,.03-6.47,.07-12.95,.12-19.42,0-.61,.05-1.23,.03-1.84,0-.18-.16-.44-.32-.52-1.67-.88-3.35-1.75-5.04-2.59-.38-.19-.53-.41-.52-.84,.03-1,0-1.99,.01-2.99,0-.14,.02-.28,.04-.51,.65,.3,1.23,.56,1.81,.84,3.23,1.54,6.46,3.09,9.69,4.62,.26,.12,.37,.26,.37,.56-.03,6.58-.04,13.15-.06,19.73,0,2.96-.03,5.91-.05,8.87-.03,6.51-.05,13.02-.07,19.52,0,1.26-.02,2.52-.02,3.79-.02,4.96-.04,9.93-.06,14.89-.02,3.64-.04,7.27-.06,10.91,0,.15-.01,.29-.03,.55Z"/><path class="f" d="M21.58,65.11c.19,.08,.32,.12,.44,.19,1.8,.99,3.59,2,5.39,2.98,.29,.16,.39,.35,.39,.67,0,4.05,0,8.1,0,12.15,0,.13-.02,.25-.05,.48-.68-.36-1.31-.69-1.92-1.02-1.27-.68-2.53-1.37-3.8-2.04-.3-.16-.49-.32-.49-.71,.02-4.08,0-8.16,.01-12.25,0-.12,.02-.25,.04-.45Z"/><path class="f" d="M24.59,62.72c1.1,.55,2.06,1.03,3.01,1.52,2.38,1.2,4.76,2.4,7.14,3.6,.26,.13,.46,.26,.45,.62-.06,3.25-.11,6.5-.16,9.75,0,.08-.02,.16-.05,.33-.55-.2-1.07-.38-1.59-.57-1.26-.45-2.52-.92-3.78-1.36-.24-.08-.33-.18-.33-.46,.03-2.49,.03-4.98,.06-7.47,0-.38-.1-.6-.45-.78-1.32-.69-2.62-1.42-3.94-2.12-.27-.14-.38-.32-.37-.62,.02-.77,0-1.55,0-2.45Z"/><path class="f" d="M31.04,62.57c1.24,.56,2.34,1.05,3.44,1.55,1.54,.7,3.07,1.4,4.61,2.09,.31,.14,.45,.31,.45,.67-.04,3.19-.07,6.37-.11,9.56,0,.11-.04,.21-.07,.38-.9-.46-1.73-.91-2.6-1.31-.44-.2-.59-.46-.58-.95,.05-2.39,.06-4.78,.11-7.17,0-.4-.14-.58-.48-.74-1.46-.67-2.9-1.38-4.36-2.06-.29-.14-.44-.3-.42-.64,.03-.42,0-.85,0-1.38Z"/></g></g></g></g></svg>