<?xml version="1.0" encoding="UTF-8"?><svg xmlns="http://www.w3.org/2000/svg" viewBox="0 0 395.58 85.49"><defs><style>.e{fill:#f95458;}.f{isolation:isolate;}.g{fill:#f7b040;}.h{fill:#5b5ffb;}</style></defs><g id="a"/><g id="b"><g id="c"><g><g id="d"><g class="f"><g><path class="h" d="M82.44,56.37c-.14,0-.25-.11-.25-.25V25.57c0-.14,.11-.25,.25-.25h13.58c7.13,0,10.75,2.61,10.75,7.75,0,3.38-1.87,5.67-5.55,6.81,4.55,1.18,6.85,3.91,6.85,8.12,0,5.56-3.54,8.37-10.52,8.37h-15.11Zm11.39-3.03c3.17,0,4.72-1.78,4.72-5.43,0-4.21-1.59-6.26-4.87-6.26h-2.12v11.7h2.28Zm.2-14.73c2.38,0,3.53-1.75,3.53-5.34,0-3.31-1.23-4.92-3.76-4.92h-2.26v10.26h2.48Z"/><path class="h" d="M96.03,25.57c7,0,10.5,2.5,10.5,7.5,0,3.55-2.11,5.83-6.33,6.83,5.09,1.01,7.63,3.71,7.63,8.1,0,5.42-3.42,8.12-10.27,8.12h-15.11V25.57h13.58m-4.72,13.29h2.73c2.52,0,3.78-1.86,3.78-5.59,0-3.45-1.34-5.17-4.01-5.17h-2.51v10.76m0,14.73h2.53c3.31,0,4.97-1.89,4.97-5.68,0-4.34-1.71-6.51-5.12-6.51h-2.37v12.2m4.72-28.52h-13.58c-.28,0-.5,.22-.5,.5v30.55c0,.28,.22,.5,.5,.5h15.11c7.15,0,10.77-2.9,10.77-8.62,0-4.09-2.11-6.83-6.27-8.14,3.3-1.25,4.97-3.52,4.97-6.78,0-5.31-3.7-8-11-8h0Zm-4.22,3.53h2.01c1.51,0,3.51,.48,3.51,4.67,0,5.09-2.47,5.09-3.28,5.09h-2.23v-9.76h0Zm0,13.29h1.87c3.11,0,4.62,1.97,4.62,6.01,0,3.54-1.42,5.18-4.47,5.18h-2.03v-11.2h0Z"/></g><g><path class="h" d="M110.91,56.37c-.14,0-.25-.11-.25-.25v-22.56c0-.07,.03-.13,.07-.18,.05-.05,.11-.07,.18-.07l1.59,.02c1.86,0,4.06-.2,6.54-.6,.01,0,.03,0,.04,0,.06,0,.12,.02,.16,.06,.06,.05,.09,.12,.09,.19v2.79c1.28-2.02,2.84-3.04,4.63-3.04,2.78,0,4.19,1.54,4.19,4.59,0,.78-.13,1.68-.39,2.68-.09,.4-.23,1-.42,1.81-.03,.11-.13,.19-.24,.19h-5.59c-.08,0-.15-.03-.19-.09-.05-.06-.07-.14-.05-.21,.2-.9,.37-1.55,.52-1.98,.2-.58,.3-1.11,.3-1.57,0-1.05-.42-1.18-.78-1.18-.23,0-.7,.22-1.27,1.73-.46,1.23-.7,2.54-.7,3.91v13.52c0,.14-.11,.25-.25,.25h-8.17Z"/><path class="h" d="M123.96,32.98c2.63,0,3.94,1.45,3.94,4.34,0,.76-.13,1.63-.38,2.62-.09,.4-.23,1.01-.43,1.81h-5.59c.19-.88,.37-1.53,.51-1.95,.21-.61,.31-1.16,.31-1.66,0-.95-.34-1.43-1.03-1.43-.52,0-1.02,.63-1.5,1.89-.48,1.26-.72,2.59-.72,3.99v13.52h-8.17v-22.56l1.59,.02c1.88,0,4.07-.2,6.58-.6v3.71c1.33-2.48,2.95-3.71,4.88-3.71m-4.88-.5s-.05,0-.08,0c-2.47,.4-4.65,.6-6.5,.6l-1.58-.02h0c-.13,0-.26,.05-.35,.14-.1,.09-.15,.22-.15,.36v22.56c0,.28,.22,.5,.5,.5h8.17c.28,0,.5-.22,.5-.5v-13.52c0-1.34,.23-2.62,.68-3.82,.58-1.52,.99-1.57,1.03-1.57,.19,0,.53,0,.53,.93,0,.44-.1,.94-.29,1.49-.16,.44-.33,1.09-.53,2-.03,.15,0,.3,.1,.42,.09,.12,.24,.19,.39,.19h5.59c.23,0,.43-.16,.49-.38,.19-.81,.34-1.42,.43-1.82,.26-1,.39-1.93,.39-2.73,0-4-2.41-4.84-4.44-4.84-1.67,0-3.14,.84-4.38,2.49v-1.99c0-.15-.06-.29-.18-.38-.09-.08-.21-.12-.32-.12h0Z"/></g><g><path class="h" d="M130.56,56.37c-.14,0-.25-.11-.25-.25v-22.54c0-.14,.11-.25,.25-.25,2.53,0,5.27-.2,8.13-.6,.01,0,.02,0,.03,0,.06,0,.12,.02,.16,.06,.05,.05,.09,.12,.09,.19v23.14c0,.14-.11,.25-.25,.25h-8.17Zm4.14-25.4c-2.69,0-4.05-1.08-4.05-3.2s1.36-3.2,4.05-3.2,4.05,1.08,4.05,3.2-1.36,3.2-4.05,3.2Z"/><path class="h" d="M134.7,24.81c2.54,0,3.8,.98,3.8,2.95s-1.27,2.95-3.8,2.95-3.8-.99-3.8-2.95,1.27-2.95,3.8-2.95m4.03,8.17v23.14h-8.17v-22.54c2.55,0,5.27-.2,8.17-.6m-4.03-8.67c-3.56,0-4.3,1.88-4.3,3.45s.75,3.45,4.3,3.45,4.3-1.88,4.3-3.45-.75-3.45-4.3-3.45h0Zm4.03,8.17s-.05,0-.07,0c-2.86,.4-5.58,.6-8.1,.6-.28,0-.5,.22-.5,.5v22.54c0,.28,.22,.5,.5,.5h8.17c.28,0,.5-.22,.5-.5v-23.14c0-.14-.06-.28-.17-.38-.09-.08-.21-.12-.33-.12h0Z"/></g><g><path class="h" d="M153.56,56.88c-7.65,0-11.53-3.87-11.53-11.51,0-3.68,1.03-6.75,3.06-9.12,2.04-2.37,4.69-3.58,7.87-3.58,6.66,0,10.03,4.33,10.03,12.87,0,.14-.11,.25-.25,.25h-11.65c.04,5.55,1.47,8.36,4.25,8.36s3.96-1.56,3.96-4.76c0-.44-.01-.95-.04-1.53,0-.08,.03-.16,.09-.21,.04-.04,.1-.05,.16-.05,.02,0,.05,0,.07,0l3.29,.96c.11,.03,.19,.14,.18,.26-.35,5.34-3.54,8.04-9.47,8.04Zm1.88-14.11c-.02-4.83-.76-7.38-2.12-7.38-1.27,0-2,1.88-2.17,5.6l-.08,1.78h4.37Z"/><path class="h" d="M152.96,32.93c6.52,0,9.78,4.21,9.78,12.62h-11.91c0,5.91,1.5,8.86,4.5,8.86,2.8,0,4.21-1.67,4.21-5.01,0-.45-.01-.96-.04-1.54l3.29,.96c-.34,5.21-3.42,7.81-9.22,7.81-7.52,0-11.28-3.75-11.28-11.26,0-3.64,1-6.62,3-8.95,2-2.33,4.56-3.49,7.68-3.49m-2.15,10.09h4.88c0-5.25-.79-7.88-2.37-7.88-1.43,0-2.24,1.95-2.42,5.84l-.09,2.04m2.15-10.59c-3.26,0-5.97,1.23-8.06,3.66-2.07,2.41-3.12,5.53-3.12,9.28,0,7.8,3.96,11.76,11.78,11.76,6.09,0,9.36-2.79,9.72-8.28,.02-.23-.13-.45-.36-.51l-3.29-.96s-.09-.02-.14-.02c-.11,0-.22,.04-.31,.11-.13,.1-.2,.26-.19,.42,.03,.57,.04,1.08,.04,1.52,0,3.08-1.18,4.51-3.71,4.51s-3.91-2.64-3.99-7.86h11.4c.28,0,.5-.22,.5-.5,0-8.71-3.46-13.12-10.28-13.12h0Zm-1.63,10.09l.07-1.52c.16-3.46,.84-5.36,1.92-5.36,.55,0,1.81,.68,1.87,6.88h-3.85Z"/></g><g><path class="h" d="M166.63,56.37c-.14,0-.25-.11-.25-.25v-19.78h-2.61c-.14,0-.25-.11-.25-.25v-2.53c0-.14,.11-.25,.25-.25h2.61v-1.76c0-1.91,.69-3.53,2.04-4.79,1.35-1.26,3.06-1.9,5.08-1.9,4.09,0,6.16,1.58,6.16,4.68,0,.23,0,.51-.02,.86,0,.1-.07,.19-.17,.22l-3.87,1.37s-.05,.01-.08,.01c-.06,0-.12-.02-.17-.07-.07-.06-.1-.16-.07-.25,.2-.75,.3-1.35,.3-1.77,0-1.9-.8-2.12-1.41-2.12-.51,0-1.18,.19-1.18,1.83,0,.77,.65,2.01,1.93,3.69h3.1c.14,0,.25,.11,.25,.25v2.53c0,.14-.11,.25-.25,.25h-2.97v19.78c0,.14-.11,.25-.25,.25h-8.17Z"/><path class="h" d="M173.5,25.1c3.94,0,5.91,1.48,5.91,4.43,0,.22,0,.51-.02,.85l-3.87,1.37c.21-.78,.31-1.39,.31-1.83,0-1.58-.55-2.37-1.66-2.37-.96,0-1.43,.69-1.43,2.08,0,.85,.69,2.16,2.06,3.94h3.22v2.53h-3.22v20.03h-8.17v-20.03h-2.86v-2.53h2.86v-2.01c0-1.85,.65-3.39,1.96-4.61,1.31-1.22,2.94-1.83,4.91-1.83m0-.5c-2.09,0-3.86,.66-5.25,1.97-1.4,1.32-2.12,2.99-2.12,4.98v1.51h-2.36c-.28,0-.5,.22-.5,.5v2.53c0,.28,.22,.5,.5,.5h2.36v19.53c0,.28,.22,.5,.5,.5h8.17c.28,0,.5-.22,.5-.5v-19.53h2.72c.28,0,.5-.22,.5-.5v-2.53c0-.28-.22-.5-.5-.5h-2.98c-1.49-1.96-1.81-2.95-1.81-3.44,0-1.58,.65-1.58,.93-1.58,.35,0,1.16,0,1.16,1.87,0,.4-.1,.97-.3,1.71-.05,.18,0,.37,.14,.5,.09,.09,.22,.13,.34,.13,.06,0,.11,0,.17-.03l3.87-1.37c.19-.07,.32-.25,.33-.45,.02-.35,.02-.64,.02-.87,0-2.25-1.11-4.93-6.41-4.93h0Z"/></g><g><rect class="h" x="194.6" y="25.32" width="9.36" height="31.05" rx=".25" ry=".25"/><path class="h" d="M203.72,25.57v30.55h-8.86V25.57h8.86m0-.5h-8.86c-.28,0-.5,.22-.5,.5v30.55c0,.28,.22,.5,.5,.5h8.86c.28,0,.5-.22,.5-.5V25.57c0-.28-.22-.5-.5-.5h0Z"/></g><g><path class="h" d="M221.8,56.37c-.14,0-.25-.11-.25-.25v-16.56c0-2.28-.87-2.28-1.16-2.28-.85,0-1.61,.63-2.26,1.87-.68,1.29-1.02,2.84-1.02,4.62v12.35c0,.14-.11,.25-.25,.25h-8.17c-.14,0-.25-.11-.25-.25v-22.6c0-.14,.11-.25,.25-.25,2.78,0,5.52-.19,8.13-.56,.01,0,.02,0,.04,0,.06,0,.12,.02,.16,.06,.05,.05,.09,.12,.09,.19v3.49c1.99-2.47,4.4-3.72,7.18-3.72,3.94,0,5.93,2.03,5.93,6.02v17.37c0,.14-.11,.25-.25,.25h-8.17Z"/><path class="h" d="M216.85,32.95v4.23c2.03-2.8,4.5-4.21,7.43-4.21,3.79,0,5.68,1.92,5.68,5.77v17.37h-8.17v-16.56c0-1.69-.47-2.53-1.41-2.53s-1.78,.67-2.48,2c-.7,1.34-1.05,2.91-1.05,4.73v12.35h-8.17v-22.6c2.8,0,5.53-.19,8.17-.56m0-.5s-.05,0-.07,0c-2.61,.37-5.33,.55-8.1,.55-.28,0-.5,.22-.5,.5v22.6c0,.28,.22,.5,.5,.5h8.17c.28,0,.5-.22,.5-.5v-12.35c0-1.73,.33-3.25,.99-4.5,.6-1.15,1.29-1.74,2.04-1.74,.23,0,.91,0,.91,2.03v16.56c0,.28,.22,.5,.5,.5h8.17c.28,0,.5-.22,.5-.5v-17.37c0-4.1-2.14-6.27-6.18-6.27-2.66,0-4.98,1.1-6.93,3.29v-2.81c0-.14-.06-.28-.17-.38-.09-.08-.21-.12-.33-.12h0Z"/></g><g><path class="h" d="M241.11,56.61c-4.25,0-6.4-1.85-6.4-5.49v-14.72h-2.48c-.14,0-.25-.11-.25-.25v-2.53c0-.14,.11-.25,.25-.25h2.48v-3.73c0-.11,.08-.21,.18-.24,2.79-.77,5.52-1.89,8.11-3.33,.04-.02,.08-.03,.12-.03s.09,.01,.13,.03c.08,.04,.12,.13,.12,.22v7.09h3.38c.14,0,.25,.11,.25,.25v2.53c0,.14-.11,.25-.25,.25h-3.38v15.71c0,1.25,.52,1.25,.71,1.25,.13,0,.47,0,.58-.79,.02-.12,.12-.22,.25-.22,0,0,2.35,.22,2.35,.22,.07,0,.14,.05,.18,.11,.04,.06,.05,.14,.04,.21-.67,2.47-2.82,3.72-6.37,3.72Z"/><path class="h" d="M243.13,26.28v7.34h3.63v2.53h-3.63v15.96c0,1,.32,1.5,.96,1.5,.46,0,.74-.33,.83-1.01l2.33,.22c-.64,2.36-2.69,3.54-6.13,3.54-4.1,0-6.15-1.75-6.15-5.24v-14.97h-2.73v-2.53h2.73v-3.98c2.82-.78,5.54-1.89,8.17-3.36m0-.5c-.08,0-.17,.02-.24,.06-2.58,1.44-5.29,2.55-8.06,3.31-.22,.06-.37,.26-.37,.48v3.48h-2.23c-.28,0-.5,.22-.5,.5v2.53c0,.28,.22,.5,.5,.5h2.23v14.47c0,2.62,1.15,5.74,6.65,5.74,3.68,0,5.91-1.31,6.61-3.9,.04-.14,.01-.29-.07-.42-.08-.12-.22-.2-.36-.21l-2.33-.22s-.03,0-.05,0c-.25,0-.46,.18-.5,.43-.08,.57-.26,.57-.33,.57-.14,0-.46,0-.46-1v-15.46h3.13c.28,0,.5-.22,.5-.5v-2.53c0-.28-.22-.5-.5-.5h-3.13v-6.84c0-.18-.09-.34-.25-.43-.08-.05-.17-.07-.25-.07h0Z"/></g><g><path class="h" d="M259.58,56.88c-7.65,0-11.53-3.87-11.53-11.51,0-3.68,1.03-6.75,3.06-9.12,2.04-2.37,4.69-3.58,7.87-3.58,6.66,0,10.03,4.33,10.03,12.87,0,.14-.11,.25-.25,.25h-11.66c.04,5.55,1.47,8.36,4.25,8.36s3.96-1.56,3.96-4.76c0-.44-.02-.95-.04-1.53,0-.08,.03-.16,.09-.21,.04-.04,.1-.05,.16-.05,.02,0,.05,0,.07,0l3.29,.96c.11,.03,.19,.14,.18,.26-.35,5.34-3.54,8.04-9.47,8.04Zm1.88-14.11c-.02-4.83-.76-7.38-2.12-7.38-1.27,0-2,1.88-2.17,5.6l-.08,1.78h4.37Z"/><path class="h" d="M258.97,32.93c6.52,0,9.78,4.21,9.78,12.62h-11.91c0,5.91,1.5,8.86,4.5,8.86,2.8,0,4.21-1.67,4.21-5.01,0-.45-.02-.96-.04-1.54l3.29,.96c-.34,5.21-3.42,7.81-9.22,7.81-7.52,0-11.28-3.75-11.28-11.26,0-3.64,1-6.62,3-8.95,2-2.33,4.56-3.49,7.68-3.49m-2.15,10.09h4.88c0-5.25-.79-7.88-2.37-7.88-1.43,0-2.24,1.95-2.42,5.84l-.09,2.04m2.15-10.59c-3.26,0-5.97,1.23-8.06,3.66-2.07,2.41-3.12,5.53-3.12,9.28,0,7.8,3.96,11.76,11.78,11.76,6.09,0,9.36-2.78,9.72-8.28,.02-.23-.13-.45-.36-.51l-3.29-.96s-.09-.02-.14-.02c-.11,0-.22,.04-.31,.11-.13,.1-.2,.26-.19,.42,.03,.59,.04,1.09,.04,1.52,0,3.08-1.18,4.51-3.71,4.51s-3.92-2.64-4-7.86h11.4c.28,0,.5-.22,.5-.5,0-8.71-3.46-13.12-10.28-13.12h0Zm-1.63,10.09l.07-1.52c.16-3.46,.84-5.36,1.92-5.36,.55,0,1.81,.68,1.87,6.88h-3.85Z"/></g><g><path class="h" d="M272.29,56.37c-.14,0-.25-.11-.25-.25v-22.56c0-.07,.03-.13,.07-.18,.05-.05,.11-.07,.18-.07l1.59,.02c1.86,0,4.06-.2,6.54-.6,.01,0,.03,0,.04,0,.06,0,.12,.02,.16,.06,.06,.05,.09,.12,.09,.19v2.79c1.29-2.02,2.84-3.04,4.63-3.04,2.78,0,4.19,1.54,4.19,4.59,0,.78-.13,1.68-.39,2.68-.09,.4-.23,1-.42,1.81-.03,.11-.13,.19-.24,.19h-5.59c-.08,0-.15-.03-.2-.09-.05-.06-.07-.14-.05-.21,.2-.9,.37-1.55,.52-1.98,.2-.58,.3-1.11,.3-1.57,0-1.05-.42-1.18-.78-1.18-.23,0-.7,.22-1.27,1.73-.46,1.23-.7,2.54-.7,3.91v13.52c0,.14-.11,.25-.25,.25h-8.17Z"/><path class="h" d="M285.33,32.98c2.63,0,3.94,1.45,3.94,4.34,0,.76-.13,1.63-.38,2.62-.09,.4-.23,1.01-.43,1.81h-5.59c.19-.88,.37-1.53,.51-1.95,.21-.61,.31-1.16,.31-1.66,0-.95-.34-1.43-1.03-1.43-.52,0-1.02,.63-1.5,1.89-.48,1.26-.72,2.59-.72,3.99v13.52h-8.17v-22.56l1.59,.02c1.88,0,4.07-.2,6.58-.6v3.71c1.33-2.48,2.95-3.71,4.88-3.71m-4.88-.5s-.05,0-.08,0c-2.47,.4-4.65,.6-6.5,.6l-1.58-.02h0c-.13,0-.26,.05-.35,.14-.1,.09-.15,.22-.15,.36v22.56c0,.28,.22,.5,.5,.5h8.17c.28,0,.5-.22,.5-.5v-13.52c0-1.34,.23-2.62,.68-3.82,.58-1.52,.99-1.57,1.03-1.57,.18,0,.53,0,.53,.93,0,.44-.1,.94-.29,1.49-.15,.43-.33,1.09-.53,2-.03,.15,0,.3,.1,.42,.09,.12,.24,.19,.39,.19h5.59c.23,0,.43-.16,.49-.38,.2-.81,.34-1.42,.43-1.82,.26-1.01,.39-1.93,.39-2.73,0-4-2.41-4.84-4.44-4.84-1.67,0-3.14,.84-4.38,2.49v-1.99c0-.15-.06-.29-.18-.38-.09-.08-.21-.12-.32-.12h0Z"/></g><g><path class="h" d="M297.71,56.84c-4.9,0-7.39-2.31-7.39-6.87,0-3.46,2.26-5.92,6.71-7.31,3.86-1.21,5.82-2.65,5.82-4.28,0-2.17-1.05-3.22-3.2-3.22-2.51,0-3.73,1.02-3.73,3.11,0,.67,.21,1.58,.61,2.69,.03,.08,.01,.18-.04,.25-.05,.06-.12,.09-.19,.09-.02,0-.03,0-.05,0l-4.05-.78c-.1-.02-.18-.1-.2-.21-.11-.71-.16-1.38-.16-2.01,0-3.73,3.38-5.62,10.05-5.62s9.56,1.77,9.56,5.26v13.7c0,1.66,.64,1.85,1.11,1.85,.16,0,.49-.08,1.13-.44,.04-.02,.08-.03,.12-.03,.03,0,.06,0,.08,.01,.07,.02,.12,.08,.15,.15l.78,2.06c.05,.13-.01,.27-.14,.32-2.02,.78-4.01,1.18-5.93,1.18-2.69,0-4.46-.8-5.25-2.39-1.39,1.66-3.34,2.5-5.8,2.5Zm5.08-13.66c-.42,.4-.89,.75-1.39,1.05-1.62,.94-2.4,2.5-2.4,4.75,0,1.93,.26,4.23,1.5,4.23,1.55,0,2.3-1.37,2.3-4.18v-5.84Z"/><path class="h" d="M301.89,32.91c6.21,0,9.31,1.67,9.31,5.01v13.7c0,1.4,.45,2.1,1.36,2.1,.28,0,.7-.16,1.25-.47l.78,2.06c-2,.78-3.95,1.16-5.84,1.16-2.81,0-4.54-.87-5.19-2.62-1.36,1.82-3.31,2.73-5.86,2.73-4.76,0-7.14-2.21-7.14-6.62,0-3.36,2.18-5.71,6.53-7.07,4-1.25,6-2.76,6-4.52,0-2.31-1.15-3.47-3.45-3.47-2.66,0-3.98,1.12-3.98,3.36,0,.7,.21,1.63,.63,2.77l-4.05-.78c-.1-.7-.16-1.36-.16-1.97,0-3.58,3.27-5.37,9.8-5.37m-1.41,20.54c1.7,0,2.55-1.48,2.55-4.43v-6.47c-.51,.58-1.1,1.07-1.77,1.45-1.69,.98-2.53,2.64-2.53,4.97,0,2.98,.58,4.48,1.75,4.48m1.41-21.04c-6.84,0-10.3,1.98-10.3,5.87,0,.64,.05,1.32,.16,2.04,.03,.21,.19,.38,.4,.42l4.05,.78s.06,0,.09,0c.14,0,.28-.06,.38-.18,.12-.14,.15-.33,.09-.5-.4-1.09-.6-1.96-.6-2.6,0-1.23,.36-2.86,3.48-2.86,2.01,0,2.95,.94,2.95,2.97,0,1.49-1.95,2.89-5.65,4.04-4.57,1.42-6.88,3.96-6.88,7.55,0,4.73,2.57,7.12,7.64,7.12,2.41,0,4.34-.78,5.76-2.32,.91,1.46,2.69,2.21,5.3,2.21,1.95,0,3.97-.4,6.02-1.2,.26-.1,.38-.39,.29-.64l-.78-2.06c-.05-.14-.16-.24-.3-.29-.05-.02-.11-.03-.17-.03-.09,0-.17,.02-.25,.07-.64,.37-.92,.4-1.01,.4-.26,0-.86,0-.86-1.6v-13.7c0-3.66-3.3-5.51-9.81-5.51h0Zm-1.41,20.54c-1.08,0-1.25-2.49-1.25-3.98,0-2.16,.75-3.64,2.28-4.54,.36-.21,.7-.44,1.02-.7v5.29c0,3.93-1.54,3.93-2.05,3.93h0Z"/></g><g><path class="h" d="M326.2,56.86c-7.56,0-11.4-3.89-11.4-11.55,0-3.82,1.12-6.92,3.32-9.2,2.2-2.29,5.19-3.44,8.89-3.44,5.38,0,8.1,2.48,8.1,7.37,0,.1-.05,.18-.14,.22l-3.83,1.86s-.07,.03-.11,.03c-.05,0-.09-.01-.13-.04-.07-.05-.12-.13-.12-.22l.04-2.15c0-3.08-.98-4.58-2.99-4.58-2.69,0-4.05,3.11-4.05,9.24,0,3.86,.3,6.53,.9,7.95,.57,1.37,1.61,2.03,3.17,2.03,2.89,0,4.29-1.84,4.29-5.64,0-.54-.09-1.43-.27-2.65-.01-.08,.02-.17,.08-.23,.05-.04,.1-.06,.16-.06,.02,0,.05,0,.07,.01l3.45,1.05c.1,.03,.17,.12,.18,.23l.02,.92c0,5.87-3.25,8.85-9.65,8.85Z"/><path class="h" d="M327,32.91c5.24,0,7.85,2.37,7.85,7.12l-3.83,1.86,.04-2.15c0-3.22-1.08-4.83-3.24-4.83-2.87,0-4.3,3.16-4.3,9.49,0,3.91,.31,6.59,.92,8.04,.61,1.46,1.75,2.18,3.4,2.18,3.03,0,4.54-1.96,4.54-5.89,0-.55-.09-1.45-.27-2.69l3.45,1.05,.02,.92c0,5.73-3.13,8.59-9.4,8.59-7.43,0-11.15-3.77-11.15-11.3,0-3.77,1.08-6.78,3.25-9.03,2.16-2.25,5.07-3.37,8.71-3.37m0-.5c-3.77,0-6.82,1.18-9.07,3.52-2.25,2.33-3.38,5.49-3.38,9.38,0,7.83,3.92,11.8,11.65,11.8,6.57,0,9.9-3.06,9.9-9.09l-.02-.93c0-.22-.15-.4-.35-.47l-3.45-1.05s-.1-.02-.15-.02c-.12,0-.23,.04-.33,.12-.13,.11-.19,.28-.17,.45,.17,1.21,.26,2.09,.26,2.61,0,3.62-1.32,5.39-4.04,5.39-1.45,0-2.41-.61-2.94-1.88-.58-1.39-.88-4.03-.88-7.85,0-5.96,1.28-8.99,3.8-8.99,.68,0,2.74,0,2.74,4.33l-.04,2.14c0,.17,.08,.34,.23,.43,.08,.05,.18,.08,.27,.08,.07,0,.15-.02,.22-.05l3.83-1.86c.17-.08,.28-.26,.28-.45,0-5.05-2.81-7.62-8.35-7.62h0Z"/></g><g><path class="h" d="M345.02,56.61c-4.25,0-6.4-1.85-6.4-5.49v-14.72h-2.48c-.14,0-.25-.11-.25-.25v-2.53c0-.14,.11-.25,.25-.25h2.48v-3.73c0-.11,.08-.21,.18-.24,2.79-.77,5.52-1.89,8.11-3.33,.04-.02,.08-.03,.12-.03s.09,.01,.13,.03c.08,.04,.12,.13,.12,.22v7.09h3.38c.14,0,.25,.11,.25,.25v2.53c0,.14-.11,.25-.25,.25h-3.38v15.71c0,1.25,.52,1.25,.71,1.25,.13,0,.47,0,.58-.79,.02-.12,.12-.22,.25-.22,0,0,2.35,.22,2.35,.22,.07,0,.14,.05,.18,.11,.04,.06,.05,.14,.04,.21-.67,2.47-2.82,3.72-6.37,3.72Z"/><path class="h" d="M347.03,26.28v7.34h3.62v2.53h-3.62v15.96c0,1,.32,1.5,.96,1.5,.46,0,.74-.33,.83-1.01l2.33,.22c-.64,2.36-2.69,3.54-6.13,3.54-4.1,0-6.15-1.75-6.15-5.24v-14.97h-2.73v-2.53h2.73v-3.98c2.82-.78,5.54-1.89,8.17-3.36m0-.5c-.08,0-.17,.02-.24,.06-2.58,1.44-5.29,2.55-8.06,3.31-.22,.06-.37,.26-.37,.48v3.48h-2.23c-.28,0-.5,.22-.5,.5v2.53c0,.28,.22,.5,.5,.5h2.23v14.47c0,2.62,1.15,5.74,6.65,5.74,3.68,0,5.91-1.31,6.61-3.9,.04-.14,.01-.29-.07-.42-.08-.12-.22-.2-.36-.21l-2.33-.22s-.03,0-.05,0c-.25,0-.46,.18-.5,.43-.08,.57-.26,.57-.33,.57-.14,0-.46,0-.46-1v-15.46h3.12c.28,0,.5-.22,.5-.5v-2.53c0-.28-.22-.5-.5-.5h-3.12v-6.84c0-.18-.09-.34-.25-.43-.08-.05-.17-.07-.25-.07h0Z"/></g><g><path class="h" d="M363.41,56.86c-7.61,0-11.46-4.06-11.46-12.07s3.86-12.07,11.46-12.07,11.44,4.06,11.44,12.07-3.85,12.07-11.44,12.07Zm-.02-21.64c-1.12,0-2.46,1.66-2.46,9.57s1.34,9.58,2.46,9.58,2.48-1.66,2.48-9.58-1.35-9.57-2.48-9.57Z"/><path class="h" d="M363.41,32.98c7.46,0,11.19,3.94,11.19,11.82s-3.73,11.82-11.19,11.82-11.21-3.94-11.21-11.82,3.74-11.82,11.21-11.82m-.02,21.64c1.82,0,2.73-3.28,2.73-9.83s-.91-9.82-2.73-9.82-2.71,3.28-2.71,9.82,.9,9.83,2.71,9.83m.02-22.14c-7.77,0-11.71,4.14-11.71,12.32s3.94,12.32,11.71,12.32,11.69-4.14,11.69-12.32-3.93-12.32-11.69-12.32h0Zm-.02,21.64c-.82,0-2.21-1.21-2.21-9.33s1.38-9.32,2.21-9.32,2.23,1.21,2.23,9.32-1.4,9.33-2.23,9.33h0Z"/></g><g><path class="h" d="M378.1,56.37c-.14,0-.25-.11-.25-.25v-22.56c0-.07,.03-.13,.07-.18,.05-.05,.11-.07,.18-.07l1.59,.02c1.86,0,4.06-.2,6.54-.6,.01,0,.03,0,.04,0,.06,0,.12,.02,.16,.06,.06,.05,.09,.12,.09,.19v2.79c1.29-2.02,2.84-3.04,4.63-3.04,2.78,0,4.19,1.54,4.19,4.59,0,.78-.13,1.68-.39,2.68-.09,.4-.23,1-.42,1.81-.03,.11-.13,.19-.24,.19h-5.59c-.08,0-.15-.03-.2-.09-.05-.06-.07-.14-.05-.21,.2-.9,.37-1.55,.52-1.98,.2-.58,.3-1.11,.3-1.57,0-1.05-.42-1.18-.78-1.18-.23,0-.7,.22-1.27,1.73-.46,1.23-.7,2.54-.7,3.91v13.52c0,.14-.11,.25-.25,.25h-8.17Z"/><path class="h" d="M391.14,32.98c2.63,0,3.94,1.45,3.94,4.34,0,.76-.13,1.63-.38,2.62-.09,.4-.23,1.01-.43,1.81h-5.59c.19-.88,.37-1.53,.51-1.95,.21-.61,.31-1.16,.31-1.66,0-.95-.34-1.43-1.03-1.43-.52,0-1.02,.63-1.5,1.89-.48,1.26-.72,2.59-.72,3.99v13.52h-8.17v-22.56l1.59,.02c1.88,0,4.07-.2,6.58-.6v3.71c1.33-2.48,2.95-3.71,4.88-3.71m-4.88-.5s-.05,0-.08,0c-2.47,.4-4.65,.6-6.5,.6l-1.58-.02h0c-.13,0-.26,.05-.35,.14-.1,.09-.15,.22-.15,.36v22.56c0,.28,.22,.5,.5,.5h8.17c.28,0,.5-.22,.5-.5v-13.52c0-1.34,.23-2.62,.68-3.82,.58-1.52,.99-1.57,1.03-1.57,.18,0,.53,0,.53,.93,0,.44-.1,.94-.29,1.49-.15,.43-.33,1.09-.53,2-.03,.15,0,.3,.1,.42,.09,.12,.24,.19,.39,.19h5.59c.23,0,.43-.16,.49-.38,.2-.81,.34-1.42,.43-1.82,.26-1.01,.39-1.93,.39-2.73,0-4-2.41-4.84-4.44-4.84-1.67,0-3.14,.84-4.38,2.49v-1.99c0-.15-.06-.29-.18-.38-.09-.08-.21-.12-.32-.12h0Z"/></g></g></g><g><path class="g" d="M30.35,0c-3.91,.07-7.82,.04-11.74,.03-.44,0-.58,.1-.57,.55,.02,2.18,0,4.35,0,6.53h0c0,2.18,.01,4.35,0,6.53,0,.47,.14,.59,.6,.58,4.15-.02,8.3-.01,12.45,0,.32,0,.63,.05,.94,.1,.74,.12,1.4,.45,2.1,.65,.87,.25,1.7,.64,2.33,1.19,1.58,1.37,3.25,2.71,4.03,4.76,.37,.97,.8,1.93,.82,2.98,.04,1.81,.18,3.62-.51,5.39-.32,.82-.59,1.67-1.13,2.34-1.14,1.43-2.31,2.84-3.96,3.74-1.16,.63-2.37,1.18-3.67,1.29-2.48,.21-4.98,.01-7.47,.17-2.02,.13-4.05,.03-6.07,.03-.32,0-.47,.04-.46,.43,.02,3.9,.01,7.79,0,11.69,0,.54,.02,1.07-.1,1.61-.1,.43,.11,.6,.55,.54,.17-.02,.35-.03,.52-.02,3.5,.02,7,.09,10.5,.04,1.36-.02,2.66,.12,3.97,.46,1.6,.42,3.04,1.14,4.29,2.18,1.18,.98,2.27,2.06,3.11,3.39,.86,1.36,1.45,2.83,1.58,4.4,.17,1.95,.32,3.93-.31,5.85-.19,.59-.04,.74,.55,.74,3.59,0,7.18,0,10.78-.01,.86,0,1.71-.11,2.57,0,.45,.06,.86-.2,.86-.72,0-.1,0-.15,0-.22,0-.12,0-.25,.02-.37,.05-.44,.1-.87,.09-1.29-.01-.99,0-1.99,0-2.98-.02-1.99-.24-3.94-.76-5.87-.31-1.14-.56-2.3-.96-3.41-.5-1.4-1.1-2.76-1.91-4-.4-.61-.72-1.28-1.27-1.81-1.12-1.08-2.2-2.21-3.32-3.3-.34-.33-.28-.57,.05-.81,.5-.36,.9-.83,1.3-1.29,.54-.61,.99-1.29,1.47-1.95,.51-.7,1.12-1.36,1.47-2.14,.42-.94,.89-1.88,1.17-2.9,.28-1.03,.61-2.03,.84-3.08,.25-1.15,.48-2.27,.44-3.46-.07-2.31,.05-4.62-.11-6.92-.07-.95-.31-1.84-.56-2.73-.23-.84-.51-1.66-.8-2.49-.54-1.54-1.27-2.99-2.14-4.35-.79-1.23-1.7-2.38-2.7-3.46-1.44-1.56-3-2.98-4.71-4.23-1.1-.81-2.31-1.5-3.56-2.07-1.51-.69-3.08-1.24-4.7-1.61-1.05-.24-2.05-.55-3.13-.56l-2.78-.13Z"/><path class="h" d="M.01,43.07C.01,34.89,.01,26.72,0,18.54c0-.41,.12-.5,.51-.5,4.4,.01,8.8,.02,13.2,0,.5,0,.57,.18,.57,.61-.01,5.82-.12,11.64,.03,17.45,.13,4.8,.17,9.6,.06,14.39-.13,5.7-.02,11.39-.09,17.08,0,.43-.15,.54-.55,.54-4.4-.01-8.8-.01-13.2,0-.43,0-.53-.14-.53-.55,.01-8.16,0-16.32,0-24.48Z"/><path class="e" d="M1.7,75.99c-.09-.22-.19-.43-.29-.65-.56-1.27-1.05-2.56-1.02-3.99,0-.27,.24-.48,.51-.46,.09,0,.19,0,.28,0,17.99,0,35.98,0,53.97,0,.93,0,.95,.01,.5,.81-.88,1.55-1.98,2.94-3.2,4.23-.11,.12-.87,.93-1.01,1.07-.88,.85-1.74,1.72-2.67,2.52-1.25,1.07-2.65,1.88-4.07,2.67-1.83,1.02-3.74,1.88-5.78,2.39-1.99,.5-4.01,.74-6.07,.81-5.53,.17-11.05,.05-16.58,.09-1.97,.01-3.83-.49-5.67-1.2-1.3-.5-2.44-1.19-3.52-2-1.48-1.1-2.89-2.29-3.9-3.89-.17-.26-.35-.52-.54-.77-.3-.4-.56-.84-.77-1.29l-.16-.33Z"/><path class="e" d="M7.23,14.41c-2.21,0-4.42,0-6.62,0-.57,0-.61-.06-.52-.61,.3-1.87,.99-3.61,1.77-5.32,.72-1.57,1.94-2.75,3.13-3.96,.96-.98,2-1.85,3.2-2.49,1.51-.79,3.04-1.54,4.8-1.7,.32-.03,.64-.09,.96-.18,.41-.12,.48,.02,.48,.38-.01,1.43,0,2.86,0,4.3,0,3.02,0,6.03,0,9.05,0,.42-.1,.54-.53,.54-2.22-.02-4.45-.01-6.67-.01h0Z"/></g></g></g></g></svg>