<?xml version="1.0" standalone="no"?>
<!DOCTYPE svg PUBLIC "-//W3C//DTD SVG 20010904//EN"
 "http://www.w3.org/TR/2001/REC-SVG-20010904/DTD/svg10.dtd">
<svg version="1.0" xmlns="http://www.w3.org/2000/svg"
 width="266.000000pt" height="261.000000pt" viewBox="0 0 266.000000 261.000000"
 preserveAspectRatio="xMidYMid meet">

<g transform="translate(0.000000,261.000000) scale(0.100000,-0.100000)"
fill="#000000" stroke="none">
<path d="M1725 2600 c-22 -5 -62 -18 -88 -29 -44 -19 -68 -21 -266 -21 -249 0
-349 -13 -509 -66 -333 -110 -591 -323 -728 -599 -91 -186 -124 -336 -124
-569 0 -497 253 -907 695 -1126 66 -33 161 -73 211 -90 l92 -30 283 0 c243 -1
281 -3 266 -14 -17 -13 -15 -15 20 -20 173 -27 545 -36 645 -15 283 59 479
437 414 800 -8 41 -24 102 -38 135 -13 32 -126 236 -252 452 -125 216 -237
414 -248 439 -12 26 -22 78 -25 122 -15 221 109 410 285 433 23 3 23 4 -12 44
-40 46 -113 96 -166 113 -32 10 -374 52 -402 50 -7 -1 -31 -5 -53 -9z m-385
-380 c0 -6 -7 -39 -14 -73 -8 -34 -18 -78 -21 -98 l-5 -37 -88 -7 c-336 -28
-560 -198 -639 -485 -25 -92 -25 -358 0 -450 64 -232 214 -380 457 -451 65
-19 107 -22 308 -26 l232 -5 0 151 0 151 30 0 c31 0 104 -31 115 -50 4 -6 12
-7 18 -4 7 4 9 4 5 0 -4 -5 4 -19 16 -33 28 -29 61 -100 76 -160 8 -32 16 -43
30 -43 24 0 25 -21 5 -106 -17 -74 -34 -114 -49 -114 -6 0 -20 -18 -30 -41
-34 -71 -118 -129 -186 -129 l-30 0 0 78 0 77 -202 -3 c-396 -7 -568 46 -749
227 -132 132 -210 282 -271 520 -26 103 -29 127 -25 216 24 457 273 764 702
865 136 33 315 49 315 30z m15 -572 c18 -42 283 -505 394 -690 l23 -38 -249 0
c-267 0 -318 7 -411 54 -76 39 -128 91 -164 164 -31 62 -33 74 -33 167 0 93 2
105 33 167 38 78 92 130 177 170 50 23 152 53 198 57 4 1 19 -23 32 -51z"/>
</g>
</svg>
