<svg id="Data_pg_icon" data-name="Data pg icon" xmlns="http://www.w3.org/2000/svg" viewBox="0 0 194.62 239.43"><defs><style>.cls-1{fill:none;stroke:#010102;stroke-miterlimit:10;stroke-width:3.86px;}.cls-2{fill:#fff;}.cls-3{fill:#010102;}</style></defs><title>Data pg icon black</title><g id="black"><circle class="cls-1" cx="61.16" cy="145.55" r="34.88"/><path class="cls-2" d="M92.3,114.66v43.72H136S135.8,119,92.3,114.66Z" transform="translate(-31.14 -12.82)"/><path class="cls-1" d="M101.33,106.2V149h42.8S143.91,110.48,101.33,106.2Z" transform="translate(-31.14 -12.82)"/><rect class="cls-1" x="104.33" y="182.34" width="11.03" height="34.48" rx="3.73"/><rect class="cls-1" x="131.23" y="163.89" width="11.03" height="52.92" rx="3.73"/><rect class="cls-1" x="158.47" y="146.31" width="11.03" height="70.5" rx="3.73"/><path class="cls-1" d="M223.83,50.7V240.3a10,10,0,0,1-10,10H43.11a10,10,0,0,1-10-10V24.78a10,10,0,0,1,10-10H188.28c0,.31-.05.61-.05.93V37.45A13.29,13.29,0,0,0,201.49,50.7Z" transform="translate(-31.14 -12.82)"/><rect class="cls-3" x="24.32" y="53.29" width="119.08" height="3.02"/><rect class="cls-3" x="24.32" y="63.66" width="119.08" height="3.02"/><rect class="cls-3" x="24.32" y="32.53" width="119.08" height="3.02"/><rect class="cls-3" x="24.32" y="42.91" width="119.08" height="3.02"/><rect class="cls-3" x="24.32" y="73.75" width="72.64" height="3.02"/><line class="cls-1" x1="157.82" y1="1.43" x2="193.19" y2="37.36"/></g></svg>