<svg id="New_course" data-name="New course" xmlns="http://www.w3.org/2000/svg" viewBox="0 0 231.61 174.24"><defs><style>.cls-1{fill:none;stroke:#4e75ba;stroke-miterlimit:10;stroke-width:3.86px;}.cls-2{fill:#fff;}.cls-3{fill:#4e75ba;}</style></defs><title>New course icon blue</title><g id="blue"><path class="cls-1" d="M38.15,107.56v69.9A8,8,0,0,0,43.62,185c20.63,6.8,96.12,27.83,164.61-1.91v-72.4" transform="translate(-11.64 -52.11)"/><path class="cls-1" d="M119.34,54.8,15.65,95a3.26,3.26,0,0,0,.07,6.1l100.92,36.51a11.27,11.27,0,0,0,7.45.08L237.76,99.17a3.26,3.26,0,0,0,0-6.17L127.09,54.66A11.28,11.28,0,0,0,119.34,54.8Z" transform="translate(-11.64 -52.11)"/><line class="cls-1" x1="221.36" y1="49.01" x2="221.36" y2="85.29"/><line class="cls-1" x1="221.36" y1="83.05" x2="212.44" y2="99.85"/><line class="cls-1" x1="220.98" y1="82.62" x2="229.9" y2="99.42"/><line class="cls-1" x1="221.42" y1="84.18" x2="221.46" y2="103.2"/><circle class="cls-2" cx="183.72" cy="136.31" r="37.93"/><circle class="cls-1" cx="183.72" cy="136.31" r="31.07"/><rect class="cls-3" x="180.84" y="119.93" width="5.76" height="32.76"/><rect class="cls-3" x="192.48" y="172.04" width="5.76" height="32.76" transform="translate(372.15 -59.05) rotate(90)"/></g></svg>