<svg id="New_course" data-name="New course" xmlns="http://www.w3.org/2000/svg" viewBox="0 0 231.76 174.39"><defs><style>.cls-1,.cls-2,.cls-3{fill:none;stroke:#38bba1;stroke-miterlimit:10;}.cls-1{stroke-width:4.4px;}.cls-2{stroke-width:4.17px;}.cls-3{stroke-width:3.86px;}.cls-4{fill:#fff;}.cls-5{fill:#38bba1;}</style></defs><title>New course icon green</title><g id="green"><path class="cls-1" d="M38.15,107.56v69.9A8,8,0,0,0,43.62,185c20.63,6.8,96.12,27.83,164.61-1.91v-72.4" transform="translate(-11.49 -51.96)"/><path class="cls-2" d="M119.34,54.8,15.65,95a3.26,3.26,0,0,0,.07,6.1l100.92,36.51a11.27,11.27,0,0,0,7.45.08L237.76,99.17a3.26,3.26,0,0,0,0-6.17L127.09,54.66A11.28,11.28,0,0,0,119.34,54.8Z" transform="translate(-11.49 -51.96)"/><line class="cls-2" x1="221.52" y1="49.16" x2="221.52" y2="85.44"/><line class="cls-3" x1="221.52" y1="83.2" x2="212.59" y2="100"/><line class="cls-3" x1="221.13" y1="82.78" x2="230.05" y2="99.58"/><line class="cls-3" x1="221.57" y1="84.33" x2="221.62" y2="103.36"/><circle class="cls-4" cx="183.88" cy="136.46" r="37.93"/><circle class="cls-3" cx="183.88" cy="136.46" r="31.07"/><rect class="cls-5" x="181" y="120.08" width="5.76" height="32.76"/><rect class="cls-5" x="192.48" y="172.04" width="5.76" height="32.76" transform="translate(372.3 -58.9) rotate(90)"/></g></svg>