<svg id="Layer_1" data-name="Layer 1" xmlns="http://www.w3.org/2000/svg" viewBox="0 0 256.89 174.4"><defs><style>.cls-1{fill:none;stroke:#010101;stroke-miterlimit:10;stroke-width:3.86px;}.cls-2{fill:#010101;}</style></defs><title>1</title><path class="cls-1" d="M145.24,106.39l107,31.78a3.18,3.18,0,0,1,2.28,3.05h0a3.19,3.19,0,0,1-3.18,3.18H4.64a3.19,3.19,0,0,1-3.19-3.18h0a3.2,3.2,0,0,1,2.28-3.06L110.65,106.5" transform="translate(0.48 -81.31)"/><polyline class="cls-1" points="115.28 154.86 17.22 154.86 17.22 70.75 240.36 70.75 240.36 154.86 142.46 154.86"/><path class="cls-1" d="M48.38,79.79h1.18a5,5,0,0,1,5,5v14a0,0,0,0,1,0,0H43.41a0,0,0,0,1,0,0v-14A5,5,0,0,1,48.38,79.79Z"/><path class="cls-1" d="M77.11,79.79h1.18a5,5,0,0,1,5,5v14a0,0,0,0,1,0,0H72.14a0,0,0,0,1,0,0v-14A5,5,0,0,1,77.11,79.79Z"/><path class="cls-1" d="M105.22,79.79h1.18a5,5,0,0,1,5,5v14a0,0,0,0,1,0,0H100.25a0,0,0,0,1,0,0v-14A5,5,0,0,1,105.22,79.79Z"/><path class="cls-1" d="M150.69,79.79h1.18a5,5,0,0,1,5,5v14a0,0,0,0,1,0,0H145.72a0,0,0,0,1,0,0v-14a5,5,0,0,1,5-5Z"/><path class="cls-1" d="M48.38,108.52h1.18a5,5,0,0,1,5,5v14a0,0,0,0,1,0,0H43.41a0,0,0,0,1,0,0v-14a5,5,0,0,1,5-5Z"/><path class="cls-1" d="M77.11,108.52h1.18a5,5,0,0,1,5,5v14a0,0,0,0,1,0,0H72.14a0,0,0,0,1,0,0v-14A5,5,0,0,1,77.11,108.52Z"/><path class="cls-1" d="M180,79.79h1.18a5,5,0,0,1,5,5v14a0,0,0,0,1,0,0H175a0,0,0,0,1,0,0v-14A5,5,0,0,1,180,79.79Z"/><path class="cls-1" d="M208.72,79.79h1.18a5,5,0,0,1,5,5v14a0,0,0,0,1,0,0H203.75a0,0,0,0,1,0,0v-14a5,5,0,0,1,5-5Z"/><path class="cls-1" d="M180,108.52h1.18a5,5,0,0,1,5,5v14a0,0,0,0,1,0,0H175a0,0,0,0,1,0,0v-14A5,5,0,0,1,180,108.52Z"/><path class="cls-1" d="M208.72,108.52h1.18a5,5,0,0,1,5,5v14a0,0,0,0,1,0,0H203.75a0,0,0,0,1,0,0v-14a5,5,0,0,1,5-5Z"/><path class="cls-1" d="M9.11,161.81H249.63a0,0,0,0,1,0,0v3.1a7.56,7.56,0,0,1-7.56,7.56H16.67a7.56,7.56,0,0,1-7.56-7.56v-3.1a0,0,0,0,1,0,0Z"/><circle class="cls-1" cx="128.44" cy="20" r="18.07"/><path class="cls-1" d="M112.88,237.3V211.75a6.84,6.84,0,0,1,6.84-6.84h17.37a6.84,6.84,0,0,1,6.84,6.84V237.3" transform="translate(0.48 -81.31)"/><rect class="cls-2" x="127.52" y="8.07" width="1.85" height="12.37" rx="0.83"/><rect class="cls-2" x="132.3" y="94.64" width="1.85" height="12.37" rx="0.83" transform="translate(234.53 -113.71) rotate(90)"/></svg>