<svg id="Layer_7" data-name="Layer 7" xmlns="http://www.w3.org/2000/svg" viewBox="0 0 68.07 102.94"><defs><style>.cls-1{fill:#010202;}</style></defs><title>B black logo</title><rect class="cls-1" y="21.66" width="16.56" height="59.76"/><path class="cls-1" d="M100.6,88.6h16.56v-17S102,73.15,100.6,88.6Z" transform="translate(-100.6 -71.26)"/><path class="cls-1" d="M100.6,156.48h66.6s-6.12,11.52-17.4,15.24-31.44,2.16-31.44,2.16S103.24,172.2,100.6,156.48Z" transform="translate(-100.6 -71.26)"/><path class="cls-1" d="M166.36,101.26v3.36a27.78,27.78,0,0,1-27.78,27.78H122V115.23l13.12-.09a16.48,16.48,0,0,0,7.75-1.93,13,13,0,0,0,7.09-11.38,12.18,12.18,0,0,0-5.11-10.71,16.13,16.13,0,0,0-9.62-3H122V71.26h14.4A30,30,0,0,1,166.36,101.26Z" transform="translate(-100.6 -71.26)"/><path class="cls-1" d="M151.12,152.68H168.4s2.88-18.79-10.26-28.36H122v8.08h13.5a19.93,19.93,0,0,1,8.54,1.82c2.43,1.16,4.95,3,6,5.83A24.71,24.71,0,0,1,151.12,152.68Z" transform="translate(-100.6 -71.26)"/></svg>