<svg xmlns="http://www.w3.org/2000/svg" viewBox="0 0 11.31 11.21"><defs><style>.cls-1{fill:none;stroke:#000101;stroke-miterlimit:10;stroke-width:0.24px;}.cls-2{fill:#000101;}</style></defs><title>Clone icon 3</title><g id="clone_icon_3" data-name="clone icon 3"><path class="cls-1" d="M10.3,6.42V1a.9.9,0,0,0-.9-.9H3.7a.9.9,0,0,0-.9.9V7.83a.9.9,0,0,0,.9.9H7.77V7.55A1.14,1.14,0,0,1,8.91,6.41Z" transform="translate(-2.68 0.03)"/><path class="cls-1" d="M10.72,2.42H13a.9.9,0,0,1,.9.9V8.75H12.48a1.14,1.14,0,0,0-1.14,1.14v1.18H7.27a.9.9,0,0,1-.9-.9v-1H8l2.76-2.55Z" transform="translate(-2.68 0.03)"/><line class="cls-1" x1="5.13" y1="8.79" x2="7.66" y2="6.48"/><line class="cls-1" x1="8.69" y1="11.12" x2="11.23" y2="8.81"/><rect class="cls-2" x="6.28" y="3.01" width="0.54" height="2.8" transform="translate(8.28 -2.11) rotate(90)"/><rect class="cls-2" x="6.28" y="3.01" width="0.54" height="2.8" transform="translate(10.42 8.85) rotate(180)"/></g></svg>