<svg xmlns="http://www.w3.org/2000/svg" viewBox="0 0 256 256"><defs><style>.cls-1{fill:#fff;}.cls-2{fill:#9264aa;}</style></defs><title>GS black &amp;amp; white</title><g id="Layer_2" data-name="Layer 2"><rect class="cls-1" width="256" height="256" rx="39.4"/></g><g id="Layer_15" data-name="Layer 15"><path d="M146.75,161a13,13,0,0,1-1,2.34,26.91,26.91,0,0,1-3.24,5,25.31,25.31,0,0,1-5.15,4.82,1.67,1.67,0,0,1-.48.28H119a11.48,11.48,0,0,1-3.45-.56,62.17,62.17,0,0,1-10.74-4.29,48.36,48.36,0,0,1-9.51-6.47,43.54,43.54,0,0,1-7.3-8.21,44.82,44.82,0,0,1-6.26-13.77,47.86,47.86,0,0,1-1.29-6.71,27.87,27.87,0,0,1-.26-3.65c0-1.7,0-3.41,0-5.11a36.41,36.41,0,0,1,.31-3.76,45.36,45.36,0,0,1,1.15-6A41.55,41.55,0,0,1,84,108.47a39.19,39.19,0,0,1,5.12-8.32,43.14,43.14,0,0,1,7-6.87,49,49,0,0,1,14-7.7A51.37,51.37,0,0,1,120,83.14a55.81,55.81,0,0,1,6.45-.48c3.81-.08,7.63,0,11.44,0a.92.92,0,0,1,.54.05c-.71.49-1.45.94-2.13,1.48a21.62,21.62,0,0,0-4.75,5.34,27.07,27.07,0,0,0-2.74,5.78,2.36,2.36,0,0,1-.12.28c-1.76,0-3.5,0-5.25.19a44.93,44.93,0,0,0-5,.78,41.15,41.15,0,0,0-8,2.55,30.18,30.18,0,0,0-9.23,6.27c-.7.7-1.36,1.43-2,2.18a16.45,16.45,0,0,0-1.64,2.32,31.58,31.58,0,0,0-2.86,5.91,35.06,35.06,0,0,0-2,10.22,28.41,28.41,0,0,0,.25,6.45,54.59,54.59,0,0,0,2.38,9.27,33.62,33.62,0,0,0,4,7.78,26.76,26.76,0,0,0,5,5.39,27.49,27.49,0,0,0,8.67,4.75,39.81,39.81,0,0,0,7.75,1.73,64.67,64.67,0,0,0,7.22.48c1.34,0,2.69,0,4-.05,1.54-.06,3.06-.11,4.59-.2h.2l.35,0h0l6.78-.41H144l2.8-.14Z"/><path class="cls-2" d="M137.08,161.54l-.35,0C136.87,161.57,137,161.54,137.08,161.54Z"/><path d="M150.74,154.51c-.49,0-3.5.05-4,.07l-10.54.63c-1.33.09-2.67.15-4,.18-2.31.07-4.62.09-6.94,0-1.53-.08-3.06-.21-4.57-.43a28.88,28.88,0,0,1-7.12-1.87,20,20,0,0,1-7.89-5.72,26.91,26.91,0,0,1-4.85-9.25,44.66,44.66,0,0,1-1.51-6.24A14.7,14.7,0,0,1,99,129c0-.8,0-1.6.07-2.4a29.11,29.11,0,0,1,.26-3,27.08,27.08,0,0,1,2.07-7.49,21.22,21.22,0,0,1,6.37-8.11,27.59,27.59,0,0,1,9.72-4.7,41.12,41.12,0,0,1,5.19-1,25.54,25.54,0,0,1,4.62-.27c0,1.16-.13,2.31-.12,3.47a28.48,28.48,0,0,0,1.23,8.09,1.1,1.1,0,0,1,.12.54c-.64.09-1.27.16-1.92.26a19.79,19.79,0,0,0-7,2.36,12.2,12.2,0,0,0-6,8.5,19.4,19.4,0,0,0-.22,4.37,13.84,13.84,0,0,0,1.59,5.52,8.56,8.56,0,0,0,1.39,1.92,15,15,0,0,0,1.77,1.6,17.26,17.26,0,0,0,10.14,3.4c3.61.05,7.22,0,10.82.09,1.72,0,5.94,0,7.66,0a23.89,23.89,0,0,1,1.36,2.27,19.06,19.06,0,0,1,2,4.12,16.92,16.92,0,0,1,.66,3.6c.07.8,0,1.3.13,1.86Z"/><path d="M166.05,88.06a13.69,13.69,0,0,0-10-6.28c-7.13-1-22.28,16.7-16.44,32.74S159,152.57,159,152.57l-3.94,13.31-6.39,6.71-12.56,1.53s10.54,1,12.46,1.13,18.2,2,22.88-9.36,7-15.87-.63-31.09-29.43-38.16-4.79-46.73Z"/><path class="cls-1" d="M156,81.77s-10.32-1.49-12.13-1.16-14.37,1.16-17.14,21.28c0,0-.86,7.35.85,10.65,0,0,1.32,4.61,8.45,16.38,1.55,2.54,3.24,5,5,7.4,3.52,4.78,10.56,16.67,3.8,28.06-3.52,6.6-7.77,8.73-9.58,9.68,0,0,8.94.43,10.43.22s3.3,0,5.53-1.7A23.27,23.27,0,0,0,159,161.51c1.49-5.21,3.78-7.5-3.14-19.21s-13-21.93-14.27-24.8a30.4,30.4,0,0,1,0-22.67c4.26-10,11-11.92,14.42-13Z"/><path d="M166.26,90.34a11.82,11.82,0,0,0,0,23.13Z"/><path class="cls-1" d="M135.29,142.25v23.42a11.82,11.82,0,0,0,0-23.42Z"/></g></svg>