<svg id="Layer_3" data-name="Layer 3" xmlns="http://www.w3.org/2000/svg" xmlns:xlink="http://www.w3.org/1999/xlink" viewBox="0 0 123.39 123.89"><defs><style>.cls-1{fill:url(#linear-gradient);}.cls-2{fill:url(#linear-gradient-2);}</style><linearGradient id="linear-gradient" x1="175.52" y1="49.3" x2="53.12" y2="134.98" gradientUnits="userSpaceOnUse"><stop offset="0.36" stop-color="#006f79"/><stop offset="0.6" stop-color="#00be9a"/><stop offset="0.88" stop-color="#00dc3a"/></linearGradient><linearGradient id="linear-gradient-2" x1="53.57" y1="214.46" x2="191.81" y2="94.58" xlink:href="#linear-gradient"/></defs><title>GS logo</title><path class="cls-1" d="M66.59,135S61.07,95,98.36,74.08c28.17-15.82,57.45-5.75,71.87,8.58C170.23,82.66,82.36,65.78,66.59,135Z" transform="translate(-66.31 -66.05)"/><path class="cls-2" d="M67.46,142.45s43-42.34,99.44-30.33c1.23.26,6.47,1.47,7.64,1.91,9.34,3.5,18.69,7,13.82,27.64-12.24,51.88-81.5,69.68-115.84,14.38,0,0,61.6,50.85,96.43-8.46C185.3,119.76,125.7,118.05,67.46,142.45Z" transform="translate(-66.31 -66.05)"/></svg>