<svg id="Layer_1" data-name="Layer 1" xmlns="http://www.w3.org/2000/svg" xmlns:xlink="http://www.w3.org/1999/xlink" viewBox="0 0 780.5 123.89"><defs><style>.cls-1{fill:url(#linear-gradient);}.cls-2{fill:url(#linear-gradient-2);}.cls-3{font-size:72px;fill:#006f79;font-family:AvaMeridian, Ava Meridian;}</style><linearGradient id="linear-gradient" x1="152.52" y1="-2.86" x2="30.12" y2="82.82" gradientUnits="userSpaceOnUse"><stop offset="0.36" stop-color="#006f79"/><stop offset="0.6" stop-color="#00be9a"/><stop offset="0.88" stop-color="#00dc3a"/></linearGradient><linearGradient id="linear-gradient-2" x1="30.57" y1="162.3" x2="168.81" y2="42.42" xlink:href="#linear-gradient"/></defs><title>GS logo</title><path class="cls-1" d="M43.59,82.83s-5.52-40,31.77-60.91c28.17-15.82,57.45-5.75,71.87,8.58C147.23,30.5,59.36,13.62,43.59,82.83Z" transform="translate(-43.31 -13.89)"/><path class="cls-2" d="M44.46,90.29S87.44,48,143.9,60c1.23.26,6.47,1.47,7.64,1.91,9.34,3.5,18.69,7,13.82,27.64-12.24,51.88-81.5,69.68-115.84,14.38,0,0,61.6,50.85,96.43-8.46C162.3,67.6,102.7,65.89,44.46,90.29Z" transform="translate(-43.31 -13.89)"/><text class="cls-3" transform="translate(144.17 95.19)">GRADESHEET</text></svg>