<svg id="Layer_1" data-name="Layer 1" xmlns="http://www.w3.org/2000/svg" viewBox="0 0 16.29 11.06"><defs><style>.cls-1{fill:none;stroke:#000101;stroke-miterlimit:10;stroke-width:0.24px;}.cls-2{fill:#000101;}</style></defs><title>Institute icon</title><path class="cls-1" d="M9.16,6.6l6.78,2a.22.22,0,0,1,.14.2h0a.2.2,0,0,1-.2.2H.24a.2.2,0,0,1-.2-.2H0a.22.22,0,0,1,.14-.2L7,6.6" transform="translate(0.08 -5.01)"/><polyline class="cls-1" points="7.31 9.82 1.09 9.82 1.09 4.49 15.24 4.49 15.24 9.82 9.03 9.82"/><path class="cls-1" d="M2.94,5.06h.34a.18.18,0,0,1,.18.18v1a0,0,0,0,1,0,0H2.75a0,0,0,0,1,0,0v-1A.18.18,0,0,1,2.94,5.06Z"/><path class="cls-1" d="M4.76,5.06h.34a.18.18,0,0,1,.18.18v1a0,0,0,0,1,0,0H4.57a0,0,0,0,1,0,0v-1A.18.18,0,0,1,4.76,5.06Z"/><path class="cls-1" d="M6.54,5.06h.34a.18.18,0,0,1,.18.18v1a0,0,0,0,1,0,0H6.36a0,0,0,0,1,0,0v-1a.18.18,0,0,1,.18-.18Z"/><path class="cls-1" d="M9.42,5.06h.34a.18.18,0,0,1,.18.18v1a0,0,0,0,1,0,0H9.24a0,0,0,0,1,0,0v-1A.18.18,0,0,1,9.42,5.06Z"/><path class="cls-1" d="M2.94,6.88h.34a.18.18,0,0,1,.18.18v1a0,0,0,0,1,0,0H2.75a0,0,0,0,1,0,0v-1a.18.18,0,0,1,.18-.18Z"/><path class="cls-1" d="M4.76,6.88h.34a.18.18,0,0,1,.18.18v1a0,0,0,0,1,0,0H4.57a0,0,0,0,1,0,0v-1a.18.18,0,0,1,.18-.18Z"/><path class="cls-1" d="M11.28,5.06h.34a.18.18,0,0,1,.18.18v1a0,0,0,0,1,0,0H11.1a0,0,0,0,1,0,0v-1a.18.18,0,0,1,.18-.18Z"/><path class="cls-1" d="M13.1,5.06h.34a.18.18,0,0,1,.18.18v1a0,0,0,0,1,0,0h-.71a0,0,0,0,1,0,0v-1a.18.18,0,0,1,.18-.18Z"/><path class="cls-1" d="M11.28,6.88h.34a.18.18,0,0,1,.18.18v1a0,0,0,0,1,0,0H11.1a0,0,0,0,1,0,0v-1a.18.18,0,0,1,.18-.18Z"/><path class="cls-1" d="M13.1,6.88h.34a.18.18,0,0,1,.18.18v1a0,0,0,0,1,0,0h-.71a0,0,0,0,1,0,0v-1A.18.18,0,0,1,13.1,6.88Z"/><path class="cls-1" d="M.58,10.26H15.83a0,0,0,0,1,0,0v.32a.35.35,0,0,1-.35.35H.93a.35.35,0,0,1-.35-.35v-.32a0,0,0,0,1,0,0Z"/><circle class="cls-1" cx="8.14" cy="1.27" r="1.15"/><path class="cls-1" d="M7.1,14.9V13.28a.44.44,0,0,1,.44-.44h1.1a.44.44,0,0,1,.43.44V14.9" transform="translate(0.08 -5.01)"/><rect class="cls-2" x="8.08" y="0.51" width="0.12" height="0.78" rx="0.03"/><rect class="cls-2" x="8.34" y="5.85" width="0.12" height="0.78" rx="0.03" transform="translate(14.72 -7.16) rotate(90)"/></svg>