<svg xmlns="http://www.w3.org/2000/svg" viewBox="0 0 256 256"><defs><style>.cls-1{fill:#fff;}</style></defs><title>L black &amp;amp; white</title><g id="Layer_2" data-name="Layer 2"><rect class="cls-1" width="256" height="256" rx="39.4"/></g><g id="Layer_9" data-name="Layer 9"><polygon points="98.18 67 113.75 75.14 113.75 193.01 98.18 184.87 98.18 67"/><polygon points="110.33 62.99 128.15 71.49 127.68 190.41 118.59 185.69 119.24 73.55 110.33 68.95 110.33 62.99"/><polygon points="130.82 161.63 140.03 166.74 140.03 186.32 130.82 181.37 130.82 161.63"/><polygon points="135.42 158.09 151.23 166.09 151 181.74 142.5 178.67 142.66 166.09 135.42 162.16 135.42 158.09"/><polygon points="145.2 157.85 157.82 163.57 157.71 179.13 153.02 176.73 153.18 164.14 145.2 160.33 145.2 157.85"/></g></svg>