<svg id="Layer_1" data-name="Layer 1" xmlns="http://www.w3.org/2000/svg" viewBox="0 0 60.64 131.64"><defs><style>.cls-1{fill:none;stroke:#b6bac5;stroke-miterlimit:10;}</style></defs><title>L light gray Icon</title><g id="Layer_9_copy_2" data-name="Layer 9 copy 2"><polygon class="cls-1" points="0.5 4.8 16.07 12.94 16.07 130.81 0.5 122.67 0.5 4.8"/><polygon class="cls-1" points="12.65 0.79 30.47 9.29 30 128.21 20.91 123.49 21.56 11.35 12.65 6.75 12.65 0.79"/><polygon class="cls-1" points="33.14 99.43 42.35 104.54 42.35 124.12 33.14 119.17 33.14 99.43"/><polygon class="cls-1" points="37.74 95.89 53.55 103.89 53.32 119.54 44.82 116.47 44.98 103.89 37.74 99.96 37.74 95.89"/><polygon class="cls-1" points="47.52 95.65 60.14 101.37 60.03 116.93 55.34 114.53 55.5 101.94 47.52 98.13 47.52 95.65"/></g></svg>