<svg id="Layer_4" data-name="Layer 4" xmlns="http://www.w3.org/2000/svg" xmlns:xlink="http://www.w3.org/1999/xlink" viewBox="0 0 59.64 130.02"><defs><style>.cls-1{fill:url(#linear-gradient);}.cls-2{fill:url(#linear-gradient-2);}.cls-3{fill:url(#linear-gradient-3);}.cls-4{fill:url(#linear-gradient-4);}.cls-5{fill:url(#linear-gradient-5);}</style><linearGradient id="linear-gradient" x1="18.21" y1="67.01" x2="0.21" y2="67.01" gradientUnits="userSpaceOnUse"><stop offset="0.27" stop-color="#8a0184"/><stop offset="1" stop-color="#6700ff"/></linearGradient><linearGradient id="linear-gradient-2" x1="37.65" y1="63.71" x2="17.97" y2="63.71" xlink:href="#linear-gradient"/><linearGradient id="linear-gradient-3" x1="48.19" y1="111.63" x2="31.87" y2="110.67" xlink:href="#linear-gradient"/><linearGradient id="linear-gradient-4" x1="58.46" y1="106.54" x2="41.66" y2="107.02" xlink:href="#linear-gradient"/><linearGradient id="linear-gradient-5" x1="65.95" y1="106.35" x2="51.55" y2="105.39" xlink:href="#linear-gradient"/></defs><title>L logo</title><polygon class="cls-1" points="0 4.01 15.57 12.15 15.57 130.02 0 121.88 0 4.01"/><polygon class="cls-2" points="12.15 0 29.97 8.49 29.5 127.42 20.41 122.7 21.06 10.56 12.15 5.96 12.15 0"/><polygon class="cls-3" points="32.64 98.63 41.84 103.75 41.84 123.33 32.64 118.38 32.64 98.63"/><polygon class="cls-4" points="37.24 95.09 53.05 103.1 52.82 118.75 44.32 115.68 44.48 103.1 37.24 99.17 37.24 95.09"/><polygon class="cls-5" points="47.02 94.86 59.64 100.58 59.53 116.14 54.84 113.74 55 101.15 47.02 97.34 47.02 94.86"/></svg>