<svg id="Layer_1" data-name="Layer 1" xmlns="http://www.w3.org/2000/svg" viewBox="0 0 256 256"><defs><style>.cls-1{fill:#fff;}.cls-2{fill:#231f20;}.cls-3{fill:#71869d;opacity:0.55;isolation:isolate;}</style></defs><title>S Black &amp;amp; White Final</title><g id="Layer_2_copy" data-name="Layer 2 copy"><rect class="cls-1" width="256" height="256" rx="39.4"/></g><path class="cls-2" d="M157.44,98.39l-40,23.08a12.9,12.9,0,0,1-12.9-22.35h0l40-23.07a12.9,12.9,0,0,1,12.9,22.34"/><path class="cls-3" d="M157.44,98.39l-40,23.08a12.44,12.44,0,0,1-10.62,1,11.5,11.5,0,0,1-4.73-2.82,12.64,12.64,0,0,1-4-8.19c1.85,5.57,7.78,7.74,13,6.29,6.75-1.87,13.11-5.15,19.33-8.33a166.11,166.11,0,0,0,18.43-10.86c2.49-1.71,4.94-3.49,7.39-5.26A16.92,16.92,0,0,0,160,90c2.06-2.77,1.95-6.25,1.62-9.74a12.91,12.91,0,0,1-3.74,17.86l-.44.27"/><path class="cls-2" d="M151.81,165.49l-40,23.08a12.9,12.9,0,0,1-13.45-22l.56-.32,40-23.08c6.24-3.43,14.46-1.47,17.9,4.77,3.56,5.92,1,14.15-5,17.55"/><path class="cls-3" d="M151.81,165.49,112,188.57a13.64,13.64,0,0,1-14.3-1,11.87,11.87,0,0,1-4-5.05,12.49,12.49,0,0,1-.73-8.28c-1.07,4.32,3.56,8.88,7.12,10.23,4.59,1.74,8.57.12,12.61-2,13-6.71,25.33-14.81,37.57-22.89a15,15,0,0,0,4-3.37c1.83-2.52,2-6.18,2-9.3a12.88,12.88,0,0,1,1.86,10.3,13.41,13.41,0,0,1-6.26,8.24"/><path class="cls-2" d="M141.39,139.54l-7.88,4.55c-6.34,3.55-14.76,1.24-18-5.08-3-5.79-.8-13.33,4.81-17a3.79,3.79,0,0,1,.34-.2l7.88-4.55a12.89,12.89,0,0,1,13.61,21.9h0a2.71,2.71,0,0,1-.37.21l-.34.18"/><path class="cls-3" d="M141.39,139.54l-7.88,4.55a13,13,0,0,1-14.8-1.34,10.88,10.88,0,0,1-4-5.54,15.74,15.74,0,0,1-.57-3.73c0-1.14.31-2.29.28-3.4a17.28,17.28,0,0,0,.32,3.44,10.68,10.68,0,0,0,2.84,5c1.2,1.23,3.47,3.38,5.28,3.37a11.48,11.48,0,0,0,4-.91c5-1.87,9.54-4.69,14.06-7.48a21,21,0,0,0,3.36-2.41c2.74-2.57,3.86-6.39,2-9.67a12.85,12.85,0,0,1-3.82,17.52c-.34.22-.7.42-1.06.61"/></svg>