<svg id="S_Dark_gray_icon" data-name="S Dark gray icon" xmlns="http://www.w3.org/2000/svg" viewBox="0 0 66.83 117.01"><defs><style>.cls-1{fill:none;stroke:#71869d;stroke-miterlimit:10;}</style></defs><title>S Dark gray icon</title><path class="cls-1" d="M154.44,98.39l-40,23.08a12.9,12.9,0,0,1-12.9-22.35l40-23.07a12.9,12.9,0,0,1,12.9,22.34" transform="translate(-94.54 -73.83)"/><path class="cls-1" d="M154.66,98.39l-40,23.08a13,13,0,0,1-10.86.94,13.15,13.15,0,0,1-4.67-3c-2-1.93-3.34-5.36-3.91-8,1.85,5.57,7.92,7.81,13.16,6.36,6.76-1.87,13.11-5.15,19.34-8.33a167.05,167.05,0,0,0,18.39-10.93c2.49-1.71,4.94-3.49,7.39-5.26A17.49,17.49,0,0,0,157.24,90c1.78-2.29,1.79-6,1.46-9.45,3.72,6.24,2.38,14.13-4,17.83" transform="translate(-94.54 -73.83)"/><path class="cls-1" d="M154.44,165.49l-40,23.08a12.9,12.9,0,1,1-12.9-22.34l40-23.08a12.9,12.9,0,0,1,12.9,22.34" transform="translate(-94.54 -73.83)"/><path class="cls-1" d="M154.46,165.49l-40,23.08c-4.12,2.74-10.36,2.12-14.28-.73-1.95-1.43-2.72-2.94-3.88-5a11.29,11.29,0,0,1-1-8c-1.2,4.51,3.59,8.29,7.15,9.64,4.59,1.74,8.57.12,12.61-2,13-6.71,25.32-14.81,37.57-22.89a14.71,14.71,0,0,0,4-3.37c1.84-2.52,3.87-7.2,1.77-9.5,2.14,2.35,2.74,7.78,2.08,10.53a13,13,0,0,1-6.08,8.17" transform="translate(-94.54 -73.83)"/><path class="cls-1" d="M138.39,141.54l-7.88,4.55a12.9,12.9,0,1,1-12.9-22.34l7.88-4.55a12.9,12.9,0,0,1,12.9,22.34" transform="translate(-94.54 -73.83)"/><path class="cls-1" d="M138.38,141.54l-7.88,4.55a13,13,0,0,1-14.8-1.34,10.55,10.55,0,0,1-4-5.54,15.66,15.66,0,0,1-.57-3.73c0-1.14.31-2.29.28-3.4a17.21,17.21,0,0,0,.32,3.44,10.69,10.69,0,0,0,2.84,5c1.2,1.23,3.47,3.38,5.28,3.37a11.71,11.71,0,0,0,4-.91c5-1.87,9.53-4.69,14.05-7.48a21.08,21.08,0,0,0,3.37-2.41c2.73-2.57,3.7-5.88,1.81-9.16a12.94,12.94,0,0,1-4.73,17.62" transform="translate(-94.54 -73.83)"/></svg>