<svg id="Layer_1" data-name="Layer 1" xmlns="http://www.w3.org/2000/svg" viewBox="0 0 256 256"><defs><style>.cls-1,.cls-3{fill:#71869d;}.cls-2{fill:#fff;}.cls-3{opacity:0.55;isolation:isolate;}</style></defs><title>S Gray &amp;amp; white</title><g id="Layer_2_copy" data-name="Layer 2 copy"><rect class="cls-1" width="256" height="256" rx="39.4"/></g><g id="S_LOGO_White" data-name="S LOGO White"><path class="cls-2" d="M157.44,98.39l-40,23.08a12.9,12.9,0,0,1-12.9-22.35h0l40-23.07a12.9,12.9,0,0,1,12.9,22.34"/><path class="cls-3" d="M157.44,98.39l-40,23.08a12.45,12.45,0,0,1-10.62,1,11.52,11.52,0,0,1-4.73-2.82,12.63,12.63,0,0,1-4-8.19c1.85,5.57,7.78,7.74,13,6.29,6.75-1.87,13.11-5.15,19.33-8.33a166.11,166.11,0,0,0,18.43-10.86c2.49-1.71,4.94-3.49,7.39-5.26A16.91,16.91,0,0,0,160,90c2.06-2.77,1.95-6.25,1.62-9.74a12.9,12.9,0,0,1-4.18,18.13"/><path class="cls-2" d="M151.81,165.49l-40,23.08a12.9,12.9,0,0,1-13.45-22l.56-.32,40-23.08a12.89,12.89,0,0,1,12.89,22.32"/><path class="cls-3" d="M151.81,165.49,112,188.57c-4.11,2.74-10.36,2.12-14.27-.73a12.59,12.59,0,0,1-4.08-5.28,11.43,11.43,0,0,1-.73-8.28c-1.07,4.32,3.56,8.88,7.12,10.23,4.59,1.74,8.57.12,12.61-2,13-6.71,25.33-14.81,37.57-22.89a15,15,0,0,0,4-3.37c1.83-2.52,1.88-5.88,1.85-9,2.67,1.85,2.65,7.28,2,10a13.4,13.4,0,0,1-6.26,8.24"/><path class="cls-2" d="M141.39,139.54l-7.88,4.55A12.9,12.9,0,0,1,120.27,122a3.79,3.79,0,0,1,.34-.2l7.88-4.55a12.89,12.89,0,0,1,13.61,21.9,3.47,3.47,0,0,1-.37.21l-.34.18"/><path class="cls-3" d="M141.39,139.54l-7.88,4.55a13,13,0,0,1-14.8-1.34,10.88,10.88,0,0,1-4-5.54,15.74,15.74,0,0,1-.57-3.73c0-1.14.31-2.29.28-3.4a17.28,17.28,0,0,0,.32,3.44,10.68,10.68,0,0,0,2.84,5c1.2,1.23,3.47,3.38,5.28,3.37a11.48,11.48,0,0,0,4-.91c5-1.87,9.54-4.69,14.06-7.48a21,21,0,0,0,3.36-2.41c2.74-2.57,3.86-6.39,2-9.67a12.68,12.68,0,0,1-4.88,18.13"/></g></svg>