<svg id="Layer_5" data-name="Layer 5" xmlns="http://www.w3.org/2000/svg" xmlns:xlink="http://www.w3.org/1999/xlink" viewBox="0 0 59.33 96.27"><defs><style>.cls-1{fill:url(#linear-gradient);}.cls-2{fill:url(#linear-gradient-2);}.cls-3{fill:url(#linear-gradient-3);}.cls-4{fill:url(#linear-gradient-4);}.cls-5{fill:url(#linear-gradient-5);}.cls-6{fill:url(#linear-gradient-6);}</style><linearGradient id="linear-gradient" x1="104.44" y1="-39.96" x2="152.2" y2="-19.8" gradientTransform="matrix(0.87, 0.5, 0.5, -0.87, -66.24, -42.23)" gradientUnits="userSpaceOnUse"><stop offset="0.15" stop-color="#febe00"/><stop offset="0.6" stop-color="#f9952a"/></linearGradient><linearGradient id="linear-gradient-2" x1="144.11" y1="-23.8" x2="119.63" y2="-41.56" gradientTransform="matrix(1, 0, 0, -1, -98.34, 18.13)" xlink:href="#linear-gradient"/><linearGradient id="linear-gradient-3" x1="93.2" y1="-64.53" x2="151.04" y2="-51.09" gradientTransform="matrix(0.87, 0.5, 0.5, -0.87, -52.98, -38.31)" gradientUnits="userSpaceOnUse"><stop offset="0.15" stop-color="#00d4ea"/><stop offset="0.69" stop-color="#5785ed"/></linearGradient><linearGradient id="linear-gradient-4" x1="99.27" y1="-58.18" x2="157.66" y2="-58.18" gradientTransform="matrix(1, 0, 0, -1, -98.34, 18.13)" gradientUnits="userSpaceOnUse"><stop offset="0.35" stop-color="#5785ed"/><stop offset="0.67" stop-color="#00d4ea"/></linearGradient><linearGradient id="linear-gradient-5" x1="65.82" y1="2.12" x2="-4.02" y2="39.92" gradientTransform="translate(14.82 -11.92) rotate(30)" gradientUnits="userSpaceOnUse"><stop offset="0.35" stop-color="#be1e2d"/><stop offset="0.67" stop-color="#e74128"/></linearGradient><linearGradient id="linear-gradient-6" x1="99.27" y1="-5.3" x2="157.66" y2="-5.3" gradientTransform="matrix(1, 0, 0, -1, -98.34, 18.13)" xlink:href="#linear-gradient-5"/></defs><title>S logo</title><rect class="cls-1" x="14.97" y="37.05" width="30.75" height="21.61" rx="10.8" transform="translate(-19.85 21.58) rotate(-30)"/><path class="cls-2" d="M45.1,45.53a10.82,10.82,0,0,1-5.4,9.39l-7.91,4.57a10.83,10.83,0,0,1-14.76-4,7.77,7.77,0,0,1-.5-1,10.85,10.85,0,0,0,13.26,2l7.91-4.57a10.82,10.82,0,0,0,5.4-9.39,10.69,10.69,0,0,0-.93-4.35,9.73,9.73,0,0,1,1.49,2A10.7,10.7,0,0,1,45.1,45.53Z" transform="translate(0.01 0)"/><rect class="cls-3" x="-2.93" y="63.77" width="65.16" height="21.61" rx="10.8" transform="translate(-33.3 24.82) rotate(-30)"/><path class="cls-4" d="M59.32,63.65A10.82,10.82,0,0,1,53.92,73L16.2,94.82A10.84,10.84,0,0,1,1.44,90.87a9.4,9.4,0,0,1-.51-1,10.85,10.85,0,0,0,13.27,2L51.92,70.09a10.82,10.82,0,0,0,5.4-9.39,10.61,10.61,0,0,0-.93-4.34,9.73,9.73,0,0,1,1.49,2A10.69,10.69,0,0,1,59.32,63.65Z" transform="translate(0.01 0)"/><rect class="cls-5" x="-2.93" y="10.89" width="65.16" height="21.61" rx="10.8" transform="translate(-6.86 17.73) rotate(-30)"/><path class="cls-6" d="M59.32,10.77a10.82,10.82,0,0,1-5.4,9.39L16.2,41.94A10.84,10.84,0,0,1,1.44,38a9.4,9.4,0,0,1-.51-1A10.83,10.83,0,0,0,14.2,39L51.92,17.21a10.82,10.82,0,0,0,5.4-9.39,10.68,10.68,0,0,0-.93-4.34,10.3,10.3,0,0,1,1.49,2A10.69,10.69,0,0,1,59.32,10.77Z" transform="translate(0.01 0)"/></svg>