<svg id="Dashboard_icon" data-name="Dashboard icon" xmlns="http://www.w3.org/2000/svg" viewBox="0 0 254.82 227.51"><defs><style>.cls-1,.cls-2{fill:none;stroke:#38bba1;stroke-miterlimit:10;}.cls-1{stroke-width:3.86px;}.cls-2{stroke-width:3.86px;}.cls-3{fill:#fff;}</style></defs><title>Dashboard icon green</title><g id="green"><rect class="cls-1" x="1.93" y="1.93" width="250.96" height="223.65" rx="22.32"/><line class="cls-2" x1="1.93" y1="46.22" x2="252.89" y2="46.22"/><circle class="cls-1" cx="60.6" cy="146.05" r="36.91"/><path class="cls-3" d="M61.19,128v46.26h46.26S107.22,132.59,61.19,128Z" transform="translate(-0.59 -28.17)"/><path class="cls-1" d="M70.64,119v45.28h45.28S115.7,123.57,70.64,119Z" transform="translate(-0.59 -28.17)"/><rect class="cls-1" x="129.25" y="146.05" width="11.81" height="36.91" rx="2.9"/><rect class="cls-1" x="187.25" y="146.05" width="11.81" height="36.91" rx="2.9"/><rect class="cls-1" x="158.04" y="126.31" width="11.81" height="56.65" rx="2.9"/><rect class="cls-1" x="216.2" y="107.49" width="11.81" height="75.47" rx="2.9"/><rect class="cls-1" x="17.53" y="47.29" width="14.93" height="14.93" rx="6.06" transform="translate(-31.99 5.55) rotate(-45)"/><rect class="cls-1" x="41.05" y="49.69" width="10.14" height="10.14" rx="3.34" transform="translate(-25.8 20.48) rotate(-45)"/><rect class="cls-1" x="61.49" y="51.41" width="6.7" height="6.7" rx="1.99" transform="translate(-20.32 33.72) rotate(-45)"/><polyline class="cls-1" points="135.15 136.16 163.94 109.15 191.61 136.16 222.11 86.07"/></g></svg>