<svg id="Layer_1" data-name="Layer 1" xmlns="http://www.w3.org/2000/svg" xmlns:xlink="http://www.w3.org/1999/xlink" viewBox="0 0 21.9 37.33"><defs><style>.cls-1{fill:url(#linear-gradient);}.cls-2{fill:url(#linear-gradient-2);}.cls-3{fill:url(#linear-gradient-3);}.cls-4{fill:url(#linear-gradient-4);}.cls-5{fill:url(#linear-gradient-5);}.cls-6{fill:url(#linear-gradient-6);}.cls-7{fill:none;stroke:#302e2d;stroke-miterlimit:10;stroke-width:0.02px;}</style><linearGradient id="linear-gradient" x1="114.19" y1="156.49" x2="109.42" y2="161.35" gradientTransform="matrix(1, 0, 0, -1, -99.39, 189.82)" gradientUnits="userSpaceOnUse"><stop offset="0.47" stop-color="#febe00"/><stop offset="1" stop-color="#f9952a"/></linearGradient><linearGradient id="linear-gradient-2" x1="98.32" y1="168.64" x2="113.8" y2="176.92" gradientTransform="matrix(1, 0, 0, -1, -99.39, 189.82)" gradientUnits="userSpaceOnUse"><stop offset="0.36" stop-color="#006f79"/><stop offset="0.6" stop-color="#00be9a"/><stop offset="0.88" stop-color="#00dc3a"/></linearGradient><linearGradient id="linear-gradient-3" x1="96.88" y1="171.34" x2="112.36" y2="179.62" xlink:href="#linear-gradient-2"/><linearGradient id="linear-gradient-4" x1="120.09" y1="184.41" x2="102.81" y2="179.64" gradientTransform="matrix(1, 0, 0, -1, -99.39, 189.82)" gradientUnits="userSpaceOnUse"><stop offset="0.08" stop-color="aqua"/><stop offset="0.41" stop-color="#007fff"/><stop offset="0.73" stop-color="blue"/></linearGradient><linearGradient id="linear-gradient-5" x1="6.58" y1="6.4" x2="11.53" y2="11.35" gradientUnits="userSpaceOnUse"><stop offset="0.07" stop-color="#8a0184"/><stop offset="0.99" stop-color="#e70104"/><stop offset="1" stop-color="#e80102"/></linearGradient><linearGradient id="linear-gradient-6" x1="108.43" y1="177.27" x2="117.79" y2="165.39" gradientTransform="matrix(1, 0, 0, -1, -99.39, 189.82)" gradientUnits="userSpaceOnUse"><stop offset="0.33" stop-color="#be1e2d"/><stop offset="0.51" stop-color="#e74128"/></linearGradient></defs><title>TOS Logo symbol</title><polygon class="cls-1" points="13.09 26.39 13.58 37.28 6.8 25.27 13.09 26.39 13.09 26.39"/><polygon class="cls-2" points="11.14 15.15 6.44 24.63 0.01 13.22 0.19 13.04 11.14 15.15"/><polygon class="cls-3" points="9.67 11.03 11.14 15.15 0.19 13.04 9.67 11.03"/><polygon class="cls-4" points="13.23 0.01 21.88 12.21 21.4 12.65 11.14 15.15 9.67 11.03 13.23 0.01"/><polygon class="cls-5" points="13.23 0.01 9.67 11.03 0.19 13.04 13.23 0.01"/><polygon class="cls-6" points="21.4 12.65 12.84 20.7 13.09 26.39 6.8 25.27 6.44 24.63 11.14 15.15 21.4 12.65"/><polyline class="cls-7" points="13.09 26.39 13.58 37.28 6.8 25.27 6.44 24.63 0.01 13.22 0.19 13.04 13.23 0.01 21.88 12.21 21.4 12.65 12.84 20.7 13.09 26.39"/><polyline class="cls-7" points="13.23 0.01 9.67 11.03 11.14 15.15 6.44 24.63"/><polyline class="cls-7" points="13.09 26.39 13.09 26.39 6.8 25.27"/><polyline class="cls-7" points="9.67 11.03 0.19 13.04 11.14 15.15 21.4 12.65 21.4 12.65"/></svg>