<?xml version="1.0" encoding="UTF-8"?>
<svg id="Layer_1" data-name="Layer 1" xmlns="http://www.w3.org/2000/svg" xmlns:xlink="http://www.w3.org/1999/xlink" viewBox="0 0 1753.58 1035.3">
  <defs>
    <style>
      .cls-1 {
        fill: url(#linear-gradient-2);
      }

      .cls-2 {
        fill: #fff;
      }

      .cls-3 {
        fill: url(#linear-gradient-6);
      }

      .cls-4 {
        fill: url(#linear-gradient-5);
      }

      .cls-5 {
        fill: none;
      }

      .cls-6 {
        fill: url(#linear-gradient-3);
      }

      .cls-7 {
        fill: url(#linear-gradient);
      }

      .cls-8 {
        fill: url(#linear-gradient-4);
      }
    </style>
    <linearGradient id="linear-gradient" x1="858.9" y1="416.63" x2="802.56" y2="507.97" gradientUnits="userSpaceOnUse">
      <stop offset="0" stop-color="#fcee21"/>
      <stop offset=".09" stop-color="#fae41e"/>
      <stop offset=".23" stop-color="#f6cb18"/>
      <stop offset=".42" stop-color="#efa10e"/>
      <stop offset=".64" stop-color="#e56801"/>
      <stop offset=".66" stop-color="#e56300"/>
    </linearGradient>
    <linearGradient id="linear-gradient-2" x1="896.7" y1="439.94" x2="840.36" y2="531.28" xlink:href="#linear-gradient"/>
    <linearGradient id="linear-gradient-3" x1="879.46" y1="429.31" x2="823.12" y2="520.65" xlink:href="#linear-gradient"/>
    <linearGradient id="linear-gradient-4" x1="879.46" y1="429.31" x2="823.12" y2="520.65" xlink:href="#linear-gradient"/>
    <linearGradient id="linear-gradient-5" x1="909.97" y1="448.13" x2="853.63" y2="539.47" xlink:href="#linear-gradient"/>
    <linearGradient id="linear-gradient-6" x1="908.83" y1="447.43" x2="852.49" y2="538.77" gradientUnits="userSpaceOnUse">
      <stop offset=".4" stop-color="#fcee21"/>
      <stop offset=".48" stop-color="#fae41e"/>
      <stop offset=".61" stop-color="#f6cb18"/>
      <stop offset=".78" stop-color="#efa10e"/>
      <stop offset=".98" stop-color="#e56801"/>
      <stop offset="1" stop-color="#e56300"/>
    </linearGradient>
  </defs>
  <rect class="cls-2" x="763.18" y="386.06" width="187.4" height="170.7" rx="37.93" ry="37.93"/>
  <g>
    <path class="cls-5" d="m809.35,487.71c0,1.3.33,2.33,1,3.08.66.76,1.57,1.14,2.71,1.14,2.38,0,4.68-1.73,6.91-5.19,2.23-3.46,4.3-8.52,6.21-15.16-5.07,1.79-9.14,4.19-12.22,7.19-3.08,3-4.61,5.98-4.61,8.95Z"/>
    <path class="cls-7" d="m853.46,460.16c.63-.57,1.83-.93,3.58-1.08,1.91-.17,3.53-.01,4.86.46,1.33.47,2.38,1.19,2.11,2.05-.31.99-4.44,9.16-4.63,11.73.14-.28.27-.6.38-.97,2.09-7.05,5.26-11.52,11.31-28.37,3.09-.12,5.43-.91,7.03-2.37,1.59-1.45,2.39-3.52,2.39-6.21,0-1.98-.59-3.56-1.76-4.75-1.17-1.19-2.74-1.79-4.68-1.79-3.34,0-6.83,2.76-10.48,8.28-3.65,5.52-7.25,13.49-10.8,23.9-.83-.03-1.72-.05-2.67-.07-.94-.01-2.23-.02-3.87-.02-.77,0-1.58,0-2.41.02-.83.02-1.72.04-2.64.07,1.27-3.68,2.59-7.89,3.96-12.64,1.38-4.75,2.82-10.07,4.34-15.98-3.03-1.33-6.2-2.3-9.51-2.92-3.31-.62-6.96-.93-10.94-.93-5.41,0-9.78,1-13.12,2.99-3.34,1.99-5.01,4.54-5.01,7.63,0,1.24.26,2.18.77,2.83s1.24.97,2.2.97c.09,0,.23-.02.42-.05.19-.03.32-.06.42-.09.28-1.73,1.21-3.06,2.78-3.99,1.58-.93,3.76-1.39,6.54-1.39,1.95,0,3.93.16,5.96.46,2.02.31,4.18.79,6.47,1.44-1.11,4.11-2.29,8.13-3.52,12.06-1.24,3.93-2.54,7.76-3.9,11.5-8.38,1.36-15.23,4.51-20.57,9.44-5.33,4.93-8,10.49-8,16.67,0,3.9,1.12,6.96,3.36,9.18,2.24,2.23,5.32,3.34,9.25,3.34,5.53,0,10.29-2.53,14.28-7.6,3.99-5.07,7.68-13.32,11.08-24.76.34-.03.79-.08,1.34-.14,2.57-.22,4.11-.32,4.64-.32.99,0,2.64.05,4.96.14.03,0,.15.12.34.33.41-1.27.85-2.56,1.32-3.88.99-2.88,1.8-4.6,2.43-5.17Zm-33.49,26.57c-2.23,3.46-4.53,5.19-6.91,5.19-1.14,0-2.05-.38-2.71-1.14-.66-.76-1-1.79-1-3.08,0-2.97,1.54-5.95,4.61-8.95,3.08-3,7.15-5.39,12.22-7.19-1.92,6.65-3.99,11.7-6.21,15.16Z"/>
    <path class="cls-1" d="m900.19,457.99c-1.22-1.18-2.85-1.68-4.88-1.51-2.12.19-3.78,1.11-4.97,2.76-1.19,1.66-1.68,3.72-1.46,6.18.15,1.73.6,3.08,1.36,4.07.75.99,1.85,1.67,3.27,2.04-.85,5.88-2.55,11-5.1,15.37-2.55,4.37-5,6.65-7.34,6.86-1.05.09-1.83-.19-2.35-.84-.52-.65-.85-1.76-.99-3.34-.12-1.35,0-3.12.33-5.29.34-2.17.94-4.99,1.82-8.44.55-2.19,1.2-4.38,1.94-6.57.74-2.19,1.1-3.36,1.09-3.52-.07-.83-.75-1.45-2.03-1.87-1.28-.42-2.87-.54-4.78-.37-1.36.12-2.35.41-2.97.89-.63.47-1.12,1.32-1.48,2.53-1.2,3.7-2.1,7.31-2.71,10.8-.61,3.5-.92,6.78-.93,9.86-1.75,2.29-3.41,4.09-4.98,5.37-1.56,1.29-2.93,1.98-4.1,2.08-.95.08-1.67-.16-2.16-.72-.48-.56-.78-1.51-.9-2.83-.18-2.03.04-4.63.65-7.78.61-3.16,1.56-6.57,2.85-10.26,0-.04,0-.08,0-.13-2.25,4.44-8.17-2.48-9.67-4.11-1.32,4.07-2.35,7.88-3.09,11.45-.97,4.68-1.34,8.34-1.11,10.99.06.65.18,1.36.37,2.13.19.77.49,1.73.9,2.88.85,3.27,5.25,6.61,6.33,6.96,1.09.35,2.25.48,3.48.37,1.97-.17,3.88-.91,5.74-2.2,1.86-1.29,4.01-3.41,6.45-6.36.64,2.4,1.88,4.15,3.72,5.26,1.83,1.11,4.18,1.54,7.05,1.29,3.51-.31,6.69-1.79,9.52-4.46,2.84-2.67,5.46-6.64,7.85-11.9,1.79-3.97,3.19-8.1,4.2-12.38,1.01-4.28,1.41-7.59,1.2-9.93-.21-2.37-.92-4.15-2.14-5.33Z"/>
    <path class="cls-6" d="m859.38,473.32c.2-2.57,4.32-10.74,4.63-11.73.27-.85-.78-1.58-2.11-2.05-1.33-.47-2.95-.63-4.86-.46-1.76.15-2.95.51-3.58,1.08-.63.57-1.45,2.29-2.43,5.17-.47,1.32-.91,2.61-1.32,3.88,1.5,1.63,7.42,8.55,9.67,4.11Z"/>
    <path class="cls-8" d="m859.38,473.32c.2-2.57,4.32-10.74,4.63-11.73.27-.85-.78-1.58-2.11-2.05-1.33-.47-2.95-.63-4.86-.46-1.76.15-2.95.51-3.58,1.08-.63.57-1.45,2.29-2.43,5.17-.47,1.32-.91,2.61-1.32,3.88,1.5,1.63,7.42,8.55,9.67,4.11Z"/>
    <path class="cls-4" d="m899.71,445.11l-.94,2.62s13.1-2.92,14.41,11.93l2.81-1.63s.66-15.72-16.28-12.91Z"/>
    <path class="cls-3" d="m897.94,450.79l-.67,1.98s9.33-2.21,10.26,9.03l2-1.23s.47-11.91-11.59-9.78Z"/>
  </g>
</svg>