<svg id="Layer_9" data-name="Layer 9" xmlns="http://www.w3.org/2000/svg" viewBox="0 0 59.64 130.02"><title>L black logo</title><polygon points="0 4.01 15.57 12.15 15.57 130.02 0 121.88 0 4.01"/><polygon points="12.15 0 29.97 8.49 29.5 127.42 20.41 122.7 21.06 10.56 12.15 5.96 12.15 0"/><polygon points="32.64 98.63 41.84 103.75 41.84 123.33 32.64 118.38 32.64 98.63"/><polygon points="37.24 95.09 53.05 103.1 52.82 118.75 44.32 115.68 44.48 103.1 37.24 99.17 37.24 95.09"/><polygon points="47.02 94.86 59.64 100.58 59.53 116.14 54.84 113.74 55 101.15 47.02 97.34 47.02 94.86"/></svg>